<?xml version="1.0" encoding="UTF-8" standalone="no"?>
<!-- Created with Inkscape (http://www.inkscape.org/) -->

<svg
   xmlns:dc="http://purl.org/dc/elements/1.1/"
   xmlns:cc="http://creativecommons.org/ns#"
   xmlns:rdf="http://www.w3.org/1999/02/22-rdf-syntax-ns#"
   xmlns:svg="http://www.w3.org/2000/svg"
   xmlns="http://www.w3.org/2000/svg"
   xmlns:sodipodi="http://sodipodi.sourceforge.net/DTD/sodipodi-0.dtd"
   xmlns:inkscape="http://www.inkscape.org/namespaces/inkscape"
   width="210mm"
   height="297mm"
   id="svg3031"
   version="1.1"
   inkscape:version="0.48.4 r9939"
   sodipodi:docname="Aries.svg">
  <defs
     id="defs3" />
  <sodipodi:namedview
     inkscape:document-units="mm"
     id="base"
     pagecolor="#ffffff"
     bordercolor="#666666"
     borderopacity="1.0"
     inkscape:pageopacity="0.0"
     inkscape:pageshadow="2"
     inkscape:zoom="0.51503181"
     inkscape:cx="372.04724"
     inkscape:cy="526.18109"
     inkscape:current-layer="layer1"
     showgrid="false"
     inkscape:window-width="1366"
     inkscape:window-height="719"
     inkscape:window-x="0"
     inkscape:window-y="25"
     inkscape:window-maximized="1" />
  <metadata
     id="metadata4">
    <rdf:RDF>
      <cc:Work
         rdf:about="">
        <dc:format>image/svg+xml</dc:format>
        <dc:type
           rdf:resource="http://purl.org/dc/dcmitype/StillImage" />
      </cc:Work>
    </rdf:RDF>
  </metadata>
  <g
     inkscape:label="Layer 1"
     inkscape:groupmode="layer"
     id="layer1">
    <path
       inkscape:connector-curvature="0"
       style="font-size:64px;font-style:normal;font-variant:normal;font-weight:normal;font-stretch:normal;text-align:start;line-height:125%;writing-mode:lr-tb;text-anchor:start;fill:#000000;fill-opacity:1;stroke:none;display:inline;font-family:Arev Sans;-inkscape-font-specification:Arev Sans"
       d="m 349.0625,541.86218 0,-1.5125 c -10e-6,-1.19166 -0.25834,-3.31666 -0.775,-6.375 -0.23334,-1.44166 -0.61668,-2.94166 -1.15,-4.5 -0.54167,-1.58332 -1.10834,-2.82498 -1.7,-3.725 -0.45834,-0.68332 -1.00417,-1.02498 -1.6375,-1.025 -0.71667,2e-5 -1.21667,0.27502 -1.5,0.825 -0.25834,0.50835 -0.3875,1.06252 -0.3875,1.6625 0,1.26668 0.45416,2.41251 1.3625,3.4375 l -2.125,0 c -0.73334,-1.12499 -1.1,-2.31248 -1.1,-3.5625 0,-1.30832 0.35,-2.33332 1.05,-3.075 0.725,-0.76665 1.60416,-1.14998 2.6375,-1.15 1.33333,2e-5 2.37499,0.55002 3.125,1.65 0.84999,1.24168 1.55832,2.75002 2.125,4.525 0.39999,1.29168 0.73749,2.72084 1.0125,4.2875 0.27499,-1.56666 0.61249,-2.99582 1.0125,-4.2875 0.53332,-1.73332 1.24165,-3.24165 2.125,-4.525 0.74998,-1.09998 1.79165,-1.64998 3.125,-1.65 1.03332,2e-5 1.91248,0.38335 2.6375,1.15 0.69998,0.74168 1.04998,1.76668 1.05,3.075 -2e-5,1.25002 -0.36669,2.43751 -1.1,3.5625 l -2.125,0 c 0.90832,-1.02499 1.36248,-2.17082 1.3625,-3.4375 -2e-5,-0.59998 -0.12918,-1.15415 -0.3875,-1.6625 -0.28335,-0.54998 -0.78335,-0.82498 -1.5,-0.825 -0.63335,2e-5 -1.17918,0.34168 -1.6375,1.025 -0.59168,0.90002 -1.15835,2.14168 -1.7,3.725 -0.53335,1.55834 -0.91668,3.05834 -1.15,4.5 -0.51668,3.05834 -0.77501,5.18334 -0.775,6.375 l 0,1.5125 -1.875,0"
       id="text2421" />
  </g>
</svg>
