<?xml version="1.0" encoding="UTF-8" standalone="no"?>
<!-- Created with Inkscape (http://www.inkscape.org/) -->

<svg
   xmlns:dc="http://purl.org/dc/elements/1.1/"
   xmlns:cc="http://creativecommons.org/ns#"
   xmlns:rdf="http://www.w3.org/1999/02/22-rdf-syntax-ns#"
   xmlns:svg="http://www.w3.org/2000/svg"
   xmlns="http://www.w3.org/2000/svg"
   xmlns:sodipodi="http://sodipodi.sourceforge.net/DTD/sodipodi-0.dtd"
   xmlns:inkscape="http://www.inkscape.org/namespaces/inkscape"
   width="210mm"
   height="297mm"
   id="svg3467"
   version="1.1"
   inkscape:version="0.48.4 r9939"
   sodipodi:docname="New document 26">
  <defs
     id="defs3" />
  <sodipodi:namedview
     inkscape:document-units="mm"
     id="base"
     pagecolor="#ffffff"
     bordercolor="#666666"
     borderopacity="1.0"
     inkscape:pageopacity="0.0"
     inkscape:pageshadow="2"
     inkscape:zoom="11.167502"
     inkscape:cx="349.98831"
     inkscape:cy="519.97783"
     inkscape:current-layer="layer1"
     showgrid="false"
     inkscape:window-width="1366"
     inkscape:window-height="719"
     inkscape:window-x="0"
     inkscape:window-y="25"
     inkscape:window-maximized="1" />
  <metadata
     id="metadata4">
    <rdf:RDF>
      <cc:Work
         rdf:about="">
        <dc:format>image/svg+xml</dc:format>
        <dc:type
           rdf:resource="http://purl.org/dc/dcmitype/StillImage" />
        <dc:title></dc:title>
      </cc:Work>
    </rdf:RDF>
  </metadata>
  <g
     inkscape:label="Layer 1"
     inkscape:groupmode="layer"
     id="layer1">
    <path
       style="font-size:64px;font-style:normal;font-variant:normal;font-weight:normal;font-stretch:normal;text-align:start;line-height:125%;writing-mode:lr-tb;text-anchor:start;fill:#000000;fill-opacity:1;stroke:none;display:inline;font-family:Arev Sans;-inkscape-font-specification:Arev Sans"
       d="m 350.52424,536.13174 c -1.30322,-1.84066 -1.53456,-4.16908 -1.44542,-6.35956 -0.0166,-1.47834 -0.0602,-3.02921 -0.76392,-4.36797 -1.09794,-0.87671 -1.64432,1.10216 -2.11052,1.81481 -0.83211,1.64462 -0.92923,3.51484 -0.86764,5.32167 0,0.55118 0,1.10236 0,1.65355 -0.625,0 -1.25,0 -1.875,0 -0.0649,-2.40824 0.18478,-4.85224 -0.28194,-7.23139 -0.20203,-1.01066 -1.02389,-2.01529 -2.1444,-1.89426 -0.721,0.20395 -0.89348,-0.14332 -0.78616,-0.76911 0,-0.53508 0,-1.07017 0,-1.60526 1.23265,-0.0635 2.68956,0.007 3.49623,1.08937 0.64197,0.55633 0.98726,2.01186 1.22494,2.33007 0.51805,-1.39175 1.43454,-2.77061 2.83559,-3.37963 1.17336,-0.19763 1.83388,1.07072 2.34536,1.91556 0.90391,1.91955 0.72531,4.1082 0.7781,6.17316 0.0222,0.96732 0.12018,1.94932 0.46978,2.85897 0.73194,-1.99036 2.97445,-3.23646 5.05048,-2.79726 2.12144,0.37688 3.68917,2.61011 3.22499,4.7333 -0.32148,1.85972 -2.0303,3.36769 -3.9384,3.3361 -1.3529,0.0607 -2.73258,-0.36585 -3.78707,-1.22214 -0.69709,2.25039 -2.72881,4.08446 -5.11223,4.28502 -0.46233,-0.0533 -1.53331,0.38436 -1.33777,-0.39987 0,-0.47838 0,-0.95676 0,-1.43515 1.47626,0.15236 3.05553,-0.39739 3.89421,-1.66676 0.5121,-0.72242 0.8177,-1.56232 1.13079,-2.38322 z m 2.125,-0.4875 c 0.96936,1.23213 2.88115,1.93018 4.29654,1.05844 1.14719,-0.77558 1.28238,-2.65138 0.15334,-3.50875 -1.13109,-0.9534 -3.01281,-0.44744 -3.62939,0.86598 -0.33531,0.49297 -0.60866,1.02728 -0.82049,1.58433 z"
       id="text2461"
       inkscape:connector-curvature="0" />
  </g>
</svg>
