<?xml version="1.0" encoding="UTF-8" standalone="no"?>
<!-- Created with Inkscape (http://www.inkscape.org/) -->

<svg
   xmlns:dc="http://purl.org/dc/elements/1.1/"
   xmlns:cc="http://creativecommons.org/ns#"
   xmlns:rdf="http://www.w3.org/1999/02/22-rdf-syntax-ns#"
   xmlns:svg="http://www.w3.org/2000/svg"
   xmlns="http://www.w3.org/2000/svg"
   xmlns:sodipodi="http://sodipodi.sourceforge.net/DTD/sodipodi-0.dtd"
   xmlns:inkscape="http://www.inkscape.org/namespaces/inkscape"
   width="210mm"
   height="297mm"
   id="svg3204"
   version="1.1"
   inkscape:version="0.48.4 r9939"
   sodipodi:docname="New document 11">
  <defs
     id="defs3" />
  <sodipodi:namedview
     inkscape:document-units="mm"
     id="base"
     pagecolor="#ffffff"
     bordercolor="#666666"
     borderopacity="1.0"
     inkscape:pageopacity="0.0"
     inkscape:pageshadow="2"
     inkscape:zoom="10.21534"
     inkscape:cx="107.01226"
     inkscape:cy="620.12915"
     inkscape:current-layer="layer1"
     showgrid="false"
     inkscape:window-width="1366"
     inkscape:window-height="719"
     inkscape:window-x="0"
     inkscape:window-y="25"
     inkscape:window-maximized="1" />
  <metadata
     id="metadata4">
    <rdf:RDF>
      <cc:Work
         rdf:about="">
        <dc:format>image/svg+xml</dc:format>
        <dc:type
           rdf:resource="http://purl.org/dc/dcmitype/StillImage" />
        <dc:title></dc:title>
      </cc:Work>
    </rdf:RDF>
  </metadata>
  <g
     inkscape:label="Layer 1"
     inkscape:groupmode="layer"
     id="layer1">
    <path
       style="font-size:64px;font-style:normal;font-variant:normal;font-weight:normal;font-stretch:normal;text-align:start;line-height:125%;writing-mode:lr-tb;text-anchor:start;fill:#000000;fill-opacity:1;stroke:none;display:inline;font-family:Arev Sans;-inkscape-font-specification:Arev Sans"
       d="m 122.97754,434.9066 c -0.32704,0.89209 0.011,2.07505 1.00625,2.34219 0.85086,0.21231 1.79248,-0.0204 2.41875,-0.64219 0.44167,0.44167 0.88333,0.88333 1.325,1.325 -0.96066,0.90247 -2.29049,1.42737 -3.61495,1.23686 -1.7588,-0.11803 -3.2224,-1.77189 -3.11005,-3.53686 -0.0248,-1.42517 0.76409,-2.68358 1.37299,-3.92036 0.69572,-1.21765 1.66115,-2.27529 2.18451,-3.5933 0.68243,-1.40252 0.83192,-3.17025 0.0534,-4.56329 -0.89468,-1.57566 -2.98023,-2.29944 -4.64843,-1.57305 -1.63349,0.66365 -2.62109,2.52575 -2.24375,4.25001 0.46112,1.7866 1.97845,3.19859 2.00298,5.12284 0.1703,2.19069 -1.93116,4.19774 -4.11392,3.89746 -2.05884,-0.1566 -3.68615,-2.25665 -3.31914,-4.29238 0.23234,-1.85784 2.03872,-3.35278 3.91133,-3.20293 -0.86301,-2.09166 -0.43054,-4.70107 1.225,-6.2875 1.83562,-1.91819 5.08938,-2.20194 7.21269,-0.59745 1.57088,1.07132 2.44547,2.97402 2.36231,4.85995 0.0765,1.89183 -0.89773,3.59052 -1.8447,5.15361 -0.86143,1.25999 -1.76373,2.53136 -2.1803,4.02139 z m -6.275,-5.1375 c -1.23886,-0.57286 -2.77969,0.58729 -2.57891,1.93516 0.0742,1.34966 1.80907,2.18943 2.90078,1.37422 1.25502,-0.77671 1.05013,-2.77821 -0.32187,-3.30938 z"
       id="text2457"
       inkscape:connector-curvature="0" />
  </g>
</svg>
