<?xml version="1.0" encoding="UTF-8" standalone="no"?>
<!-- Created with Inkscape (http://www.inkscape.org/) -->

<svg
   xmlns:dc="http://purl.org/dc/elements/1.1/"
   xmlns:cc="http://creativecommons.org/ns#"
   xmlns:rdf="http://www.w3.org/1999/02/22-rdf-syntax-ns#"
   xmlns:svg="http://www.w3.org/2000/svg"
   xmlns="http://www.w3.org/2000/svg"
   xmlns:sodipodi="http://sodipodi.sourceforge.net/DTD/sodipodi-0.dtd"
   xmlns:inkscape="http://www.inkscape.org/namespaces/inkscape"
   width="210mm"
   height="297mm"
   id="svg3309"
   version="1.1"
   inkscape:version="0.91 r13725"
   sodipodi:docname="Libra.svg">
  <defs
     id="defs3" />
  <sodipodi:namedview
     inkscape:document-units="mm"
     id="base"
     pagecolor="#ffffff"
     bordercolor="#666666"
     borderopacity="1.0"
     inkscape:pageopacity="0.0"
     inkscape:pageshadow="2"
     inkscape:zoom="18.069004"
     inkscape:cx="1034.8358"
     inkscape:cy="784.53385"
     inkscape:current-layer="layer1"
     showgrid="false"
     inkscape:window-width="1280"
     inkscape:window-height="975"
     inkscape:window-x="0"
     inkscape:window-y="25"
     inkscape:window-maximized="1" />
  <metadata
     id="metadata4">
    <rdf:RDF>
      <cc:Work
         rdf:about="">
        <dc:format>image/svg+xml</dc:format>
        <dc:type
           rdf:resource="http://purl.org/dc/dcmitype/StillImage" />
        <dc:title />
      </cc:Work>
    </rdf:RDF>
  </metadata>
  <g
     inkscape:label="Layer 1"
     inkscape:groupmode="layer"
     id="layer1">
    <path
       style="color:#000000;font-style:normal;font-variant:normal;font-weight:normal;font-stretch:normal;font-size:medium;line-height:normal;font-family:sans-serif;text-indent:0;text-align:start;text-decoration:none;text-decoration-line:none;text-decoration-style:solid;text-decoration-color:#000000;letter-spacing:normal;word-spacing:normal;text-transform:none;direction:ltr;block-progression:tb;writing-mode:lr-tb;baseline-shift:baseline;text-anchor:start;white-space:normal;clip-rule:nonzero;display:inline;overflow:visible;visibility:visible;opacity:1;isolation:auto;mix-blend-mode:normal;color-interpolation:sRGB;color-interpolation-filters:linearRGB;solid-color:#000000;solid-opacity:1;fill:none;fill-opacity:1;fill-rule:nonzero;stroke:#000000;stroke-width:1.4;stroke-linecap:butt;stroke-linejoin:miter;stroke-miterlimit:4;stroke-dasharray:none;stroke-dashoffset:0;stroke-opacity:1;color-rendering:auto;image-rendering:auto;shape-rendering:auto;text-rendering:auto;enable-background:accumulate"
       d="m 1040.8434,265.01025 c 0.7519,1e-5 1.3924,0.12227 1.9316,0.35156 0.6619,0.28495 1.2134,0.63854 1.666,1.0625 0.4838,0.45481 0.853,0.97255 1.1172,1.56641 0.2467,0.56612 0.3711,1.17397 0.3711,1.83789 0,0.64113 -0.1244,1.23948 -0.373,1.80859 -0.1624,0.36305 -0.3631,0.69725 -0.6055,1.00586 l -0.6367,0.8086 4.3789,0 0,0.67187 -5.4024,0 0,-0.91797 c 0.2173,-0.1385 0.4379,-0.27244 0.6367,-0.44726 0.4215,-0.36876 0.7529,-0.82784 0.9883,-1.35547 0.2215,-0.50074 0.334,-1.0358 0.334,-1.58594 0,-0.55653 -0.1122,-1.09434 -0.334,-1.5957 l -0,-0.002 0,-0.004 c -0.2292,-0.49901 -0.5581,-0.94778 -0.9746,-1.33789 l -0,-0.002 -0,-0.002 c -0.3967,-0.36155 -0.8679,-0.65723 -1.4062,-0.88476 l -0,0 c -0.4984,-0.20903 -1.0622,-0.30663 -1.6817,-0.30664 -0.5926,1e-5 -1.1526,0.10008 -1.6699,0.30273 l -0,0 c -0.5261,0.20799 -1.0032,0.5067 -1.4199,0.88867 l -0,0.002 -0,0.002 c -0.4166,0.39011 -0.7454,0.83887 -0.9746,1.33789 l 0,0.004 -0,0.002 c -0.2218,0.50136 -0.334,1.03915 -0.334,1.5957 0,0.55015 0.1125,1.08519 0.334,1.58594 l 0,0.002 0,0.004 c 0.229,0.49855 0.5574,0.94911 0.9746,1.33984 0.1876,0.17482 0.4143,0.31484 0.6367,0.45703 l 0,0.91797 -5.3906,0 0,-0.67187 4.3789,0 -0.6367,-0.8086 c -0.2428,-0.30904 -0.443,-0.64418 -0.6055,-1.00781 -0.2487,-0.56911 -0.3731,-1.16552 -0.3731,-1.80664 0,-0.66391 0.1244,-1.27178 0.3711,-1.83789 l 0,-0.002 c 3e-4,-5.8e-4 -2e-4,-10e-4 0,-0.002 0.2641,-0.59218 0.6326,-1.10871 1.1153,-1.5625 0.4847,-0.45571 1.0332,-0.80585 1.6562,-1.05859 0.5861,-0.23488 1.2294,-0.35546 1.9414,-0.35547 z m -7.8496,13.45899 15.6992,0 0,0.67187 -15.6992,0 z"
       id="text2429"
       inkscape:connector-curvature="0"
       sodipodi:nodetypes="ccccccccccccccccccccccccccccccccccccccccccccccccccccccccc" />
  </g>
</svg>
