<?xml version="1.0" encoding="UTF-8" standalone="no"?>
<!-- Created with Inkscape (http://www.inkscape.org/) -->

<svg
   xmlns:dc="http://purl.org/dc/elements/1.1/"
   xmlns:cc="http://creativecommons.org/ns#"
   xmlns:rdf="http://www.w3.org/1999/02/22-rdf-syntax-ns#"
   xmlns:svg="http://www.w3.org/2000/svg"
   xmlns="http://www.w3.org/2000/svg"
   xmlns:sodipodi="http://sodipodi.sourceforge.net/DTD/sodipodi-0.dtd"
   xmlns:inkscape="http://www.inkscape.org/namespaces/inkscape"
   width="210mm"
   height="297mm"
   id="svg3309"
   version="1.1"
   inkscape:version="0.48.4 r9939"
   sodipodi:docname="New document 17">
  <defs
     id="defs3" />
  <sodipodi:namedview
     inkscape:document-units="mm"
     id="base"
     pagecolor="#ffffff"
     bordercolor="#666666"
     borderopacity="1.0"
     inkscape:pageopacity="0.0"
     inkscape:pageshadow="2"
     inkscape:zoom="12.776715"
     inkscape:cx="1054.2857"
     inkscape:cy="785.72162"
     inkscape:current-layer="layer1"
     showgrid="false"
     inkscape:window-width="1366"
     inkscape:window-height="719"
     inkscape:window-x="0"
     inkscape:window-y="25"
     inkscape:window-maximized="1" />
  <metadata
     id="metadata4">
    <rdf:RDF>
      <cc:Work
         rdf:about="">
        <dc:format>image/svg+xml</dc:format>
        <dc:type
           rdf:resource="http://purl.org/dc/dcmitype/StillImage" />
        <dc:title></dc:title>
      </cc:Work>
    </rdf:RDF>
  </metadata>
  <g
     inkscape:label="Layer 1"
     inkscape:groupmode="layer"
     id="layer1">
    <path
       style="font-size:64px;font-style:normal;font-variant:normal;font-weight:normal;font-stretch:normal;text-align:start;line-height:125%;writing-mode:lr-tb;text-anchor:start;fill:#000000;fill-opacity:1;stroke:none;display:inline;font-family:Arev Sans;-inkscape-font-specification:Arev Sans"
       d="m 1052.0982,269.49974 c -2.3791,0 -4.7583,0 -7.1375,0 0,-0.625 0,-1.25 0,-1.875 1.4333,0 2.8667,0 4.3,0 -1.7672,-2.14662 -1.5685,-5.5656 0.4094,-7.51152 2.0181,-2.18368 5.6309,-2.60558 8.0906,-0.93221 1.9873,1.21173 3.127,3.66116 2.674,5.95888 -0.059,0.88801 -0.8073,1.93084 -1.0232,2.48485 1.3998,0 2.7995,0 4.1992,0 0,0.625 0,1.25 0,1.875 -2.3833,0 -4.7667,0 -7.15,0 0,-0.625 0,-1.25 0,-1.875 1.5522,-0.77524 2.4993,-2.60555 2.1062,-4.31561 -0.4463,-2.16745 -2.7982,-3.58998 -4.9369,-3.22969 -2.116,0.24112 -3.9706,2.2508 -3.6865,4.43437 0.1215,1.32077 1.0054,2.48975 2.1547,3.11093 0,0.625 0,1.25 0,1.875 z m -7.1375,5.625 c 0,-0.625 0,-1.25 0,-1.875 6.2167,0 12.4333,0 18.65,0 0,0.625 0,1.25 0,1.875 -6.2167,0 -12.4333,0 -18.65,0 z"
       id="text2429"
       inkscape:connector-curvature="0" />
  </g>
</svg>
