<?xml version="1.0" encoding="UTF-8" standalone="no"?>
<!-- Generator: Adobe Illustrator 16.0.3, SVG Export Plug-In . SVG Version: 6.00 Build 0)  -->

<svg
   xmlns:dc="http://purl.org/dc/elements/1.1/"
   xmlns:cc="http://creativecommons.org/ns#"
   xmlns:rdf="http://www.w3.org/1999/02/22-rdf-syntax-ns#"
   xmlns:svg="http://www.w3.org/2000/svg"
   xmlns="http://www.w3.org/2000/svg"
   xmlns:sodipodi="http://sodipodi.sourceforge.net/DTD/sodipodi-0.dtd"
   xmlns:inkscape="http://www.inkscape.org/namespaces/inkscape"
   version="1.1"
   id="Ebene_1"
   x="0px"
   y="0px"
   width="21.717px"
   height="50px"
   viewBox="-99.5 859.5 21.717 50"
   enable-background="new -99.5 859.5 21.717 50"
   xml:space="preserve"
   inkscape:version="0.48.4 r9939"
   sodipodi:docname="Lilith.svg"><metadata
     id="metadata5493"><rdf:RDF><cc:Work
         rdf:about=""><dc:format>image/svg+xml</dc:format><dc:type
           rdf:resource="http://purl.org/dc/dcmitype/StillImage" /></cc:Work></rdf:RDF></metadata><defs
     id="defs5491" /><sodipodi:namedview
     pagecolor="#ffffff"
     bordercolor="#666666"
     borderopacity="1"
     objecttolerance="10"
     gridtolerance="10"
     guidetolerance="10"
     inkscape:pageopacity="0"
     inkscape:pageshadow="2"
     inkscape:window-width="1366"
     inkscape:window-height="719"
     id="namedview5489"
     showgrid="false"
     inkscape:zoom="4.72"
     inkscape:cx="-25.476246"
     inkscape:cy="25"
     inkscape:window-x="0"
     inkscape:window-y="25"
     inkscape:window-maximized="1"
     inkscape:current-layer="Ebene_1" /><g
     id="_x23_ffffffff" /><g
     id="_x23_000000ff"
     transform="translate(0.63559325,-4.8728816)"><path
       d="m -89.105274,873.86216 c 1.135466,-0.58799 2.417355,-0.8905 3.695099,-0.8721 0.596742,-0.007 1.194865,0.0732 1.768123,0.23714 -0.907544,0.20905 -1.784699,0.56313 -2.570685,1.0641 -1.473895,0.93931 -2.598771,2.41321 -3.116776,4.08234 -0.33889,1.09679 -0.425914,2.26217 -0.320472,3.40271 0.07828,0.84308 0.279492,1.67788 0.61608,2.45603 0.480248,1.10323 1.217426,2.09872 2.150756,2.85985 0.804403,0.66074 1.753847,1.13086 2.749798,1.42371 0.135833,0.0438 0.275809,0.0718 0.411181,0.11742 -0.353625,0.087 -0.709091,0.16989 -1.072846,0.20212 -0.996871,0.0893 -2.011699,-0.023 -2.96713,-0.32093 -0.0028,0.66627 -0.0014,1.333 -4.6e-4,1.99927 1.188877,-0.002 2.377295,-8.3e-4 3.565713,-8.3e-4 -0.0028,0.57971 0.0074,1.16033 -0.0051,1.73958 -1.187497,-0.005 -2.375454,-0.005 -3.562951,-4.6e-4 0.0032,1.25335 4.61e-4,2.50622 0.0014,3.75956 -0.587073,-0.002 -1.174604,0.004 -1.761677,-0.003 0.0051,-1.25289 0.0018,-2.5053 0.0014,-3.75865 -1.190259,0 -2.380519,-0.004 -3.57078,0.002 -0.0064,-0.57971 -9.16e-4,-1.15941 -0.0028,-1.73865 1.1898,4.6e-4 2.379599,-0.004 3.569398,0.002 0.01105,-0.9347 0.0041,-1.86987 0.0032,-2.80459 -0.920897,-0.54838 -1.746021,-1.2584 -2.415973,-2.0955 -0.52307,-0.65752 -0.963258,-1.38595 -1.254262,-2.17562 -0.306659,-0.82558 -0.457685,-1.70733 -0.446636,-2.58772 -0.006,-0.78092 0.116034,-1.56368 0.360532,-2.30546 0.343955,-1.05259 0.953129,-2.0071 1.711948,-2.80921 0.714616,-0.75052 1.541121,-1.40067 2.46386,-1.8754 z"
       id="path5487"
       inkscape:connector-curvature="0" /></g></svg>