<?xml version="1.0" encoding="utf-8"?>
<!-- Generator: Adobe Illustrator 16.0.3, SVG Export Plug-In . SVG Version: 6.00 Build 0)  -->
<!DOCTYPE svg PUBLIC "-//W3C//DTD SVG 1.1//EN" "http://www.w3.org/Graphics/SVG/1.1/DTD/svg11.dtd">
<svg version="1.1" id="Ebene_1" xmlns="http://www.w3.org/2000/svg" xmlns:xlink="http://www.w3.org/1999/xlink" x="0px" y="0px"
	 width="21.717px" height="50px" viewBox="-99.5 859.5 21.717 50" enable-background="new -99.5 859.5 21.717 50"
	 xml:space="preserve">
<g id="_x23_ffffffff">
</g>
<g id="_x23_000000ff">
	<path d="M-89.648,861.396c2.466-1.277,5.25-1.934,8.025-1.894c1.296-0.016,2.595,0.159,3.84,0.515
		c-1.971,0.454-3.876,1.223-5.583,2.311c-3.201,2.04-5.644,5.241-6.769,8.866c-0.736,2.382-0.925,4.913-0.696,7.39
		c0.17,1.831,0.607,3.644,1.338,5.334c1.043,2.396,2.644,4.558,4.671,6.211c1.747,1.435,3.809,2.456,5.972,3.092
		c0.295,0.095,0.599,0.156,0.893,0.255c-0.768,0.189-1.54,0.369-2.33,0.439c-2.165,0.194-4.369-0.05-6.444-0.697
		c-0.006,1.447-0.003,2.895-0.001,4.342c2.582-0.005,5.163-0.002,7.744-0.002c-0.006,1.259,0.016,2.52-0.011,3.778
		c-2.579-0.011-5.159-0.01-7.738-0.001c0.007,2.722,0.001,5.443,0.003,8.165c-1.275-0.004-2.551,0.008-3.826-0.006
		c0.011-2.721,0.004-5.441,0.003-8.163c-2.585,0-5.17-0.008-7.755,0.004c-0.014-1.259-0.002-2.518-0.006-3.776
		c2.584,0.001,5.168-0.008,7.752,0.005c0.024-2.03,0.009-4.061,0.007-6.091c-2-1.191-3.792-2.733-5.247-4.551
		c-1.136-1.428-2.092-3.01-2.724-4.725c-0.666-1.793-0.994-3.708-0.97-5.62c-0.013-1.696,0.252-3.396,0.783-5.007
		c0.747-2.286,2.07-4.359,3.718-6.101C-93.447,863.839-91.652,862.427-89.648,861.396z"/>
</g>
</svg>
