<?xml version="1.0" encoding="UTF-8" standalone="no"?>
<!-- Generator: Adobe Illustrator 16.0.3, SVG Export Plug-In . SVG Version: 6.00 Build 0)  -->

<svg
   xmlns:dc="http://purl.org/dc/elements/1.1/"
   xmlns:cc="http://creativecommons.org/ns#"
   xmlns:rdf="http://www.w3.org/1999/02/22-rdf-syntax-ns#"
   xmlns:svg="http://www.w3.org/2000/svg"
   xmlns="http://www.w3.org/2000/svg"
   xmlns:sodipodi="http://sodipodi.sourceforge.net/DTD/sodipodi-0.dtd"
   xmlns:inkscape="http://www.inkscape.org/namespaces/inkscape"
   version="1.1"
   id="Ebene_1"
   x="0px"
   y="0px"
   width="21.717px"
   height="50px"
   viewBox="-99.5 859.5 21.717 50"
   enable-background="new -99.5 859.5 21.717 50"
   xml:space="preserve"
   inkscape:version="0.91 r13725"
   sodipodi:docname="Lilith.svg"><metadata
     id="metadata11"><rdf:RDF><cc:Work
         rdf:about=""><dc:format>image/svg+xml</dc:format><dc:type
           rdf:resource="http://purl.org/dc/dcmitype/StillImage" /></cc:Work></rdf:RDF></metadata><defs
     id="defs9" /><sodipodi:namedview
     pagecolor="#ffffff"
     bordercolor="#666666"
     borderopacity="1"
     objecttolerance="10"
     gridtolerance="10"
     guidetolerance="10"
     inkscape:pageopacity="0"
     inkscape:pageshadow="2"
     inkscape:window-width="1280"
     inkscape:window-height="975"
     id="namedview7"
     showgrid="false"
     inkscape:zoom="13.821585"
     inkscape:cx="-0.52966102"
     inkscape:cy="29.978814"
     inkscape:window-x="0"
     inkscape:window-y="25"
     inkscape:window-maximized="1"
     inkscape:current-layer="Ebene_1" /><g
     id="_x23_ffffffff" /><path
     inkscape:connector-curvature="0"
     style="fill:#000000;fill-opacity:1"
     id="path5"
     d="m -89.044456,875.25902 c 0.986378,-0.51078 2.099953,-0.77358 3.209928,-0.75758 0.518389,-0.007 1.037977,0.0635 1.535967,0.206 -0.788383,0.18159 -1.550366,0.48918 -2.233152,0.92438 -1.280371,0.81596 -2.257549,2.09633 -2.707539,3.5463 -0.294393,0.95277 -0.369991,1.96514 -0.278393,2.95592 0.068,0.73238 0.242793,1.45755 0.535188,2.13353 0.41719,0.95838 1.057576,1.82316 1.868358,2.48435 0.698785,0.57398 1.523567,0.98236 2.388748,1.23675 0.117997,0.038 0.239593,0.0625 0.357191,0.102 -0.307193,0.0756 -0.615986,0.1476 -0.931979,0.1756 -0.86598,0.0776 -1.747561,-0.02 -2.577543,-0.2788 -0.0024,0.5788 -0.0012,1.15798 -4e-4,1.73676 1.032776,-0.002 2.065154,-8e-4 3.097531,-8e-4 -0.0024,0.50359 0.0064,1.00798 -0.0044,1.51117 -1.031576,-0.004 -2.063552,-0.004 -3.09513,-4e-4 0.0028,1.08877 4e-4,2.17713 0.0012,3.26591 -0.509989,-0.001 -1.020377,0.003 -1.530367,-0.002 0.0044,-1.08838 0.0016,-2.17634 0.0012,-3.26512 -1.033975,0 -2.067953,-0.003 -3.10193,0.001 -0.0056,-0.50358 -8e-4,-1.00717 -0.0024,-1.51036 1.033578,4e-4 2.067155,-0.003 3.100731,0.002 0.0096,-0.81198 0.0036,-1.62436 0.0028,-2.43633 -0.799981,-0.47639 -1.516766,-1.09317 -2.098753,-1.82035 -0.45439,-0.57119 -0.836781,-1.20398 -1.089576,-1.88995 -0.266394,-0.71718 -0.397592,-1.48316 -0.387992,-2.24795 -0.0052,-0.67838 0.1008,-1.35836 0.313194,-2.00273 0.298793,-0.91438 0.827981,-1.74357 1.487168,-2.44035 0.620784,-0.65198 1.338769,-1.21675 2.140351,-1.62915 z" /></svg>