<?xml version="1.0" encoding="UTF-8" standalone="no"?>
<!-- Generator: Adobe Illustrator 16.0.3, SVG Export Plug-In . SVG Version: 6.00 Build 0)  -->

<svg
   xmlns:dc="http://purl.org/dc/elements/1.1/"
   xmlns:cc="http://creativecommons.org/ns#"
   xmlns:rdf="http://www.w3.org/1999/02/22-rdf-syntax-ns#"
   xmlns:svg="http://www.w3.org/2000/svg"
   xmlns="http://www.w3.org/2000/svg"
   xmlns:sodipodi="http://sodipodi.sourceforge.net/DTD/sodipodi-0.dtd"
   xmlns:inkscape="http://www.inkscape.org/namespaces/inkscape"
   version="1.1"
   id="Ebene_1"
   x="0px"
   y="0px"
   width="21.717px"
   height="50px"
   viewBox="-99.5 859.5 21.717 50"
   enable-background="new -99.5 859.5 21.717 50"
   xml:space="preserve"
   inkscape:version="0.91 r13725"
   sodipodi:docname="Lilith.svg"><metadata
     id="metadata11"><rdf:RDF><cc:Work
         rdf:about=""><dc:format>image/svg+xml</dc:format><dc:type
           rdf:resource="http://purl.org/dc/dcmitype/StillImage" /></cc:Work></rdf:RDF></metadata><defs
     id="defs9" /><sodipodi:namedview
     pagecolor="#ffffff"
     bordercolor="#666666"
     borderopacity="1"
     objecttolerance="10"
     gridtolerance="10"
     guidetolerance="10"
     inkscape:pageopacity="0"
     inkscape:pageshadow="2"
     inkscape:window-width="1280"
     inkscape:window-height="975"
     id="namedview7"
     showgrid="false"
     inkscape:zoom="13.821585"
     inkscape:cx="-8.4775591"
     inkscape:cy="29.834113"
     inkscape:window-x="0"
     inkscape:window-y="25"
     inkscape:window-maximized="1"
     inkscape:current-layer="Ebene_1" /><g
     id="_x23_ffffffff" /><path
     inkscape:connector-curvature="0"
     style="fill:#000000;fill-opacity:1"
     id="path5"
     d="m -90.061922,873.87323 -2.525435,-1.12853 -1.464752,-1.79539 -0.808138,-2.20576 0.151526,-2.05188 0.909156,-1.5389 1.010173,-1.02593 0.909157,-0.56427 1.363735,-0.61556 m 2.315327,-0.39055 -1.716301,0.54716 -1.7163,1.09431 -1.1442,1.64146 -0.572102,1.64146 0,1.64146 0.572102,1.64147 1.1442,1.64145 1.7163,1.09432 1.716301,0.54715 m 0,-11.49024 -2.2884,0 -2.288401,0.54716 -1.716302,1.09431 -1.144201,1.64146 -0.5721,1.64146 0,1.64146 0.5721,1.64147 1.144201,1.64145 1.716302,1.09432 2.288401,0.54715 2.2884,0 m -4.36712,-0.4752 0,6.44307 m -2.709107,-3.41101 5.616025,0" /></svg>