<?xml version="1.0" encoding="UTF-8" standalone="no"?>
<!-- Created with Inkscape (http://www.inkscape.org/) -->

<svg
   xmlns:dc="http://purl.org/dc/elements/1.1/"
   xmlns:cc="http://creativecommons.org/ns#"
   xmlns:rdf="http://www.w3.org/1999/02/22-rdf-syntax-ns#"
   xmlns:svg="http://www.w3.org/2000/svg"
   xmlns="http://www.w3.org/2000/svg"
   xmlns:sodipodi="http://sodipodi.sourceforge.net/DTD/sodipodi-0.dtd"
   xmlns:inkscape="http://www.inkscape.org/namespaces/inkscape"
   version="1.0"
   width="50"
   height="50"
   id="svg2"
   inkscape:version="0.48.4 r9939"
   sodipodi:docname="Northnode.svg">
  <metadata
     id="metadata5534">
    <rdf:RDF>
      <cc:Work
         rdf:about="">
        <dc:format>image/svg+xml</dc:format>
        <dc:type
           rdf:resource="http://purl.org/dc/dcmitype/StillImage" />
      </cc:Work>
    </rdf:RDF>
  </metadata>
  <sodipodi:namedview
     pagecolor="#ffffff"
     bordercolor="#666666"
     borderopacity="1"
     objecttolerance="10"
     gridtolerance="10"
     guidetolerance="10"
     inkscape:pageopacity="0"
     inkscape:pageshadow="2"
     inkscape:window-width="1366"
     inkscape:window-height="719"
     id="namedview5532"
     showgrid="false"
     inkscape:zoom="4.72"
     inkscape:cx="-11.334746"
     inkscape:cy="25"
     inkscape:window-x="0"
     inkscape:window-y="25"
     inkscape:window-maximized="1"
     inkscape:current-layer="svg2" />
  <defs
     id="defs4" />
  <g
     id="layer1"
     transform="translate(2.9661017,0.63559322)">
    <path
       d="m 23.688119,17.989077 c -1.826415,0.465024 -3.435492,1.806878 -4.045588,3.614335 -0.39011,0.856318 -0.407146,1.827321 -0.129938,2.717635 0.248447,1.119565 0.852296,2.107234 1.563348,2.992816 0.897343,1.403764 0.953488,3.73206 -0.293751,4.647319 -0.912949,0.682418 -1.832712,-0.09382 -1.961825,-0.807695 -0.312057,-1.075335 0.554192,-2.573324 1.763446,-2.573255 0.377043,0.102147 0.785371,0.145635 0.234363,-0.217504 -0.755897,-0.516807 -1.850218,-0.430933 -2.597363,0.06748 -0.708711,0.479071 -0.992132,1.39518 -0.782396,2.20922 0.148081,0.970565 0.878933,1.777137 1.811288,2.064648 0.917823,0.352763 2.032787,0.302554 2.822798,-0.280135 1.168428,-0.635845 1.585083,-2.166691 1.406102,-3.448196 -0.222763,-0.958172 -0.470359,-1.796769 -1.053718,-2.845528 -0.978824,-1.475022 -1.672651,-3.615299 -0.812138,-5.193859 0.506284,-1.056755 1.782453,-1.983365 3.13027,-1.999065 1.188331,-0.138582 2.258126,0.567203 2.942007,1.414096 0.600435,0.7484 0.94009,1.895563 0.86811,2.891397 -0.04462,1.458586 -0.8931,2.91319 -1.618379,4.020215 -0.399208,0.782228 -0.466421,1.405389 -0.496097,2.291748 0.09534,1.189878 0.264818,2.325905 1.339875,2.898316 1.385752,0.804749 3.472447,0.415334 4.19722,-1.096997 0.528875,-1.066281 0.246551,-2.623874 -0.932988,-3.117235 -0.821765,-0.455696 -1.946939,-0.271946 -2.565651,0.44044 0.751662,0.01902 1.751957,-0.06792 2.08102,0.800141 0.455924,0.899815 0.431377,2.309836 -0.604459,2.795201 -0.862066,0.364441 -1.761559,-0.428937 -1.931935,-1.256854 -0.239806,-1.13735 -0.209547,-2.39535 0.36747,-3.43243 0.454259,-0.823827 1.17939,-1.478368 1.505829,-2.379422 0.727343,-1.634226 0.39696,-3.590747 -0.661196,-5.003367 -0.990728,-1.446017 -2.712061,-2.318122 -4.461721,-2.275197 -0.362198,-0.0039 -0.724433,0.01874 -1.084003,0.06172 z"
       style="fill:#000000;fill-opacity:1;stroke:none"
       id="text2160"
       inkscape:connector-curvature="0" />
  </g>
</svg>
