<?xml version="1.0" encoding="UTF-8" standalone="no"?>
<!-- Created with Inkscape (http://www.inkscape.org/) -->
<svg
   xmlns:svg="http://www.w3.org/2000/svg"
   xmlns="http://www.w3.org/2000/svg"
   version="1.0"
   width="50"
   height="50"
   id="svg2">
  <defs
     id="defs4" />
  <g
     id="layer1">
    <path
       d="M 21.176252,1.2059591 C 15.228025,2.7204431 9.9876165,7.0905621 8.0006675,12.977051 C 6.7301655,15.765889 6.6746855,18.928229 7.5774885,21.827786 C 8.3866265,25.47396 10.353226,28.690578 12.668968,31.574724 C 15.591412,36.146471 15.774268,43.729215 11.712284,46.710009 C 8.7390125,48.932494 5.7435485,46.404455 5.3230575,44.079526 C 4.3067545,40.577398 7.1279375,35.698781 11.06621,35.699006 C 12.294152,36.031677 13.623987,36.173304 11.829475,34.990644 C 9.3676865,33.307515 5.8037275,33.58719 3.3704395,35.210424 C 1.0623275,36.770655 0.13929045,39.754219 0.82235245,42.405366 C 1.3046175,45.566282 3.6848405,48.193108 6.7213125,49.129468 C 9.7104595,50.27834 13.341653,50.11482 15.914542,48.217129 C 19.719853,46.146325 21.076807,41.160698 20.493903,36.98712 C 19.768413,33.866569 18.962052,31.135444 17.062178,27.719868 C 13.874366,22.916047 11.614725,15.94564 14.417225,10.804622 C 16.06608,7.3630031 20.222278,4.3452381 24.61182,4.2941071 C 28.481951,3.8427771 31.966035,6.1413621 34.193283,8.8995061 C 36.148768,11.336879 37.254951,15.072932 37.020528,18.316145 C 36.875189,23.066435 34.111899,27.803757 31.749827,31.409094 C 30.449695,33.956638 30.230795,35.986132 30.134148,38.872811 C 30.444635,42.747977 30.996602,46.447766 34.497823,48.311979 C 39.010912,50.93287 45.806814,49.664633 48.167235,44.739305 C 49.889663,41.266664 48.970202,36.193929 45.128703,34.587162 C 42.452396,33.103059 38.787955,33.701495 36.772945,36.021578 C 39.220943,36.083499 42.478682,35.800383 43.550367,38.627459 C 45.035209,41.557959 44.955267,46.150083 41.581781,47.730808 C 38.774221,48.917712 35.844772,46.333854 35.289896,43.637513 C 34.508899,39.933417 34.607447,35.836391 36.486662,32.458849 C 37.966082,29.775828 40.327674,27.64413 41.390812,24.709601 C 43.759608,19.387289 42.683624,13.015331 39.237443,8.4147421 C 36.010865,3.7053851 30.404865,0.8651331 24.706606,1.0049331 C 23.52701,0.9920241 22.347291,1.0659511 21.176252,1.2059591 z "
       style="fill:#000000;fill-opacity:1;stroke:none;stroke-width:1px;stroke-linecap:butt;stroke-linejoin:miter;stroke-opacity:1"
       id="text2160" />
  </g>
</svg>
