<?xml version="1.0" encoding="UTF-8" standalone="no"?>
<!-- Created with Inkscape (http://www.inkscape.org/) -->

<svg
   xmlns:dc="http://purl.org/dc/elements/1.1/"
   xmlns:cc="http://creativecommons.org/ns#"
   xmlns:rdf="http://www.w3.org/1999/02/22-rdf-syntax-ns#"
   xmlns:svg="http://www.w3.org/2000/svg"
   xmlns="http://www.w3.org/2000/svg"
   xmlns:sodipodi="http://sodipodi.sourceforge.net/DTD/sodipodi-0.dtd"
   xmlns:inkscape="http://www.inkscape.org/namespaces/inkscape"
   width="210mm"
   height="297mm"
   viewBox="0 0 744.09448819 1052.3622047"
   id="svg2"
   version="1.1"
   inkscape:version="0.91 r13725"
   sodipodi:docname="numbers-hershey.svg">
  <sodipodi:namedview
     id="base"
     pagecolor="#ffffff"
     bordercolor="#666666"
     borderopacity="1.0"
     inkscape:pageopacity="0.0"
     inkscape:pageshadow="2"
     inkscape:zoom="29.223228"
     inkscape:cx="1.291724"
     inkscape:cy="1052.6689"
     inkscape:document-units="px"
     inkscape:current-layer="layer1"
     showgrid="false"
     inkscape:window-width="1280"
     inkscape:window-height="975"
     inkscape:window-x="0"
     inkscape:window-y="25"
     inkscape:window-maximized="1" />
  <defs
     id="defs4" />
  <metadata
     id="metadata7">
    <rdf:RDF>
      <cc:Work
         rdf:about="">
        <dc:format>image/svg+xml</dc:format>
        <dc:type
           rdf:resource="http://purl.org/dc/dcmitype/StillImage" />
        <dc:title />
      </cc:Work>
    </rdf:RDF>
  </metadata>
  <g
     inkscape:label="Layer 1"
     inkscape:groupmode="layer"
     id="layer1">
    <g
       inkscape:label="Hershey Text"
       transform="translate(-429.28571,538.07649472)"
       id="g4141">
      <path
         d="8"
         style="stroke:#000000;fill:none"
         transform="translate(8,-201)"
         id="path4143" />
      <path
         d="8"
         style="stroke:#000000;fill:none"
         transform="translate(24,-201)"
         id="path4145" />
      <path
         d="M 0 -12 L 0 2 M 0 7 L -1 8 L 0 9 L 1 8 L 0 7"
         style="stroke:#000000;fill:none"
         transform="translate(52,-201)"
         id="path4147" />
      <path
         d="M -8 -10 L -4 -8 L -2 -6 L -1 -3 L -1 0 L -2 3 L -4 5 L -8 7 M -8 -10 L -5 -9 L -3 -8 L -1 -6 L 0 -3 M 0 0 L -1 3 L -3 5 L -5 6 L -8 7 M 8 -10 L 5 -9 L 3 -8 L 1 -6 L 0 -3 M 0 0 L 1 3 L 3 5 L 5 6 L 8 7 M 8 -10 L 4 -8 L 2 -6 L 1 -3 L 1 0 L 2 3 L 4 5 L 8 7 M -9 -2 L 9 -2 M -9 -1 L 9 -1"
         style="stroke:#000000;fill:none"
         transform="translate(69,-201)"
         id="path4149" />
      <path
         d="M -4 -12 L -4 -5 M 4 -12 L 4 -5"
         style="stroke:#000000;fill:none"
         transform="translate(104,-201)"
         id="path4151" />
      <path
         d="M -4 -12 L -5 -11 L -5 -5 M -4 -11 L -5 -5 M -4 -12 L -3 -11 L -5 -5 M 5 -12 L 4 -11 L 4 -5 M 5 -11 L 4 -5 M 5 -12 L 6 -11 L 4 -5"
         style="stroke:#000000;fill:none"
         transform="translate(121,-201)"
         id="path4153" />
      <path
         d="M 1 -16 L -6 16 M 7 -16 L 0 16 M -6 -3 L 8 -3 M -7 3 L 7 3"
         style="stroke:#000000;fill:none"
         transform="translate(155,-201)"
         id="path4155" />
      <path
         d="M -1 -12 L -4 -11 L -7 -9 L -9 -6 L -10 -3 L -10 0 L -9 3 L -7 6 L -4 8 L -1 9 L 2 9 L 5 8 L 8 6 L 10 3 L 11 0 L 11 -3 L 10 -6 L 8 -9 L 5 -11 L 2 -12 L -1 -12 M 0 -3 L -1 -2 L -1 -1 L 0 0 L 1 0 L 2 -1 L 2 -2 L 1 -3 L 0 -3 M 0 -2 L 0 -1 L 1 -1 L 1 -2 L 0 -2"
         style="stroke:#000000;fill:none"
         transform="translate(179,-201)"
         id="path4157" />
      <path
         d="M -2 -16 L -2 13 M 2 -16 L 2 13 M 7 -9 L 5 -11 L 2 -12 L -2 -12 L -5 -11 L -7 -9 L -7 -7 L -6 -5 L -5 -4 L -3 -3 L 3 -1 L 5 0 L 6 1 L 7 3 L 7 6 L 5 8 L 2 9 L -2 9 L -5 8 L -7 6"
         style="stroke:#000000;fill:none"
         transform="translate(218,-201)"
         id="path4159" />
      <path
         d="M -2 -12 L -4 -11 L -3 -9 L -1 -8 M -2 -12 L -3 -11 L -3 -9 M 3 -12 L 5 -11 L 4 -9 L 2 -8 M 3 -12 L 4 -11 L 4 -9 M -1 -8 L -3 -7 L -4 -6 L -5 -4 L -5 -1 L -4 1 L -3 2 L -1 3 L 2 3 L 4 2 L 5 1 L 6 -1 L 6 -4 L 5 -6 L 4 -7 L 2 -8 L -1 -8 M 0 3 L 0 9 M 1 3 L 1 9 M -4 6 L 5 6"
         style="stroke:#000000;fill:none"
         transform="translate(236,-201)"
         id="path4161" />
      <path
         d="M 9 -12 L -9 9 M -4 -12 L -2 -10 L -2 -8 L -3 -6 L -5 -5 L -7 -5 L -9 -7 L -9 -9 L -8 -11 L -6 -12 L -4 -12 L -2 -11 L 1 -10 L 4 -10 L 7 -11 L 9 -12 M 5 2 L 3 3 L 2 5 L 2 7 L 4 9 L 6 9 L 8 8 L 9 6 L 9 4 L 7 2 L 5 2"
         style="stroke:#000000;fill:none"
         transform="translate(272,-201)"
         id="path4163" />
      <path
         d="M 0 -12 L -3 -11 L -5 -9 L -6 -6 L -6 -5 L -5 -2 L -3 0 L 0 1 L 1 1 L 4 0 L 6 -2 L 7 -5 L 7 -6 L 6 -9 L 4 -11 L 1 -12 L 0 -12 M 0 1 L 0 9 M 1 1 L 1 9 M -4 5 L 5 5"
         style="stroke:#000000;fill:none"
         transform="translate(293,-201)"
         id="path4165" />
      <path
         d="M 10 -3 L 10 -4 L 9 -5 L 8 -5 L 7 -4 L 6 -2 L 4 3 L 2 6 L 0 8 L -2 9 L -6 9 L -8 8 L -9 7 L -10 5 L -10 3 L -9 1 L -8 0 L -1 -4 L 0 -5 L 1 -7 L 1 -9 L 0 -11 L -2 -12 L -4 -11 L -5 -9 L -5 -7 L -4 -4 L -2 -1 L 3 6 L 5 8 L 7 9 L 9 9 L 10 8 L 10 7"
         style="stroke:#000000;fill:none"
         transform="translate(331,-201)"
         id="path4167" />
      <path
         d="M -2 -12 L -5 -11 L -8 -9 L -10 -6 L -11 -3 L -11 1 L -10 4 L -8 7 L -5 9 L -2 10 L 2 10 L 5 9 L 8 7 L 10 4 L 11 1 L 11 -3 L 10 -6 L 8 -9 L 5 -11 L 2 -12 L -2 -12 M 0 -12 L 0 10 M -11 -1 L 11 -1"
         style="stroke:#000000;fill:none"
         transform="translate(358,-201)"
         id="path4169" />
      <path
         d="M 0 -10 L -1 -11 L 0 -12 L 1 -11 L 1 -9 L 0 -7 L -1 -6"
         style="stroke:#000000;fill:none"
         transform="translate(392,-201)"
         id="path4171" />
      <path
         d="M -2 -5 L -5 -4 L -7 -2 L -8 1 L -8 2 L -7 5 L -5 7 L -2 8 L -1 8 L 2 7 L 4 5 L 5 2 L 5 1 L 4 -2 L 2 -4 L -1 -5 L -2 -5 M 11 -11 L 5 -11 L 9 -10 L 3 -4 M 11 -11 L 11 -5 L 10 -9 L 4 -3 M 10 -10 L 4 -4"
         style="stroke:#000000;fill:none"
         transform="translate(408,-201)"
         id="path4173" />
      <path
         d="M 4 -16 L 2 -14 L 0 -11 L -2 -7 L -3 -2 L -3 2 L -2 7 L 0 11 L 2 14 L 4 16"
         style="stroke:#000000;fill:none"
         transform="translate(444,-201)"
         id="path4175" />
      <path
         d="M 4 -16 L 2 -14 L 0 -11 L -2 -7 L -3 -2 L -3 2 L -2 7 L 0 11 L 2 14 L 4 16 M 2 -14 L 0 -10 L -1 -7 L -2 -2 L -2 2 L -1 7 L 0 10 L 2 14"
         style="stroke:#000000;fill:none"
         transform="translate(458,-201)"
         id="path4177" />
      <path
         d="M -4 -16 L -2 -14 L 0 -11 L 2 -7 L 3 -2 L 3 2 L 2 7 L 0 11 L -2 14 L -4 16"
         style="stroke:#000000;fill:none"
         transform="translate(487,-201)"
         id="path4179" />
      <path
         d="M -4 -16 L -2 -14 L 0 -11 L 2 -7 L 3 -2 L 3 2 L 2 7 L 0 11 L -2 14 L -4 16 M -2 -14 L 0 -10 L 1 -7 L 2 -2 L 2 2 L 1 7 L 0 10 L -2 14"
         style="stroke:#000000;fill:none"
         transform="translate(501,-201)"
         id="path4181" />
      <path
         d="M 0 -6 L 0 6 M -5 -3 L 5 3 M 5 -3 L -5 3"
         style="stroke:#000000;fill:none"
         transform="translate(8,-156)"
         id="path4183" />
      <path
         d="M -9 -9 L -8 -11 L -6 -12 L -3 -12 L -1 -11 L 0 -9 L 0 -6 L -1 -3 L -2 -1 L -4 1 L -7 3 M -3 -12 L -2 -11 L -1 -9 L -1 -5 L -2 -2 L -4 1 M 4 -12 L 2 9 M 5 -12 L 1 9 M -7 3 L 7 3"
         style="stroke:#000000;fill:none"
         transform="translate(28,-156)"
         id="path4185" />
      <path
         d="M 0 -9 L 0 9 M -9 0 L 9 0"
         style="stroke:#000000;fill:none"
         transform="translate(66,-156)"
         id="path4187" />
      <path
         d="M -5 -12 L -5 3 M -4 -12 L -5 -1 M -5 -1 L -4 -3 L -3 -4 L -1 -5 L 2 -5 L 5 -4 L 6 -2 L 6 0 L 5 2 L 3 4 M 2 -5 L 4 -4 L 5 -2 L 5 0 L 2 6 L 2 8 L 3 9 L 5 9 L 7 7 M -7 -12 L -4 -12"
         style="stroke:#000000;fill:none"
         transform="translate(88,-156)"
         id="path4189" />
      <path
         d="M 1 5 L 0 6 L -1 5 L 0 4 L 1 5 L 1 7 L -1 9"
         style="stroke:#000000;fill:none"
         transform="translate(117,-156)"
         id="path4191" />
      <path
         d="M 1 5 L 0 6 L -1 5 L 0 4 L 1 5 L 1 7 L -1 9"
         style="stroke:#000000;fill:none"
         transform="translate(125,-156)"
         id="path4193" />
      <path
         d="M -9 0 L 9 0"
         style="stroke:#000000;fill:none"
         transform="translate(157,-156)"
         id="path4195" />
      <path
         d="M 0 -4 L -3 -3 L -5 -1 L -6 2 L -6 3 L -5 6 L -3 8 L 0 9 L 1 9 L 4 8 L 6 6 L 7 3 L 7 2 L 6 -1 L 4 -3 L 1 -4 L 0 -4 M 0 -10 L -4 -8 L 0 -12 L 0 -4 M 1 -10 L 5 -8 L 1 -12 L 1 -4 M 0 1 L -1 2 L -1 3 L 0 4 L 1 4 L 2 3 L 2 2 L 1 1 L 0 1 M 0 2 L 0 3 L 1 3 L 1 2 L 0 2"
         style="stroke:#000000;fill:none"
         transform="translate(179,-156)"
         id="path4197" />
      <path
         d="M 0 4 L -1 5 L 0 6 L 1 5 L 0 4"
         style="stroke:#000000;fill:none"
         transform="translate(208,-156)"
         id="path4199" />
      <path
         d="M 0 4 L -1 5 L 0 6 L 1 5 L 0 4"
         style="stroke:#000000;fill:none"
         transform="translate(216,-156)"
         id="path4201" />
      <path
         d="M 9 -16 L -9 16"
         style="stroke:#000000;fill:none"
         transform="translate(246,-156)"
         id="path4203" />
      <path
         d="M -1 -10 L 0 -12 L 0 9 M 2 -10 L 1 -12 L 1 9 M -8 -10 L -7 -12 L -7 -5 L -6 -2 L -4 0 L -1 1 L 0 1 M -5 -10 L -6 -12 L -6 -4 L -5 -1 M 9 -10 L 8 -12 L 8 -5 L 7 -2 L 5 0 L 2 1 L 1 1 M 6 -10 L 7 -12 L 7 -4 L 6 -1 M -4 5 L 5 5"
         style="stroke:#000000;fill:none"
         transform="translate(268,-156)"
         id="path4205" />
      <path
         d="M -1 -12 L -4 -11 L -6 -8 L -7 -3 L -7 0 L -6 5 L -4 8 L -1 9 L 1 9 L 4 8 L 6 5 L 7 0 L 7 -3 L 6 -8 L 4 -11 L 1 -12 L -1 -12"
         style="stroke:#000000;fill:none"
         transform="translate(305,-156)"
         id="path4207" />
      <path
         d="M 2 -12 L -1 -11 L -3 -9 L -5 -6 L -6 -3 L -7 1 L -7 4 L -6 7 L -5 8 L -3 9 L -1 9 L 2 8 L 4 6 L 6 3 L 7 0 L 8 -4 L 8 -7 L 7 -10 L 6 -11 L 4 -12 L 2 -12 M -1 -10 L -3 -8 L -4 -6 L -5 -3 L -6 1 L -6 5 L -5 7 M 2 7 L 4 5 L 5 3 L 6 0 L 7 -4 L 7 -8 L 6 -10 M 2 -12 L 0 -11 L -2 -8 L -3 -6 L -4 -3 L -5 1 L -5 6 L -4 8 L -3 9 M -1 9 L 1 8 L 3 5 L 4 3 L 5 0 L 6 -4 L 6 -9 L 5 -11 L 4 -12"
         style="stroke:#000000;fill:none"
         transform="translate(325,-156)"
         id="path4209" />
      <path
         d="M -4 -8 L -2 -9 L 1 -12 L 1 9"
         style="stroke:#000000;fill:none"
         transform="translate(361,-156)"
         id="path4211" />
      <path
         d="M 2 -8 L -3 9 L -1 9 M 5 -12 L 3 -8 L -2 9 M 5 -12 L -1 9 M 5 -12 L 2 -9 L -1 -7 L -3 -6 M 2 -8 L 0 -7 L -3 -6"
         style="stroke:#000000;fill:none"
         transform="translate(381,-156)"
         id="path4213" />
      <path
         d="M -6 -7 L -6 -8 L -5 -10 L -4 -11 L -2 -12 L 2 -12 L 4 -11 L 5 -10 L 6 -8 L 6 -6 L 5 -4 L 3 -1 L -7 9 L 7 9"
         style="stroke:#000000;fill:none"
         transform="translate(417,-156)"
         id="path4215" />
      <path
         d="M -3 -7 L -3 -8 L -2 -8 L -2 -6 L -4 -6 L -4 -8 L -3 -10 L -2 -11 L 1 -12 L 4 -12 L 7 -11 L 8 -9 L 8 -7 L 7 -5 L 5 -3 L -5 3 L -7 5 L -9 9 M 6 -11 L 7 -9 L 7 -7 L 6 -5 L 4 -3 L 1 -1 M 4 -12 L 5 -11 L 6 -9 L 6 -7 L 5 -5 L 3 -3 L -5 3 M -8 7 L -7 6 L -5 6 L 0 7 L 5 7 L 6 6 M -5 6 L 0 8 L 5 8 M -5 6 L 0 9 L 3 9 L 5 8 L 6 6 L 6 5"
         style="stroke:#000000;fill:none"
         transform="translate(437,-156)"
         id="path4217" />
      <path
         d="M -5 -12 L 6 -12 L 0 -4 L 3 -4 L 5 -3 L 6 -2 L 7 1 L 7 3 L 6 6 L 4 8 L 1 9 L -2 9 L -5 8 L -6 7 L -7 5"
         style="stroke:#000000;fill:none"
         transform="translate(473,-156)"
         id="path4219" />
      <path
         d="M -3 -7 L -3 -8 L -2 -8 L -2 -6 L -4 -6 L -4 -8 L -3 -10 L -2 -11 L 1 -12 L 4 -12 L 7 -11 L 8 -9 L 8 -7 L 7 -5 L 6 -4 L 4 -3 L 1 -2 M 6 -11 L 7 -9 L 7 -7 L 6 -5 L 5 -4 M 4 -12 L 5 -11 L 6 -9 L 6 -7 L 5 -5 L 3 -3 L 1 -2 M -1 -2 L 1 -2 L 4 -1 L 5 0 L 6 2 L 6 5 L 5 7 L 3 8 L 0 9 L -3 9 L -6 8 L -7 7 L -8 5 L -8 3 L -6 3 L -6 5 L -7 5 L -7 4 M 4 0 L 5 2 L 5 5 L 4 7 M 1 -2 L 3 -1 L 4 1 L 4 5 L 3 7 L 2 8 L 0 9"
         style="stroke:#000000;fill:none"
         transform="translate(493,-156)"
         id="path4221" />
      <path
         d="M 3 -12 L -7 2 L 8 2 M 3 -12 L 3 9"
         style="stroke:#000000;fill:none"
         transform="translate(10,-111)"
         id="path4223" />
      <path
         d="M 5 -8 L 0 9 L 2 9 M 8 -12 L 6 -8 L 1 9 M 8 -12 L 2 9 M 8 -12 L -8 3 L 8 3"
         style="stroke:#000000;fill:none"
         transform="translate(30,-111)"
         id="path4225" />
      <path
         d="M 5 -12 L -5 -12 L -6 -3 L -5 -4 L -2 -5 L 1 -5 L 4 -4 L 6 -2 L 7 1 L 7 3 L 6 6 L 4 8 L 1 9 L -2 9 L -5 8 L -6 7 L -7 5"
         style="stroke:#000000;fill:none"
         transform="translate(66,-111)"
         id="path4227" />
      <path
         d="M -1 -12 L -6 -2 M -1 -12 L 9 -12 M -1 -11 L 7 -11 M -2 -10 L 3 -10 L 7 -11 L 9 -12 M -6 -2 L -5 -3 L -2 -4 L 1 -4 L 4 -3 L 5 -2 L 6 0 L 6 3 L 5 6 L 3 8 L -1 9 L -4 9 L -6 8 L -7 7 L -8 5 L -8 3 L -6 3 L -6 5 L -7 5 L -7 4 M 4 -2 L 5 0 L 5 3 L 4 6 L 2 8 M 1 -4 L 3 -3 L 4 -1 L 4 3 L 3 6 L 1 8 L -1 9"
         style="stroke:#000000;fill:none"
         transform="translate(86,-111)"
         id="path4229" />
      <path
         d="M 6 -9 L 5 -11 L 2 -12 L 0 -12 L -3 -11 L -5 -8 L -6 -3 L -6 2 L -5 6 L -3 8 L 0 9 L 1 9 L 4 8 L 6 6 L 7 3 L 7 2 L 6 -1 L 4 -3 L 1 -4 L 0 -4 L -3 -3 L -5 -1 L -6 2"
         style="stroke:#000000;fill:none"
         transform="translate(122,-111)"
         id="path4231" />
      <path
         d="M 7 -8 L 7 -9 L 6 -9 L 6 -7 L 8 -7 L 8 -9 L 7 -11 L 5 -12 L 2 -12 L -1 -11 L -3 -9 L -5 -6 L -6 -3 L -7 1 L -7 4 L -6 7 L -5 8 L -3 9 L 0 9 L 3 8 L 5 6 L 6 4 L 6 1 L 5 -1 L 4 -2 L 2 -3 L -1 -3 L -3 -2 L -4 -1 L -5 1 M -2 -9 L -4 -6 L -5 -3 L -6 1 L -6 5 L -5 7 M 4 6 L 5 4 L 5 1 L 4 -1 M 2 -12 L 0 -11 L -2 -8 L -3 -6 L -4 -3 L -5 1 L -5 6 L -4 8 L -3 9 M 0 9 L 2 8 L 3 7 L 4 4 L 4 0 L 3 -2 L 2 -3"
         style="stroke:#000000;fill:none"
         transform="translate(142,-111)"
         id="path4233" />
      <path
         d="M 7 -12 L -3 9 M -7 -12 L 7 -12"
         style="stroke:#000000;fill:none"
         transform="translate(178,-111)"
         id="path4235" />
      <path
         d="M -4 -12 L -6 -6 M 9 -12 L 8 -9 L 6 -6 L 2 -1 L 0 2 L -1 5 L -2 9 M 0 1 L -2 5 L -3 9 M 6 -6 L 0 0 L -2 3 L -3 5 L -4 9 L -2 9 M -5 -9 L -2 -12 L 0 -12 L 5 -9 M -3 -11 L 0 -11 L 5 -9 M -5 -9 L -3 -10 L 0 -10 L 5 -9 L 7 -9 L 8 -10 L 9 -12"
         style="stroke:#000000;fill:none"
         transform="translate(198,-111)"
         id="path4237" />
      <path
         d="M -2 -12 L -5 -11 L -6 -9 L -6 -7 L -5 -5 L -3 -4 L 1 -3 L 4 -2 L 6 0 L 7 2 L 7 5 L 6 7 L 5 8 L 2 9 L -2 9 L -5 8 L -6 7 L -7 5 L -7 2 L -6 0 L -4 -2 L -1 -3 L 3 -4 L 5 -5 L 6 -7 L 6 -9 L 5 -11 L 2 -12 L -2 -12"
         style="stroke:#000000;fill:none"
         transform="translate(234,-111)"
         id="path4239" />
      <path
         d="M 1 -12 L -2 -11 L -3 -10 L -4 -8 L -4 -5 L -3 -3 L -1 -2 L 2 -2 L 5 -3 L 7 -4 L 8 -6 L 8 -9 L 7 -11 L 5 -12 L 1 -12 M 3 -12 L -2 -11 M -2 -10 L -3 -8 L -3 -4 L -2 -3 M -3 -3 L 0 -2 M 1 -2 L 5 -3 M 6 -4 L 7 -6 L 7 -9 L 6 -11 M 7 -11 L 3 -12 M 1 -12 L -1 -10 L -2 -8 L -2 -4 L -1 -2 M 2 -2 L 4 -3 L 5 -4 L 6 -6 L 6 -10 L 5 -12 M -1 -2 L -5 -1 L -7 1 L -8 3 L -8 6 L -7 8 L -4 9 L 0 9 L 4 8 L 5 7 L 6 5 L 6 2 L 5 0 L 4 -1 L 2 -2 M 0 -2 L -5 -1 M -4 -1 L -6 1 L -7 3 L -7 6 L -6 8 M -7 8 L -2 9 L 4 8 M 4 7 L 5 5 L 5 2 L 4 0 M 4 -1 L 1 -2 M -1 -2 L -3 -1 L -5 1 L -6 3 L -6 6 L -5 8 L -4 9 M 0 9 L 2 8 L 3 7 L 4 5 L 4 1 L 3 -1 L 2 -2"
         style="stroke:#000000;fill:none"
         transform="translate(254,-111)"
         id="path4241" />
      <path
         d="M 6 -5 L 5 -2 L 3 0 L 0 1 L -1 1 L -4 0 L -6 -2 L -7 -5 L -7 -6 L -6 -9 L -4 -11 L -1 -12 L 0 -12 L 3 -11 L 5 -9 L 6 -5 L 6 0 L 5 5 L 3 8 L 0 9 L -2 9 L -5 8 L -6 6"
         style="stroke:#000000;fill:none"
         transform="translate(290,-111)"
         id="path4243" />
      <path
         d="M 6 -4 L 5 -2 L 4 -1 L 2 0 L -1 0 L -3 -1 L -4 -2 L -5 -4 L -5 -7 L -4 -9 L -2 -11 L 1 -12 L 4 -12 L 6 -11 L 7 -10 L 8 -7 L 8 -4 L 7 0 L 6 3 L 4 6 L 2 8 L -1 9 L -4 9 L -6 8 L -7 6 L -7 4 L -5 4 L -5 6 L -6 6 L -6 5 M -3 -2 L -4 -4 L -4 -7 L -3 -9 M 6 -10 L 7 -8 L 7 -4 L 6 0 L 5 3 L 3 6 M -1 0 L -2 -1 L -3 -3 L -3 -7 L -2 -10 L -1 -11 L 1 -12 M 4 -12 L 5 -11 L 6 -9 L 6 -4 L 5 0 L 4 3 L 3 5 L 1 8 L -1 9"
         style="stroke:#000000;fill:none"
         transform="translate(310,-111)"
         id="path4245" />
      <path
         d="M 0 -3 L -1 -2 L 0 -1 L 1 -2 L 0 -3 M 0 4 L -1 5 L 0 6 L 1 5 L 0 4"
         style="stroke:#000000;fill:none"
         transform="translate(340,-111)"
         id="path4247" />
      <path
         d="M -6 -12 L -6 9 M -5 -12 L -5 9 M -9 -12 L 3 -12 L 6 -11 L 7 -10 L 8 -8 L 8 -5 L 7 -3 L 6 -2 L 3 -1 L -5 -1 M 3 -12 L 5 -11 L 6 -10 L 7 -8 L 7 -5 L 6 -3 L 5 -2 L 3 -1 M -9 9 L 7 9 L 7 4 L 6 9"
         style="stroke:#000000;fill:none"
         transform="translate(355,-111)"
         id="path4249" />
      <path
         d="M 0 -3 L -1 -2 L 0 -1 L 1 -2 L 0 -3 M 1 5 L 0 6 L -1 5 L 0 4 L 1 5 L 1 7 L -1 9"
         style="stroke:#000000;fill:none"
         transform="translate(385,-111)"
         id="path4251" />
      <path
         d="M 7 -11 L 3 -11 L -1 -10 L -4 -8 L -6 -5 L -7 -2 L -7 1 L -6 4 L -4 7 L -1 9 L 3 10 L 7 10 M 7 -11 L 4 -10 L 1 -8 L -1 -5 L -2 -2 L -2 1 L -1 4 L 1 7 L 4 9 L 7 10"
         style="stroke:#000000;fill:none"
         transform="translate(399,-111)"
         id="path4253" />
      <path
         d="M 8 -9 L -8 0 L 8 9"
         style="stroke:#000000;fill:none"
         transform="translate(435,-111)"
         id="path4255" />
      <path
         d="M -3 -1 L -5 -1 L -7 0 L -8 1 L -9 3 L -9 5 L -8 7 L -7 8 L -5 9 L -3 9 L -1 8 L 0 7 L 1 5 L 1 3 L 0 1 L -1 0 L -3 -1 M 1 -10 L -2 -1 M 8 -8 L 0 0 M 10 -1 L 1 2"
         style="stroke:#000000;fill:none"
         transform="translate(459,-111)"
         id="path4257" />
      <path
         d="M -9 -3 L 9 -3 M -9 3 L 9 3"
         style="stroke:#000000;fill:none"
         transform="translate(500,-111)"
         id="path4259" />
      <path
         d="M -3 -7 L 3 7 M 3 -7 L -3 7 M -7 -3 L 7 3 M 7 -3 L -7 3"
         style="stroke:#000000;fill:none"
         transform="translate(523,-111)"
         id="path4261" />
      <path
         d="M -8 -9 L 8 0 L -8 9"
         style="stroke:#000000;fill:none"
         transform="translate(12,-66)"
         id="path4263" />
      <path
         d="M -4 4 L -6 3 L -7 3 L -9 4 L -10 6 L -10 7 L -9 9 L -7 10 L -6 10 L -4 9 L -3 7 L -3 6 L -4 4 L -7 0 L -8 -3 L -8 -5 L -7 -8 L -5 -10 L -2 -11 L 2 -11 L 5 -10 L 7 -8 L 8 -5 L 8 -3 L 7 0 L 4 4 L 3 6 L 3 7 L 4 9 L 6 10 L 7 10 L 9 9 L 10 7 L 10 6 L 9 4 L 7 3 L 6 3 L 4 4 M -8 -5 L -7 -7 L -5 -9 L -2 -10 L 2 -10 L 5 -9 L 7 -7 L 8 -5"
         style="stroke:#000000;fill:none"
         transform="translate(36,-66)"
         id="path4265" />
      <path
         d="M -6 -7 L -6 -8 L -5 -10 L -4 -11 L -2 -12 L 2 -12 L 4 -11 L 5 -10 L 6 -8 L 6 -6 L 5 -4 L 4 -3 L 0 -1 L 0 2 M 0 7 L -1 8 L 0 9 L 1 8 L 0 7"
         style="stroke:#000000;fill:none"
         transform="translate(72,-66)"
         id="path4267" />
      <path
         d="M -4 -5 L -6 -4 L -7 -4 L -9 -5 L -10 -7 L -10 -8 L -9 -10 L -7 -11 L -6 -11 L -4 -10 L -3 -8 L -3 -7 L -4 -5 L -7 -1 L -8 2 L -8 4 L -7 7 L -5 9 L -2 10 L 2 10 L 5 9 L 7 7 L 8 4 L 8 2 L 7 -1 L 4 -5 L 3 -7 L 3 -8 L 4 -10 L 6 -11 L 7 -11 L 9 -10 L 10 -8 L 10 -7 L 9 -5 L 7 -4 L 6 -4 L 4 -5 M -8 4 L -7 6 L -5 8 L -2 9 L 2 9 L 5 8 L 7 6 L 8 4"
         style="stroke:#000000;fill:none"
         transform="translate(93,-66)"
         id="path4269" />
      <path
         d="M 5 -4 L 4 -6 L 2 -7 L -1 -7 L -3 -6 L -4 -5 L -5 -2 L -5 1 L -4 3 L -2 4 L 1 4 L 3 3 L 4 1 M -1 -7 L -3 -5 L -4 -2 L -4 1 L -3 3 L -2 4 M 5 -7 L 4 1 L 4 3 L 6 4 L 8 4 L 10 2 L 11 -1 L 11 -3 L 10 -6 L 9 -8 L 7 -10 L 5 -11 L 2 -12 L -1 -12 L -4 -11 L -6 -10 L -8 -8 L -9 -6 L -10 -3 L -10 0 L -9 3 L -8 5 L -6 7 L -4 8 L -1 9 L 2 9 L 5 8 L 7 7 L 8 6 M 6 -7 L 5 1 L 5 3 L 6 4"
         style="stroke:#000000;fill:none"
         transform="translate(133,-66)"
         id="path4271" />
      <path
         d="M -8 -5 L -9 -6 L -9 -8 L -8 -10 L -6 -11 L -4 -11 L -2 -10 L -1 -9 L 0 -7 L 1 -2 M -9 -8 L -7 -10 L -5 -10 L -3 -9 L -2 -8 L -1 -6 L 0 -2 L 0 9 M 9 -5 L 10 -6 L 10 -8 L 9 -10 L 7 -11 L 5 -11 L 3 -10 L 2 -9 L 1 -7 L 0 -2 M 10 -8 L 8 -10 L 6 -10 L 4 -9 L 3 -8 L 2 -6 L 1 -2 L 1 9"
         style="stroke:#000000;fill:none"
         transform="translate(159,-66)"
         id="path4273" />
      <path
         d="M 0 -12 L -8 9 M 0 -12 L 8 9 M -5 2 L 5 2"
         style="stroke:#000000;fill:none"
         transform="translate(196,-66)"
         id="path4275" />
      <path
         d="M 0 -12 L -7 8 M -1 -9 L 5 9 M 0 -9 L 6 9 M 0 -12 L 7 9 M -5 3 L 4 3 M -9 9 L -3 9 M 2 9 L 9 9 M -7 8 L -8 9 M -7 8 L -5 9 M 5 8 L 3 9 M 5 7 L 4 9 M 6 7 L 8 9"
         style="stroke:#000000;fill:none"
         transform="translate(215,-66)"
         id="path4277" />
      <path
         d="M -7 -12 L -7 9 M -7 -12 L 2 -12 L 5 -11 L 6 -10 L 7 -8 L 7 -6 L 6 -4 L 5 -3 L 2 -2 M -7 -2 L 2 -2 L 5 -1 L 6 0 L 7 2 L 7 5 L 6 7 L 5 8 L 2 9 L -7 9"
         style="stroke:#000000;fill:none"
         transform="translate(251,-66)"
         id="path4279" />
      <path
         d="M -6 -12 L -6 9 M -5 -11 L -5 8 M -4 -12 L -4 9 M -9 -12 L 3 -12 L 6 -11 L 7 -10 L 8 -8 L 8 -6 L 7 -4 L 6 -3 L 3 -2 M 6 -10 L 7 -8 L 7 -6 L 6 -4 M 3 -12 L 5 -11 L 6 -9 L 6 -5 L 5 -3 L 3 -2 M -4 -2 L 3 -2 L 6 -1 L 7 0 L 8 2 L 8 5 L 7 7 L 6 8 L 3 9 L -9 9 M 6 0 L 7 2 L 7 5 L 6 7 M 3 -2 L 5 -1 L 6 1 L 6 6 L 5 8 L 3 9 M -8 -12 L -6 -11 M -7 -12 L -6 -10 M -3 -12 L -4 -10 M -2 -12 L -4 -11 M -6 8 L -8 9 M -6 7 L -7 9 M -4 7 L -3 9 M -4 8 L -2 9"
         style="stroke:#000000;fill:none"
         transform="translate(272,-66)"
         id="path4281" />
      <path
         d="M 8 -7 L 7 -9 L 5 -11 L 3 -12 L -1 -12 L -3 -11 L -5 -9 L -6 -7 L -7 -4 L -7 1 L -6 4 L -5 6 L -3 8 L -1 9 L 3 9 L 5 8 L 7 6 L 8 4"
         style="stroke:#000000;fill:none"
         transform="translate(308,-66)"
         id="path4283" />
      <path
         d="M 6 -9 L 7 -12 L 7 -6 L 6 -9 L 4 -11 L 2 -12 L -1 -12 L -4 -11 L -6 -9 L -7 -7 L -8 -4 L -8 1 L -7 4 L -6 6 L -4 8 L -1 9 L 2 9 L 4 8 L 6 6 L 7 4 M -5 -9 L -6 -7 L -7 -4 L -7 1 L -6 4 L -5 6 M -1 -12 L -3 -11 L -5 -8 L -6 -4 L -6 1 L -5 5 L -3 8 L -1 9"
         style="stroke:#000000;fill:none"
         transform="translate(330,-66)"
         id="path4285" />
      <path
         d="M -7 -12 L -7 9 M -7 -12 L 0 -12 L 3 -11 L 5 -9 L 6 -7 L 7 -4 L 7 1 L 6 4 L 5 6 L 3 8 L 0 9 L -7 9"
         style="stroke:#000000;fill:none"
         transform="translate(366,-66)"
         id="path4287" />
      <path
         d="M -6 -12 L -6 9 M -5 -11 L -5 8 M -4 -12 L -4 9 M -9 -12 L 1 -12 L 4 -11 L 6 -9 L 7 -7 L 8 -4 L 8 1 L 7 4 L 6 6 L 4 8 L 1 9 L -9 9 M 5 -9 L 6 -7 L 7 -4 L 7 1 L 6 4 L 5 6 M 1 -12 L 3 -11 L 5 -8 L 6 -4 L 6 1 L 5 5 L 3 8 L 1 9 M -8 -12 L -6 -11 M -7 -12 L -6 -10 M -3 -12 L -4 -10 M -2 -12 L -4 -11 M -6 8 L -8 9 M -6 7 L -7 9 M -4 7 L -3 9 M -4 8 L -2 9"
         style="stroke:#000000;fill:none"
         transform="translate(387,-66)"
         id="path4289" />
      <path
         d="M -6 -12 L -6 9 M -6 -12 L 7 -12 M -6 -2 L 2 -2 M -6 9 L 7 9"
         style="stroke:#000000;fill:none"
         transform="translate(423,-66)"
         id="path4291" />
      <path
         d="M -6 -12 L -6 9 M -5 -11 L -5 8 M -4 -12 L -4 9 M -9 -12 L 7 -12 L 7 -6 M -4 -2 L 2 -2 M 2 -6 L 2 2 M -9 9 L 7 9 L 7 3 M -8 -12 L -6 -11 M -7 -12 L -6 -10 M -3 -12 L -4 -10 M -2 -12 L -4 -11 M 2 -12 L 7 -11 M 4 -12 L 7 -10 M 5 -12 L 7 -9 M 6 -12 L 7 -6 M 2 -6 L 1 -2 L 2 2 M 2 -4 L 0 -2 L 2 0 M 2 -3 L -2 -2 L 2 -1 M -6 8 L -8 9 M -6 7 L -7 9 M -4 7 L -3 9 M -4 8 L -2 9 M 2 9 L 7 8 M 4 9 L 7 7 M 5 9 L 7 6 M 6 9 L 7 3"
         style="stroke:#000000;fill:none"
         transform="translate(443,-66)"
         id="path4293" />
      <path
         d="M -6 -12 L -6 9 M -6 -12 L 7 -12 M -6 -2 L 2 -2"
         style="stroke:#000000;fill:none"
         transform="translate(478,-66)"
         id="path4295" />
      <path
         d="M -6 -12 L -6 9 M -5 -11 L -5 8 M -4 -12 L -4 9 M -9 -12 L 7 -12 L 7 -6 M -4 -2 L 2 -2 M 2 -6 L 2 2 M -9 9 L -1 9 M -8 -12 L -6 -11 M -7 -12 L -6 -10 M -3 -12 L -4 -10 M -2 -12 L -4 -11 M 2 -12 L 7 -11 M 4 -12 L 7 -10 M 5 -12 L 7 -9 M 6 -12 L 7 -6 M 2 -6 L 1 -2 L 2 2 M 2 -4 L 0 -2 L 2 0 M 2 -3 L -2 -2 L 2 -1 M -6 8 L -8 9 M -6 7 L -7 9 M -4 7 L -3 9 M -4 8 L -2 9"
         style="stroke:#000000;fill:none"
         transform="translate(497,-66)"
         id="path4297" />
      <path
         d="M 8 -7 L 7 -9 L 5 -11 L 3 -12 L -1 -12 L -3 -11 L -5 -9 L -6 -7 L -7 -4 L -7 1 L -6 4 L -5 6 L -3 8 L -1 9 L 3 9 L 5 8 L 7 6 L 8 4 L 8 1 M 3 1 L 8 1"
         style="stroke:#000000;fill:none"
         transform="translate(531,-66)"
         id="path4299" />
      <path
         d="M 6 -9 L 7 -12 L 7 -6 L 6 -9 L 4 -11 L 2 -12 L -1 -12 L -4 -11 L -6 -9 L -7 -7 L -8 -4 L -8 1 L -7 4 L -6 6 L -4 8 L -1 9 L 2 9 L 4 8 L 6 8 L 7 9 L 7 1 M -5 -9 L -6 -7 L -7 -4 L -7 1 L -6 4 L -5 6 M -1 -12 L -3 -11 L -5 -8 L -6 -4 L -6 1 L -5 5 L -3 8 L -1 9 M 6 2 L 6 7 M 5 1 L 5 7 L 4 8 M 2 1 L 10 1 M 3 1 L 5 2 M 4 1 L 5 3 M 8 1 L 7 3 M 9 1 L 7 2"
         style="stroke:#000000;fill:none"
         transform="translate(553,-66)"
         id="path4301" />
      <path
         d="M -7 -12 L -7 9 M 7 -12 L 7 9 M -7 -2 L 7 -2"
         style="stroke:#000000;fill:none"
         transform="translate(11,-21)"
         id="path4303" />
      <path
         d="M -7 -12 L -7 9 M -6 -11 L -6 8 M -5 -12 L -5 9 M 5 -12 L 5 9 M 6 -11 L 6 8 M 7 -12 L 7 9 M -10 -12 L -2 -12 M 2 -12 L 10 -12 M -5 -2 L 5 -2 M -10 9 L -2 9 M 2 9 L 10 9 M -9 -12 L -7 -11 M -8 -12 L -7 -10 M -4 -12 L -5 -10 M -3 -12 L -5 -11 M 3 -12 L 5 -11 M 4 -12 L 5 -10 M 8 -12 L 7 -10 M 9 -12 L 7 -11 M -7 8 L -9 9 M -7 7 L -8 9 M -5 7 L -4 9 M -5 8 L -3 9 M 5 8 L 3 9 M 5 7 L 4 9 M 7 7 L 8 9 M 7 8 L 9 9"
         style="stroke:#000000;fill:none"
         transform="translate(34,-21)"
         id="path4305" />
      <path
         d="M 0 -12 L 0 9"
         style="stroke:#000000;fill:none"
         transform="translate(65,-21)"
         id="path4307" />
      <path
         d="M -1 -12 L -1 9 M 0 -11 L 0 8 M 1 -12 L 1 9 M -4 -12 L 4 -12 M -4 9 L 4 9 M -3 -12 L -1 -11 M -2 -12 L -1 -10 M 2 -12 L 1 -10 M 3 -12 L 1 -11 M -1 8 L -3 9 M -1 7 L -2 9 M 1 7 L 2 9 M 1 8 L 3 9"
         style="stroke:#000000;fill:none"
         transform="translate(75,-21)"
         id="path4309" />
      <path
         d="M 4 -12 L 4 4 L 3 7 L 2 8 L 0 9 L -2 9 L -4 8 L -5 7 L -6 4 L -6 2"
         style="stroke:#000000;fill:none"
         transform="translate(104,-21)"
         id="path4311" />
      <path
         d="M 1 -12 L 1 5 L 0 8 L -1 9 M 2 -11 L 2 5 L 1 8 M 3 -12 L 3 5 L 2 8 L -1 9 L -3 9 L -5 8 L -6 6 L -6 4 L -5 3 L -4 3 L -3 4 L -3 5 L -4 6 L -5 6 M -5 4 L -5 5 L -4 5 L -4 4 L -5 4 M -2 -12 L 6 -12 M -1 -12 L 1 -11 M 0 -12 L 1 -10 M 4 -12 L 3 -10 M 5 -12 L 3 -11"
         style="stroke:#000000;fill:none"
         transform="translate(120,-21)"
         id="path4313" />
      <path
         d="M -7 -12 L -7 9 M 7 -12 L -7 2 M -2 -3 L 7 9"
         style="stroke:#000000;fill:none"
         transform="translate(154,-21)"
         id="path4315" />
      <path
         d="M -7 -12 L -7 9 M -6 -11 L -6 8 M -5 -12 L -5 9 M 6 -11 L -5 0 M -2 -2 L 5 9 M -1 -2 L 6 9 M -1 -4 L 7 9 M -10 -12 L -2 -12 M 3 -12 L 9 -12 M -10 9 L -2 9 M 2 9 L 9 9 M -9 -12 L -7 -11 M -8 -12 L -7 -10 M -4 -12 L -5 -10 M -3 -12 L -5 -11 M 5 -12 L 6 -11 M 8 -12 L 6 -11 M -7 8 L -9 9 M -7 7 L -8 9 M -5 7 L -4 9 M -5 8 L -3 9 M 5 7 L 3 9 M 5 7 L 8 9"
         style="stroke:#000000;fill:none"
         transform="translate(176,-21)"
         id="path4317" />
      <path
         d="M -6 -12 L -6 9 M -6 9 L 6 9"
         style="stroke:#000000;fill:none"
         transform="translate(211,-21)"
         id="path4319" />
      <path
         d="M -4 -12 L -4 9 M -3 -11 L -3 8 M -2 -12 L -2 9 M -7 -12 L 1 -12 M -7 9 L 8 9 L 8 3 M -6 -12 L -4 -11 M -5 -12 L -4 -10 M -1 -12 L -2 -10 M 0 -12 L -2 -11 M -4 8 L -6 9 M -4 7 L -5 9 M -2 7 L -1 9 M -2 8 L 0 9 M 3 9 L 8 8 M 5 9 L 8 7 M 6 9 L 8 6 M 7 9 L 8 3"
         style="stroke:#000000;fill:none"
         transform="translate(227,-21)"
         id="path4321" />
      <path
         d="M -8 -12 L -8 9 M -8 -12 L 0 9 M 8 -12 L 0 9 M 8 -12 L 8 9"
         style="stroke:#000000;fill:none"
         transform="translate(263,-21)"
         id="path4323" />
      <path
         d="M -8 -12 L -8 8 M -8 -12 L -1 9 M -7 -12 L -1 6 M -6 -12 L 0 6 M 6 -12 L -1 9 M 6 -12 L 6 9 M 7 -11 L 7 8 M 8 -12 L 8 9 M -11 -12 L -6 -12 M 6 -12 L 11 -12 M -11 9 L -5 9 M 3 9 L 11 9 M -10 -12 L -8 -11 M 9 -12 L 8 -10 M 10 -12 L 8 -11 M -8 8 L -10 9 M -8 8 L -6 9 M 6 8 L 4 9 M 6 7 L 5 9 M 8 7 L 9 9 M 8 8 L 10 9"
         style="stroke:#000000;fill:none"
         transform="translate(288,-21)"
         id="path4325" />
      <path
         d="M -7 -12 L -7 9 M -7 -12 L 7 9 M 7 -12 L 7 9"
         style="stroke:#000000;fill:none"
         transform="translate(327,-21)"
         id="path4327" />
      <path
         d="M -7 -12 L -7 8 M -7 -12 L 7 9 M -6 -12 L 6 6 M -5 -12 L 7 6 M 7 -11 L 7 9 M -10 -12 L -5 -12 M 4 -12 L 10 -12 M -10 9 L -4 9 M -9 -12 L -7 -11 M 5 -12 L 7 -11 M 9 -12 L 7 -11 M -7 8 L -9 9 M -7 8 L -5 9"
         style="stroke:#000000;fill:none"
         transform="translate(350,-21)"
         id="path4329" />
      <path
         d="M -2 -12 L -4 -11 L -6 -9 L -7 -7 L -8 -4 L -8 1 L -7 4 L -6 6 L -4 8 L -2 9 L 2 9 L 4 8 L 6 6 L 7 4 L 8 1 L 8 -4 L 7 -7 L 6 -9 L 4 -11 L 2 -12 L -2 -12"
         style="stroke:#000000;fill:none"
         transform="translate(388,-21)"
         id="path4331" />
      <path
         d="M -1 -12 L -4 -11 L -6 -9 L -7 -7 L -8 -3 L -8 0 L -7 4 L -6 6 L -4 8 L -1 9 L 1 9 L 4 8 L 6 6 L 7 4 L 8 0 L 8 -3 L 7 -7 L 6 -9 L 4 -11 L 1 -12 L -1 -12 M -5 -9 L -6 -7 L -7 -4 L -7 1 L -6 4 L -5 6 M 5 6 L 6 4 L 7 1 L 7 -4 L 6 -7 L 5 -9 M -1 -12 L -3 -11 L -5 -8 L -6 -4 L -6 1 L -5 5 L -3 8 L -1 9 M 1 9 L 3 8 L 5 5 L 6 1 L 6 -4 L 5 -8 L 3 -11 L 1 -12"
         style="stroke:#000000;fill:none"
         transform="translate(410,-21)"
         id="path4333" />
      <path
         d="M -7 -12 L -7 9 M -7 -12 L 2 -12 L 5 -11 L 6 -10 L 7 -8 L 7 -5 L 6 -3 L 5 -2 L 2 -1 L -7 -1"
         style="stroke:#000000;fill:none"
         transform="translate(447,-21)"
         id="path4335" />
      <path
         d="M -6 -12 L -6 9 M -5 -11 L -5 8 M -4 -12 L -4 9 M -9 -12 L 3 -12 L 6 -11 L 7 -10 L 8 -8 L 8 -5 L 7 -3 L 6 -2 L 3 -1 L -4 -1 M 6 -10 L 7 -8 L 7 -5 L 6 -3 M 3 -12 L 5 -11 L 6 -9 L 6 -4 L 5 -2 L 3 -1 M -9 9 L -1 9 M -8 -12 L -6 -11 M -7 -12 L -6 -10 M -3 -12 L -4 -10 M -2 -12 L -4 -11 M -6 8 L -8 9 M -6 7 L -7 9 M -4 7 L -3 9 M -4 8 L -2 9"
         style="stroke:#000000;fill:none"
         transform="translate(468,-21)"
         id="path4337" />
      <path
         d="M -2 -12 L -4 -11 L -6 -9 L -7 -7 L -8 -4 L -8 1 L -7 4 L -6 6 L -4 8 L -2 9 L 2 9 L 4 8 L 6 6 L 7 4 L 8 1 L 8 -4 L 7 -7 L 6 -9 L 4 -11 L 2 -12 L -2 -12 M 1 5 L 7 11"
         style="stroke:#000000;fill:none"
         transform="translate(505,-21)"
         id="path4339" />
      <path
         d="M -1 -12 L -4 -11 L -6 -9 L -7 -7 L -8 -3 L -8 0 L -7 4 L -6 6 L -4 8 L -1 9 L 1 9 L 4 8 L 6 6 L 7 4 L 8 0 L 8 -3 L 7 -7 L 6 -9 L 4 -11 L 1 -12 L -1 -12 M -5 -9 L -6 -7 L -7 -4 L -7 1 L -6 4 L -5 6 M 5 6 L 6 4 L 7 1 L 7 -4 L 6 -7 L 5 -9 M -1 -12 L -3 -11 L -5 -8 L -6 -4 L -6 1 L -5 5 L -3 8 L -1 9 M 1 9 L 3 8 L 5 5 L 6 1 L 6 -4 L 5 -8 L 3 -11 L 1 -12 M -4 6 L -3 4 L -1 3 L 0 3 L 2 4 L 3 6 L 4 12 L 5 14 L 7 14 L 8 12 L 8 10 M 4 10 L 5 12 L 6 13 L 7 13 M 3 6 L 5 11 L 6 12 L 7 12 L 8 11"
         style="stroke:#000000;fill:none"
         transform="translate(527,-21)"
         id="path4341" />
      <path
         d="M -7 -12 L -7 9 M -7 -12 L 2 -12 L 5 -11 L 6 -10 L 7 -8 L 7 -6 L 6 -4 L 5 -3 L 2 -2 L -7 -2 M 0 -2 L 7 9"
         style="stroke:#000000;fill:none"
         transform="translate(11,24)"
         id="path4343" />
      <path
         d="M -6 -12 L -6 9 M -5 -11 L -5 8 M -4 -12 L -4 9 M -9 -12 L 3 -12 L 6 -11 L 7 -10 L 8 -8 L 8 -6 L 7 -4 L 6 -3 L 3 -2 L -4 -2 M 6 -10 L 7 -8 L 7 -6 L 6 -4 M 3 -12 L 5 -11 L 6 -9 L 6 -5 L 5 -3 L 3 -2 M 0 -2 L 2 -1 L 3 1 L 5 7 L 6 9 L 8 9 L 9 7 L 9 5 M 5 5 L 6 7 L 7 8 L 8 8 M 2 -1 L 3 0 L 6 6 L 7 7 L 8 7 L 9 6 M -9 9 L -1 9 M -8 -12 L -6 -11 M -7 -12 L -6 -10 M -3 -12 L -4 -10 M -2 -12 L -4 -11 M -6 8 L -8 9 M -6 7 L -7 9 M -4 7 L -3 9 M -4 8 L -2 9"
         style="stroke:#000000;fill:none"
         transform="translate(32,24)"
         id="path4345" />
      <path
         d="M 7 -9 L 5 -11 L 2 -12 L -2 -12 L -5 -11 L -7 -9 L -7 -7 L -6 -5 L -5 -4 L -3 -3 L 3 -1 L 5 0 L 6 1 L 7 3 L 7 6 L 5 8 L 2 9 L -2 9 L -5 8 L -7 6"
         style="stroke:#000000;fill:none"
         transform="translate(68,24)"
         id="path4347" />
      <path
         d="M 6 -9 L 7 -12 L 7 -6 L 6 -9 L 4 -11 L 1 -12 L -2 -12 L -5 -11 L -7 -9 L -7 -6 L -6 -4 L -3 -2 L 3 0 L 5 1 L 6 3 L 6 6 L 5 8 M -6 -6 L -5 -4 L -3 -3 L 3 -1 L 5 0 L 6 2 M -5 -11 L -6 -9 L -6 -7 L -5 -5 L -3 -4 L 3 -2 L 6 0 L 7 2 L 7 5 L 6 7 L 5 8 L 2 9 L -1 9 L -4 8 L -6 6 L -7 3 L -7 9 L -6 6"
         style="stroke:#000000;fill:none"
         transform="translate(88,24)"
         id="path4349" />
      <path
         d="M 0 -12 L 0 9 M -7 -12 L 7 -12"
         style="stroke:#000000;fill:none"
         transform="translate(121,24)"
         id="path4351" />
      <path
         d="M -8 -12 L -8 -6 M -1 -12 L -1 9 M 0 -11 L 0 8 M 1 -12 L 1 9 M 8 -12 L 8 -6 M -8 -12 L 8 -12 M -4 9 L 4 9 M -7 -12 L -8 -6 M -6 -12 L -8 -9 M -5 -12 L -8 -10 M -3 -12 L -8 -11 M 3 -12 L 8 -11 M 5 -12 L 8 -10 M 6 -12 L 8 -9 M 7 -12 L 8 -6 M -1 8 L -3 9 M -1 7 L -2 9 M 1 7 L 2 9 M 1 8 L 3 9"
         style="stroke:#000000;fill:none"
         transform="translate(139,24)"
         id="path4353" />
      <path
         d="M -7 -12 L -7 3 L -6 6 L -4 8 L -1 9 L 1 9 L 4 8 L 6 6 L 7 3 L 7 -12"
         style="stroke:#000000;fill:none"
         transform="translate(175,24)"
         id="path4355" />
      <path
         d="M -7 -12 L -7 3 L -6 6 L -4 8 L -1 9 L 1 9 L 4 8 L 6 6 L 7 3 L 7 -11 M -6 -11 L -6 4 L -5 6 M -5 -12 L -5 4 L -4 7 L -3 8 L -1 9 M -10 -12 L -2 -12 M 4 -12 L 10 -12 M -9 -12 L -7 -11 M -8 -12 L -7 -10 M -4 -12 L -5 -10 M -3 -12 L -5 -11 M 5 -12 L 7 -11 M 9 -12 L 7 -11"
         style="stroke:#000000;fill:none"
         transform="translate(198,24)"
         id="path4357" />
      <path
         d="M -8 -12 L 0 9 M 8 -12 L 0 9"
         style="stroke:#000000;fill:none"
         transform="translate(234,24)"
         id="path4359" />
      <path
         d="M -7 -12 L 0 9 M -6 -12 L 0 6 L 0 9 M -5 -12 L 1 6 M 7 -11 L 0 9 M -9 -12 L -2 -12 M 3 -12 L 9 -12 M -8 -12 L -6 -10 M -4 -12 L -5 -10 M -3 -12 L -5 -11 M 5 -12 L 7 -11 M 8 -12 L 7 -11"
         style="stroke:#000000;fill:none"
         transform="translate(253,24)"
         id="path4361" />
      <path
         d="M -10 -12 L -5 9 M 0 -12 L -5 9 M 0 -12 L 5 9 M 10 -12 L 5 9"
         style="stroke:#000000;fill:none"
         transform="translate(290,24)"
         id="path4363" />
      <path
         d="M -8 -12 L -4 9 M -7 -12 L -4 4 L -4 9 M -6 -12 L -3 4 M 0 -12 L -3 4 L -4 9 M 0 -12 L 4 9 M 1 -12 L 4 4 L 4 9 M 2 -12 L 5 4 M 8 -11 L 5 4 L 4 9 M -11 -12 L -3 -12 M 0 -12 L 2 -12 M 5 -12 L 11 -12 M -10 -12 L -7 -11 M -9 -12 L -7 -10 M -5 -12 L -6 -10 M -4 -12 L -6 -11 M 6 -12 L 8 -11 M 10 -12 L 8 -11"
         style="stroke:#000000;fill:none"
         transform="translate(314,24)"
         id="path4365" />
      <path
         d="M -7 -12 L 7 9 M 7 -12 L -7 9"
         style="stroke:#000000;fill:none"
         transform="translate(351,24)"
         id="path4367" />
      <path
         d="M -7 -12 L 5 9 M -6 -12 L 6 9 M -5 -12 L 7 9 M 6 -11 L -6 8 M -9 -12 L -2 -12 M 3 -12 L 9 -12 M -9 9 L -3 9 M 2 9 L 9 9 M -8 -12 L -5 -10 M -4 -12 L -5 -10 M -3 -12 L -5 -11 M 4 -12 L 6 -11 M 8 -12 L 6 -11 M -6 8 L -8 9 M -6 8 L -4 9 M 5 8 L 3 9 M 5 7 L 4 9 M 5 7 L 8 9"
         style="stroke:#000000;fill:none"
         transform="translate(371,24)"
         id="path4369" />
      <path
         d="M -8 -12 L 0 -2 L 0 9 M 8 -12 L 0 -2"
         style="stroke:#000000;fill:none"
         transform="translate(405,24)"
         id="path4371" />
      <path
         d="M -8 -12 L -1 -1 L -1 9 M -7 -12 L 0 -1 L 0 8 M -6 -12 L 1 -1 L 1 9 M 7 -11 L 1 -1 M -10 -12 L -3 -12 M 4 -12 L 10 -12 M -4 9 L 4 9 M -9 -12 L -7 -11 M -4 -12 L -6 -11 M 5 -12 L 7 -11 M 9 -12 L 7 -11 M -1 8 L -3 9 M -1 7 L -2 9 M 1 7 L 2 9 M 1 8 L 3 9"
         style="stroke:#000000;fill:none"
         transform="translate(425,24)"
         id="path4373" />
      <path
         d="M 7 -12 L -7 9 M -7 -12 L 7 -12 M -7 9 L 7 9"
         style="stroke:#000000;fill:none"
         transform="translate(461,24)"
         id="path4375" />
      <path
         d="M 7 -12 L -7 -12 L -7 -6 M 5 -12 L -7 9 M 6 -12 L -6 9 M 7 -12 L -5 9 M -7 9 L 7 9 L 7 3 M -6 -12 L -7 -6 M -5 -12 L -7 -9 M -4 -12 L -7 -10 M -2 -12 L -7 -11 M 2 9 L 7 8 M 4 9 L 7 7 M 5 9 L 7 6 M 6 9 L 7 3"
         style="stroke:#000000;fill:none"
         transform="translate(481,24)"
         id="path4377" />
      <path
         d="M -3 -16 L -3 16 M -2 -16 L -2 16 M -3 -16 L 4 -16 M -3 16 L 4 16"
         style="stroke:#000000;fill:none"
         transform="translate(513,24)"
         id="path4379" />
      <path
         d="M -9 -11 L -8 -7 L -7 -5 L -5 -3 L -2 -2 L 2 -2 L 5 -3 L 7 -5 L 8 -7 L 9 -11 M -9 -11 L -8 -8 L -7 -6 L -5 -4 L -2 -3 L 2 -3 L 5 -4 L 7 -6 L 8 -8 L 9 -11 M -2 -3 L -4 -2 L -5 -1 L -6 1 L -6 4 L -5 6 L -3 8 L -1 9 L 1 9 L 3 8 L 5 6 L 6 4 L 6 1 L 5 -1 L 4 -2 L 2 -3 M -2 -2 L -4 -1 L -5 1 L -5 4 L -4 7 M 4 7 L 5 4 L 5 1 L 4 -1 L 2 -2"
         style="stroke:#000000;fill:none"
         transform="translate(532,24)"
         id="path4381" />
      <path
         d="M -7 -12 L 7 12"
         style="stroke:#000000;fill:none"
         transform="translate(7,69)"
         id="path4383" />
      <path
         d="M -7 -12 L 7 12"
         style="stroke:#000000;fill:none"
         transform="translate(21,69)"
         id="path4385" />
      <path
         d="M 2 -16 L 2 16 M 3 -16 L 3 16 M -4 -16 L 3 -16 M -4 16 L 3 16"
         style="stroke:#000000;fill:none"
         transform="translate(50,69)"
         id="path4387" />
      <path
         d="M -5 -8 L -5 4 M -4 -7 L -4 3 M 4 -7 L 4 3 M 5 -8 L 5 4 M -9 -11 L -7 -9 L -5 -8 L -2 -7 L 2 -7 L 5 -8 L 7 -9 L 9 -11 M -9 7 L -7 5 L -5 4 L -2 3 L 2 3 L 5 4 L 7 5 L 9 7"
         style="stroke:#000000;fill:none"
         transform="translate(69,69)"
         id="path4389" />
      <path
         d="M 0 -14 L -8 0 M 0 -14 L 8 0"
         style="stroke:#000000;fill:none"
         transform="translate(104,69)"
         id="path4391" />
      <path
         d="M 9 -9 L -6 -9 L -8 -8 L -9 -6 L -9 -4 L -8 -2 L -6 -1 L -4 -1 L -2 -2 L -1 -4 L -1 -6 L -2 -8 L 9 -8 M -9 -5 L -8 -3 L -7 -2 L -5 -1 M -1 -5 L -2 -7 L -3 -8 L -5 -9 M -9 6 L 6 6 L 8 5 L 9 3 L 9 1 L 8 -1 L 6 -2 L 4 -2 L 2 -1 L 1 1 L 1 3 L 2 5 L -9 5 M 9 2 L 8 0 L 7 -1 L 5 -2 M 1 2 L 2 4 L 3 5 L 5 6"
         style="stroke:#000000;fill:none"
         transform="translate(124,69)"
         id="path4393" />
      <path
         d="M -9 16 L 9 16"
         style="stroke:#000000;fill:none"
         transform="translate(160,69)"
         id="path4395" />
      <path
         d="M -3 3 L -5 2 L -6 2 L -8 3 L -9 5 L -9 6 L -8 8 L -6 9 L -5 9 L -3 8 L -2 6 L -2 5 L -3 3 L -8 -2 L -9 -4 L -9 -7 L -8 -9 L -6 -10 L -3 -11 L 1 -11 L 5 -10 L 7 -8 L 8 -6 L 8 -3 L 7 0 L 4 3 L 3 5 L 3 7 L 4 9 L 6 9 L 7 8 L 8 6 M -5 1 L -7 -2 L -8 -4 L -8 -7 L -7 -9 L -6 -10 M 1 -11 L 4 -10 L 6 -8 L 7 -6 L 7 -3 L 6 0 L 4 3"
         style="stroke:#000000;fill:none"
         transform="translate(181,69)"
         id="path4397" />
      <path
         d="M 1 -7 L -1 -5 L -1 -3 L 0 -2 L 1 -3 L 0 -4 L -1 -3"
         style="stroke:#000000;fill:none"
         transform="translate(211,69)"
         id="path4399" />
      <path
         d="M -10 -7 L -7 -10 L -5 -7 L -5 4 M -8 -9 L -6 -6 L -6 4 M -5 -7 L -2 -10 L 0 -7 L 0 3 M -3 -9 L -1 -6 L -1 3 M 0 -7 L 3 -10 L 5 -7 L 5 9 M 2 -9 L 4 -6 L 4 9 M 5 -7 L 8 -10 L 9 -8 L 10 -5 L 10 -2 L 9 1 L 8 3 L 6 5 L 3 7 L -2 9 M 7 -9 L 8 -8 L 9 -5 L 9 -2 L 8 1 L 7 3 L 5 5 L 2 7 L -2 9"
         style="stroke:#000000;fill:none"
         transform="translate(226,69)"
         id="path4401" />
      <path
         d="M 6 -5 L 6 9 M 6 -2 L 4 -4 L 2 -5 L -1 -5 L -3 -4 L -5 -2 L -6 1 L -6 3 L -5 6 L -3 8 L -1 9 L 2 9 L 4 8 L 6 6"
         style="stroke:#000000;fill:none"
         transform="translate(263,69)"
         id="path4403" />
      <path
         d="M 5 -5 L 3 2 L 3 6 L 4 8 L 5 9 L 7 9 L 9 7 L 10 5 M 6 -5 L 4 2 L 4 8 M 5 -5 L 7 -5 L 5 2 L 4 6 M 3 2 L 3 -1 L 2 -4 L 0 -5 L -2 -5 L -5 -4 L -7 -1 L -8 2 L -8 4 L -7 7 L -6 8 L -4 9 L -2 9 L 0 8 L 1 7 L 2 5 L 3 2 M -4 -4 L -6 -1 L -7 2 L -7 5 L -6 7 M -2 -5 L -4 -3 L -5 -1 L -6 2 L -6 5 L -5 8 L -4 9"
         style="stroke:#000000;fill:none"
         transform="translate(284,69)"
         id="path4405" />
      <path
         d="M -6 -12 L -6 9 M -6 -2 L -4 -4 L -2 -5 L 1 -5 L 3 -4 L 5 -2 L 6 1 L 6 3 L 5 6 L 3 8 L 1 9 L -2 9 L -4 8 L -6 6"
         style="stroke:#000000;fill:none"
         transform="translate(320,69)"
         id="path4407" />
      <path
         d="M -2 -12 L -4 -5 L -5 1 L -5 5 L -4 7 L -3 8 L -1 9 L 1 9 L 4 8 L 6 5 L 7 2 L 7 0 L 6 -3 L 5 -4 L 3 -5 L 1 -5 L -1 -4 L -2 -3 L -3 -1 L -4 2 M -1 -12 L -3 -5 L -4 -1 L -4 5 L -3 8 M 4 7 L 5 5 L 6 2 L 6 -1 L 5 -3 M -5 -12 L 0 -12 L -2 -5 L -4 2 M 1 9 L 3 7 L 4 5 L 5 2 L 5 -1 L 4 -4 L 3 -5 M -4 -12 L -1 -11 M -3 -12 L -2 -10"
         style="stroke:#000000;fill:none"
         transform="translate(338,69)"
         id="path4409" />
      <path
         d="M 6 -2 L 4 -4 L 2 -5 L -1 -5 L -3 -4 L -5 -2 L -6 1 L -6 3 L -5 6 L -3 8 L -1 9 L 2 9 L 4 8 L 6 6"
         style="stroke:#000000;fill:none"
         transform="translate(372,69)"
         id="path4411" />
      <path
         d="M 5 -1 L 5 -2 L 4 -2 L 4 0 L 6 0 L 6 -2 L 5 -4 L 3 -5 L 0 -5 L -3 -4 L -5 -1 L -6 2 L -6 4 L -5 7 L -4 8 L -2 9 L 0 9 L 3 8 L 5 5 M -3 -3 L -4 -1 L -5 2 L -5 5 L -4 7 M 0 -5 L -2 -3 L -3 -1 L -4 2 L -4 5 L -3 8 L -2 9"
         style="stroke:#000000;fill:none"
         transform="translate(390,69)"
         id="path4413" />
      <path
         d="M 6 -12 L 6 9 M 6 -2 L 4 -4 L 2 -5 L -1 -5 L -3 -4 L -5 -2 L -6 1 L -6 3 L -5 6 L -3 8 L -1 9 L 2 9 L 4 8 L 6 6"
         style="stroke:#000000;fill:none"
         transform="translate(423,69)"
         id="path4415" />
      <path
         d="M 7 -12 L 4 -1 L 3 3 L 3 6 L 4 8 L 5 9 L 7 9 L 9 7 L 10 5 M 8 -12 L 5 -1 L 4 3 L 4 8 M 4 -12 L 9 -12 L 5 2 L 4 6 M 3 2 L 3 -1 L 2 -4 L 0 -5 L -2 -5 L -5 -4 L -7 -1 L -8 2 L -8 4 L -7 7 L -6 8 L -4 9 L -2 9 L 0 8 L 1 7 L 2 5 L 3 2 M -5 -3 L -6 -1 L -7 2 L -7 5 L -6 7 M -2 -5 L -4 -3 L -5 -1 L -6 2 L -6 5 L -5 8 L -4 9 M 5 -12 L 8 -11 M 6 -12 L 7 -10"
         style="stroke:#000000;fill:none"
         transform="translate(444,69)"
         id="path4417" />
      <path
         d="M -6 1 L 6 1 L 6 -1 L 5 -3 L 4 -4 L 2 -5 L -1 -5 L -3 -4 L -5 -2 L -6 1 L -6 3 L -5 6 L -3 8 L -1 9 L 2 9 L 4 8 L 6 6"
         style="stroke:#000000;fill:none"
         transform="translate(479,69)"
         id="path4419" />
      <path
         d="M -5 4 L -1 3 L 2 2 L 5 0 L 6 -2 L 5 -4 L 3 -5 L 0 -5 L -3 -4 L -5 -1 L -6 2 L -6 4 L -5 7 L -4 8 L -2 9 L 0 9 L 3 8 L 5 6 M -3 -3 L -4 -1 L -5 2 L -5 5 L -4 7 M 0 -5 L -2 -3 L -3 -1 L -4 2 L -4 5 L -3 8 L -2 9"
         style="stroke:#000000;fill:none"
         transform="translate(497,69)"
         id="path4421" />
      <path
         d="M 5 -12 L 3 -12 L 1 -11 L 0 -8 L 0 9 M -3 -5 L 4 -5"
         style="stroke:#000000;fill:none"
         transform="translate(5,114)"
         id="path4423" />
      <path
         d="M 8 -10 L 8 -11 L 7 -11 L 7 -9 L 9 -9 L 9 -11 L 8 -12 L 6 -12 L 4 -11 L 2 -9 L 1 -7 L 0 -4 L -1 0 L -3 9 L -4 12 L -5 14 L -7 16 M 2 -8 L 1 -5 L 0 0 L -2 9 L -3 12 M 6 -12 L 4 -10 L 3 -8 L 2 -5 L 1 0 L -1 8 L -2 11 L -3 13 L -5 15 L -7 16 L -9 16 L -10 15 L -10 13 L -8 13 L -8 15 L -9 15 L -9 14 M -4 -5 L 7 -5"
         style="stroke:#000000;fill:none"
         transform="translate(20,114)"
         id="path4425" />
      <path
         d="M 6 -5 L 6 11 L 5 14 L 4 15 L 2 16 L -1 16 L -3 15 M 6 -2 L 4 -4 L 2 -5 L -1 -5 L -3 -4 L -5 -2 L -6 1 L -6 3 L -5 6 L -3 8 L -1 9 L 2 9 L 4 8 L 6 6"
         style="stroke:#000000;fill:none"
         transform="translate(52,114)"
         id="path4427" />
      <path
         d="M 6 -5 L 2 9 L 1 12 L -1 15 L -3 16 M 7 -5 L 3 9 L 1 13 M 6 -5 L 8 -5 L 4 9 L 2 13 L 0 15 L -3 16 L -6 16 L -8 15 L -9 14 L -9 12 L -7 12 L -7 14 L -8 14 L -8 13 M 4 2 L 4 -1 L 3 -4 L 1 -5 L -1 -5 L -4 -4 L -6 -1 L -7 2 L -7 4 L -6 7 L -5 8 L -3 9 L -1 9 L 1 8 L 2 7 L 3 5 L 4 2 M -4 -3 L -5 -1 L -6 2 L -6 5 L -5 7 M -1 -5 L -3 -3 L -4 -1 L -5 2 L -5 5 L -4 8 L -3 9"
         style="stroke:#000000;fill:none"
         transform="translate(72,114)"
         id="path4429" />
      <path
         d="M -5 -12 L -5 9 M -5 -1 L -2 -4 L 0 -5 L 3 -5 L 5 -4 L 6 -1 L 6 9"
         style="stroke:#000000;fill:none"
         transform="translate(107,114)"
         id="path4431" />
      <path
         d="M -3 -12 L -9 9 L -7 9 M -2 -12 L -8 9 M -6 -12 L -1 -12 L -7 9 M -5 2 L -3 -2 L -1 -4 L 1 -5 L 3 -5 L 5 -4 L 6 -2 L 6 1 L 4 6 M 5 -4 L 5 0 L 4 4 L 4 8 M 5 -2 L 3 3 L 3 6 L 4 8 L 5 9 L 7 9 L 9 7 L 10 5 M -5 -12 L -2 -11 M -4 -12 L -3 -10"
         style="stroke:#000000;fill:none"
         transform="translate(128,114)"
         id="path4433" />
      <path
         d="M -1 -12 L 0 -11 L 1 -12 L 0 -13 L -1 -12 M 0 -5 L 0 9"
         style="stroke:#000000;fill:none"
         transform="translate(158,114)"
         id="path4435" />
      <path
         d="M 1 -12 L 1 -10 L 3 -10 L 3 -12 L 1 -12 M 2 -12 L 2 -10 M 1 -11 L 3 -11 M -6 -1 L -5 -3 L -3 -5 L -1 -5 L 0 -4 L 1 -2 L 1 1 L -1 6 M 0 -4 L 0 0 L -1 4 L -1 8 M 0 -2 L -2 3 L -2 6 L -1 8 L 0 9 L 2 9 L 4 7 L 5 5"
         style="stroke:#000000;fill:none"
         transform="translate(169,114)"
         id="path4437" />
      <path
         d="M 0 -12 L 1 -11 L 2 -12 L 1 -13 L 0 -12 M 1 -5 L 1 12 L 0 15 L -2 16 L -4 16"
         style="stroke:#000000;fill:none"
         transform="translate(195,114)"
         id="path4439" />
      <path
         d="M 3 -12 L 3 -10 L 5 -10 L 5 -12 L 3 -12 M 4 -12 L 4 -10 M 3 -11 L 5 -11 M -5 -1 L -4 -3 L -2 -5 L 0 -5 L 1 -4 L 2 -2 L 2 1 L 0 8 L -1 11 L -2 13 L -4 15 L -6 16 L -8 16 L -9 15 L -9 13 L -7 13 L -7 15 L -8 15 L -8 14 M 1 -4 L 1 1 L -1 8 L -2 11 L -3 13 M 1 -2 L 0 2 L -2 9 L -3 12 L -4 14 L -6 16"
         style="stroke:#000000;fill:none"
         transform="translate(207,114)"
         id="path4441" />
      <path
         d="M -5 -12 L -5 9 M 5 -5 L -5 5 M -1 1 L 6 9"
         style="stroke:#000000;fill:none"
         transform="translate(237,114)"
         id="path4443" />
      <path
         d="M -3 -12 L -9 9 L -7 9 M -2 -12 L -8 9 M -6 -12 L -1 -12 L -7 9 M 7 -3 L 7 -4 L 6 -4 L 6 -2 L 8 -2 L 8 -4 L 7 -5 L 5 -5 L 3 -4 L -1 0 L -3 1 M -5 1 L -3 1 L -1 2 L 0 3 L 2 7 L 3 8 L 5 8 M -1 3 L 1 7 L 2 8 M -3 1 L -2 2 L 0 8 L 1 9 L 3 9 L 5 8 L 7 5 M -5 -12 L -2 -11 M -4 -12 L -3 -10"
         style="stroke:#000000;fill:none"
         transform="translate(256,114)"
         id="path4445" />
      <path
         d="M 0 -12 L 0 9"
         style="stroke:#000000;fill:none"
         transform="translate(286,114)"
         id="path4447" />
      <path
         d="M 2 -12 L -1 -1 L -2 3 L -2 6 L -1 8 L 0 9 L 2 9 L 4 7 L 5 5 M 3 -12 L 0 -1 L -1 3 L -1 8 M -1 -12 L 4 -12 L 0 2 L -1 6 M 0 -12 L 3 -11 M 1 -12 L 2 -10"
         style="stroke:#000000;fill:none"
         transform="translate(296,114)"
         id="path4449" />
      <path
         d="M -11 -5 L -11 9 M -11 -1 L -8 -4 L -6 -5 L -3 -5 L -1 -4 L 0 -1 L 0 9 M 0 -1 L 3 -4 L 5 -5 L 8 -5 L 10 -4 L 11 -1 L 11 9"
         style="stroke:#000000;fill:none"
         transform="translate(332,114)"
         id="path4451" />
      <path
         d="M -17 -1 L -16 -3 L -14 -5 L -12 -5 L -11 -4 L -10 -2 L -10 1 L -12 9 M -11 -4 L -11 1 L -13 9 M -11 -2 L -12 2 L -14 9 L -12 9 M -10 1 L -8 -2 L -6 -4 L -4 -5 L -2 -5 L 0 -4 L 1 -2 L 1 1 L -1 9 M 0 -4 L 0 1 L -2 9 M 0 -2 L -1 2 L -3 9 L -1 9 M 1 1 L 3 -2 L 5 -4 L 7 -5 L 9 -5 L 11 -4 L 12 -2 L 12 1 L 10 6 M 11 -4 L 11 0 L 10 4 L 10 8 M 11 -2 L 9 3 L 9 6 L 10 8 L 11 9 L 13 9 L 15 7 L 16 5"
         style="stroke:#000000;fill:none"
         transform="translate(365,114)"
         id="path4453" />
      <path
         d="M -5 -5 L -5 9 M -5 -1 L -2 -4 L 0 -5 L 3 -5 L 5 -4 L 6 -1 L 6 9"
         style="stroke:#000000;fill:none"
         transform="translate(406,114)"
         id="path4455" />
      <path
         d="M -11 -1 L -10 -3 L -8 -5 L -6 -5 L -5 -4 L -4 -2 L -4 1 L -6 9 M -5 -4 L -5 1 L -7 9 M -5 -2 L -6 2 L -8 9 L -6 9 M -4 1 L -2 -2 L 0 -4 L 2 -5 L 4 -5 L 6 -4 L 7 -2 L 7 1 L 5 6 M 6 -4 L 6 0 L 5 4 L 5 8 M 6 -2 L 4 3 L 4 6 L 5 8 L 6 9 L 8 9 L 10 7 L 11 5"
         style="stroke:#000000;fill:none"
         transform="translate(428,114)"
         id="path4457" />
      <path
         d="M -1 -5 L -3 -4 L -5 -2 L -6 1 L -6 3 L -5 6 L -3 8 L -1 9 L 2 9 L 4 8 L 6 6 L 7 3 L 7 1 L 6 -2 L 4 -4 L 2 -5 L -1 -5"
         style="stroke:#000000;fill:none"
         transform="translate(464,114)"
         id="path4459" />
      <path
         d="M -1 -5 L -4 -4 L -6 -1 L -7 2 L -7 4 L -6 7 L -5 8 L -2 9 L 1 9 L 4 8 L 6 5 L 7 2 L 7 0 L 6 -3 L 5 -4 L 2 -5 L -1 -5 M -4 -3 L -5 -1 L -6 2 L -6 5 L -5 7 M 4 7 L 5 5 L 6 2 L 6 -1 L 5 -3 M -1 -5 L -3 -3 L -4 -1 L -5 2 L -5 5 L -4 8 L -2 9 M 1 9 L 3 7 L 4 5 L 5 2 L 5 -1 L 4 -4 L 2 -5"
         style="stroke:#000000;fill:none"
         transform="translate(484,114)"
         id="path4461" />
      <path
         d="M -6 -5 L -6 16 M -6 -2 L -4 -4 L -2 -5 L 1 -5 L 3 -4 L 5 -2 L 6 1 L 6 3 L 5 6 L 3 8 L 1 9 L -2 9 L -4 8 L -6 6"
         style="stroke:#000000;fill:none"
         transform="translate(10,159)"
         id="path4463" />
      <path
         d="M -10 -1 L -9 -3 L -7 -5 L -5 -5 L -4 -4 L -3 -2 L -3 1 L -4 5 L -7 16 M -4 -4 L -4 1 L -5 5 L -8 16 M -4 -2 L -5 2 L -9 16 M -3 2 L -2 -1 L -1 -3 L 0 -4 L 2 -5 L 4 -5 L 6 -4 L 7 -3 L 8 0 L 8 2 L 7 5 L 5 8 L 2 9 L 0 9 L -2 8 L -3 5 L -3 2 M 6 -3 L 7 -1 L 7 2 L 6 5 L 5 7 M 4 -5 L 5 -4 L 6 -1 L 6 2 L 5 5 L 4 7 L 2 9 M -12 16 L -4 16 M -8 15 L -11 16 M -8 14 L -10 16 M -7 14 L -6 16 M -8 15 L -5 16"
         style="stroke:#000000;fill:none"
         transform="translate(30,159)"
         id="path4465" />
      <path
         d="M 6 -5 L 6 16 M 6 -2 L 4 -4 L 2 -5 L -1 -5 L -3 -4 L -5 -2 L -6 1 L -6 3 L -5 6 L -3 8 L -1 9 L 2 9 L 4 8 L 6 6"
         style="stroke:#000000;fill:none"
         transform="translate(65,159)"
         id="path4467" />
      <path
         d="M 5 -5 L -1 16 M 6 -5 L 0 16 M 5 -5 L 7 -5 L 1 16 M 3 2 L 3 -1 L 2 -4 L 0 -5 L -2 -5 L -5 -4 L -7 -1 L -8 2 L -8 4 L -7 7 L -6 8 L -4 9 L -2 9 L 0 8 L 1 7 L 2 5 L 3 2 M -5 -3 L -6 -1 L -7 2 L -7 5 L -6 7 M -2 -5 L -4 -3 L -5 -1 L -6 2 L -6 5 L -5 8 L -4 9 M -4 16 L 4 16 M 0 15 L -3 16 M 0 14 L -2 16 M 1 14 L 2 16 M 0 15 L 3 16"
         style="stroke:#000000;fill:none"
         transform="translate(86,159)"
         id="path4469" />
      <path
         d="M -3 -5 L -3 9 M -3 1 L -2 -2 L 0 -4 L 2 -5 L 5 -5"
         style="stroke:#000000;fill:none"
         transform="translate(118,159)"
         id="path4471" />
      <path
         d="M -8 -1 L -7 -3 L -5 -5 L -3 -5 L -2 -4 L -1 -2 L -1 2 L -3 9 M -2 -4 L -2 2 L -4 9 M -2 -2 L -3 2 L -5 9 L -3 9 M 7 -3 L 7 -4 L 6 -4 L 6 -2 L 8 -2 L 8 -4 L 7 -5 L 5 -5 L 3 -4 L 1 -2 L -1 2"
         style="stroke:#000000;fill:none"
         transform="translate(133,159)"
         id="path4473" />
      <path
         d="M 6 -2 L 5 -4 L 2 -5 L -1 -5 L -4 -4 L -5 -2 L -4 0 L -2 1 L 3 2 L 5 3 L 6 5 L 6 6 L 5 8 L 2 9 L -1 9 L -4 8 L -5 6"
         style="stroke:#000000;fill:none"
         transform="translate(165,159)"
         id="path4475" />
      <path
         d="M 6 -2 L 6 -3 L 5 -3 L 5 -1 L 7 -1 L 7 -3 L 6 -4 L 3 -5 L 0 -5 L -3 -4 L -4 -3 L -4 -1 L -3 1 L -1 2 L 2 3 L 4 4 L 5 6 M -3 -4 L -4 -1 M -3 0 L -1 1 L 2 2 L 4 3 M 5 4 L 4 8 M -4 -3 L -3 -1 L -1 0 L 2 1 L 4 2 L 5 4 L 5 6 L 4 8 L 1 9 L -2 9 L -5 8 L -6 7 L -6 5 L -4 5 L -4 7 L -5 7 L -5 6"
         style="stroke:#000000;fill:none"
         transform="translate(182,159)"
         id="path4477" />
      <path
         d="M 0 -12 L 0 5 L 1 8 L 3 9 L 5 9 M -3 -5 L 4 -5"
         style="stroke:#000000;fill:none"
         transform="translate(211,159)"
         id="path4479" />
      <path
         d="M 2 -12 L -1 -1 L -2 3 L -2 6 L -1 8 L 0 9 L 2 9 L 4 7 L 5 5 M 3 -12 L 0 -1 L -1 3 L -1 8 M 2 -12 L 4 -12 L 0 2 L -1 6 M -4 -5 L 6 -5"
         style="stroke:#000000;fill:none"
         transform="translate(225,159)"
         id="path4481" />
      <path
         d="M -5 -5 L -5 5 L -4 8 L -2 9 L 1 9 L 3 8 L 6 5 M 6 -5 L 6 9"
         style="stroke:#000000;fill:none"
         transform="translate(256,159)"
         id="path4483" />
      <path
         d="M -11 -1 L -10 -3 L -8 -5 L -6 -5 L -5 -4 L -4 -2 L -4 1 L -6 6 M -5 -4 L -5 0 L -6 4 L -6 8 M -5 -2 L -7 3 L -7 6 L -6 8 L -4 9 L -2 9 L 0 8 L 2 6 L 4 3 M 6 -5 L 4 3 L 4 6 L 5 8 L 6 9 L 8 9 L 10 7 L 11 5 M 7 -5 L 5 3 L 5 8 M 6 -5 L 8 -5 L 6 2 L 5 6"
         style="stroke:#000000;fill:none"
         transform="translate(278,159)"
         id="path4485" />
      <path
         d="M -6 -5 L 0 9 M 6 -5 L 0 9"
         style="stroke:#000000;fill:none"
         transform="translate(313,159)"
         id="path4487" />
      <path
         d="M -9 -1 L -8 -3 L -6 -5 L -4 -5 L -3 -4 L -2 -2 L -2 1 L -4 6 M -3 -4 L -3 0 L -4 4 L -4 8 M -3 -2 L -5 3 L -5 6 L -4 8 L -2 9 L 0 9 L 2 8 L 4 6 L 6 3 L 7 -1 L 7 -5 L 6 -5 L 6 -4 L 7 -2"
         style="stroke:#000000;fill:none"
         transform="translate(331,159)"
         id="path4489" />
      <path
         d="M -8 -5 L -4 9 M 0 -5 L -4 9 M 0 -5 L 4 9 M 8 -5 L 4 9"
         style="stroke:#000000;fill:none"
         transform="translate(367,159)"
         id="path4491" />
      <path
         d="M -14 -1 L -13 -3 L -11 -5 L -9 -5 L -8 -4 L -7 -2 L -7 1 L -9 6 M -8 -4 L -8 0 L -9 4 L -9 8 M -8 -2 L -10 3 L -10 6 L -9 8 L -7 9 L -5 9 L -3 8 L -1 6 L 0 3 M 2 -5 L 0 3 L 0 6 L 1 8 L 3 9 L 5 9 L 7 8 L 9 6 L 11 3 L 12 -1 L 12 -5 L 11 -5 L 11 -4 L 12 -2 M 3 -5 L 1 3 L 1 8 M 2 -5 L 4 -5 L 2 2 L 1 6"
         style="stroke:#000000;fill:none"
         transform="translate(393,159)"
         id="path4493" />
      <path
         d="M -5 -5 L 6 9 M 6 -5 L -5 9"
         style="stroke:#000000;fill:none"
         transform="translate(431,159)"
         id="path4495" />
      <path
         d="M -8 -1 L -6 -4 L -4 -5 L -2 -5 L 0 -4 L 1 -2 L 1 0 M -2 -5 L -1 -4 L -1 0 L -2 4 L -3 6 L -5 8 L -7 9 L -9 9 L -10 8 L -10 6 L -8 6 L -8 8 L -9 8 L -9 7 M 0 -3 L 0 0 L -1 4 L -1 7 M 8 -3 L 8 -4 L 7 -4 L 7 -2 L 9 -2 L 9 -4 L 8 -5 L 6 -5 L 4 -4 L 2 -2 L 1 0 L 0 4 L 0 8 L 1 9 M -2 4 L -2 6 L -1 8 L 1 9 L 3 9 L 5 8 L 7 5"
         style="stroke:#000000;fill:none"
         transform="translate(451,159)"
         id="path4497" />
      <path
         d="M -6 -5 L 0 9 M 6 -5 L 0 9 L -2 13 L -4 15 L -6 16 L -7 16"
         style="stroke:#000000;fill:none"
         transform="translate(485,159)"
         id="path4499" />
      <path
         d="M -10 -1 L -9 -3 L -7 -5 L -5 -5 L -4 -4 L -3 -2 L -3 1 L -5 6 M -4 -4 L -4 0 L -5 4 L -5 8 M -4 -2 L -6 3 L -6 6 L -5 8 L -3 9 L -1 9 L 1 8 L 3 6 L 5 2 M 7 -5 L 3 9 L 2 12 L 0 15 L -2 16 M 8 -5 L 4 9 L 2 13 M 7 -5 L 9 -5 L 5 9 L 3 13 L 1 15 L -2 16 L -5 16 L -7 15 L -8 14 L -8 12 L -6 12 L -6 14 L -7 14 L -7 13"
         style="stroke:#000000;fill:none"
         transform="translate(504,159)"
         id="path4501" />
      <path
         d="M 6 -5 L -5 9 M -5 -5 L 6 -5 M -5 9 L 6 9"
         style="stroke:#000000;fill:none"
         transform="translate(8,204)"
         id="path4503" />
      <path
         d="M 7 -5 L 6 -3 L 4 -1 L -4 5 L -6 7 L -7 9 M 6 -3 L -3 -3 L -5 -2 L -6 0 M 4 -3 L 0 -4 L -3 -4 L -4 -3 M 4 -3 L 0 -5 L -3 -5 L -5 -3 L -6 0 M -6 7 L 3 7 L 5 6 L 6 4 M -4 7 L 0 8 L 3 8 L 4 7 M -4 7 L 0 9 L 3 9 L 5 7 L 6 4"
         style="stroke:#000000;fill:none"
         transform="translate(27,204)"
         id="path4505" />
      <path
         d="M 2 -16 L 0 -15 L -1 -14 L -2 -12 L -2 -10 L -1 -8 L 0 -7 L 1 -5 L 1 -3 L -1 -1 M 0 -15 L -1 -13 L -1 -11 L 0 -9 L 1 -8 L 2 -6 L 2 -4 L 1 -2 L -3 0 L 1 2 L 2 4 L 2 6 L 1 8 L 0 9 L -1 11 L -1 13 L 0 15 M -1 1 L 1 3 L 1 5 L 0 7 L -1 8 L -2 10 L -2 12 L -1 14 L 0 15 L 2 16"
         style="stroke:#000000;fill:none"
         transform="translate(59,204)"
         id="path4507" />
      <path
         d="M -11 -6 L -8 -9 L -5 -6 L -5 6 M -9 -8 L -6 -5 L -6 6 M -5 -6 L -2 -9 L 1 -6 L 1 6 M -3 -8 L 0 -5 L 0 6 M 1 -6 L 4 -9 L 7 -6 L 7 5 L 9 7 M 3 -8 L 6 -5 L 6 6 L 8 8 L 11 5"
         style="stroke:#000000;fill:none"
         transform="translate(78,204)"
         id="path4509" />
      <path
         d="M 0 -16 L 0 16"
         style="stroke:#000000;fill:none"
         transform="translate(110,204)"
         id="path4511" />
      <path
         d="M 8 -9 L -8 7 M 8 -9 L 5 -8 L -1 -8 M 6 -7 L 3 -7 L -1 -8 M 8 -9 L 7 -6 L 7 0 M 6 -7 L 6 -4 L 7 0 M -1 0 L -8 0 M -2 1 L -5 1 L -8 0 M -1 0 L -1 7 M -2 1 L -2 4 L -1 7"
         style="stroke:#000000;fill:none"
         transform="translate(125,204)"
         id="path4513" />
      <path
         d="M -2 -16 L 0 -15 L 1 -14 L 2 -12 L 2 -10 L 1 -8 L 0 -7 L -1 -5 L -1 -3 L 1 -1 M 0 -15 L 1 -13 L 1 -11 L 0 -9 L -1 -8 L -2 -6 L -2 -4 L -1 -2 L 3 0 L -1 2 L -2 4 L -2 6 L -1 8 L 0 9 L 1 11 L 1 13 L 0 15 M 1 1 L -1 3 L -1 5 L 0 7 L 1 8 L 2 10 L 2 12 L 1 14 L 0 15 L -2 16"
         style="stroke:#000000;fill:none"
         transform="translate(158,204)"
         id="path4515" />
      <path
         d="M -10 -3 L -8 -7 L -3 3 M -8 -5 L -3 5 L 0 -2 L 5 -2 L 8 -3 L 9 -5 L 9 -7 L 8 -9 L 6 -10 L 5 -10 L 3 -9 L 2 -7 L 2 -5 L 3 -2 L 4 0 L 5 3 L 5 6 L 3 8 M 5 -10 L 4 -9 L 3 -7 L 3 -5 L 5 -1 L 6 2 L 6 5 L 5 7 L 3 8"
         style="stroke:#000000;fill:none"
         transform="translate(177,204)"
         id="path4517" />
      <path
         d="M -9 3 L -9 1 L -8 -2 L -6 -3 L -4 -3 L -2 -2 L 2 1 L 4 2 L 6 2 L 8 1 L 9 -1 M -9 1 L -8 -1 L -6 -2 L -4 -2 L -2 -1 L 2 2 L 4 3 L 6 3 L 8 2 L 9 -1 L 9 -3"
         style="stroke:#000000;fill:none"
         transform="translate(216,204)"
         id="path4519" />
      <path
         d="M -9 -3 L -6 -6 L -2 -4 M -7 -5 L -3 -3 L 0 -6 L 3 -4 M -1 -5 L 2 -3 L 5 -6 L 7 -4 M 4 -5 L 6 -3 L 9 -6 M -9 3 L -6 0 L -2 2 M -7 1 L -3 3 L 0 0 L 3 2 M -1 1 L 2 3 L 5 0 L 7 2 M 4 1 L 6 3 L 9 0"
         style="stroke:#000000;fill:none"
         transform="translate(240,204)"
         id="path4521" />
      <path
         d="M -8 -12 L -8 9 L -7 9 L -7 -12 L -6 -12 L -6 9 L -5 9 L -5 -12 L -4 -12 L -4 9 L -3 9 L -3 -12 L -2 -12 L -2 9 L -1 9 L -1 -12 L 0 -12 L 0 9 L 1 9 L 1 -12 L 2 -12 L 2 9 L 3 9 L 3 -12 L 4 -12 L 4 9 L 5 9 L 5 -12 L 6 -12 L 6 9 L 7 9 L 7 -12 L 8 -12 L 8 9"
         style="stroke:#000000;fill:none"
         transform="translate(275,204)"
         id="path4523" />
      <path
         d="M -9 3 L -9 1 L -8 -2 L -6 -3 L -4 -3 L -2 -2 L 2 1 L 4 2 L 6 2 L 8 1 L 9 -1 M -9 1 L -8 -1 L -6 -2 L -4 -2 L -2 -1 L 2 2 L 4 3 L 6 3 L 8 2 L 9 -1 L 9 -3"
         style="stroke:#000000;fill:none"
         transform="translate(295,204)"
         id="path4525" />
    </g>
    <g
       inkscape:label="Hershey Text"
       id="g8684">
      <path
         d="m 1.4067476,-4.4346397 -2.28795747,7.7790553 0.91518297,0 m 2.7455489,-9.6094213 -0.9151829,1.830366 -2.28795748,7.7790553 m 3.20314038,-9.6094213 -2.7455489,9.6094213 m 2.7455489,-9.6094213 -1.3727744,1.3727745 -1.3727745,0.915183 -0.91518297,0.4575915 m 2.28795747,-0.915183 -0.91518301,0.4575915 -1.37277446,0.4575915"
         style="fill:none;stroke:#000000;stroke-width:0.45759147"
         id="path8686"
         inkscape:connector-curvature="0" />
    </g>
    <g
       id="g9086"
       inkscape:label="Hershey Text">
      <path
         id="path9088"
         style="fill:none;stroke:#000000;stroke-width:0.45454547"
         d="m 1.1818182,-6.2727393 -1.36363638,0.4545454 -0.90909092,0.9090909 -0.9090909,1.3636364 -0.4545455,1.3636364 -0.4545454,1.81818178 0,1.36363636 0.4545454,1.36363636 0.4545455,0.4545455 0.9090909,0.4545454 0.90909092,0 1.36363638,-0.4545454 0.9090909,-0.9090909 0.9090909,-1.36363641 0.4545455,-1.36363637 0.4545454,-1.81818182 0,-1.3636364 -0.4545454,-1.3636363 -0.4545455,-0.4545455 -0.9090909,-0.4545454 -0.9090909,0 m -1.36363638,0.9090909 -0.90909092,0.9090909 -0.4545454,0.9090909 -0.4545455,1.3636364 -0.4545455,1.81818178 0,1.81818182 0.4545455,0.9090909 m 3.1818182,0 0.9090909,-0.9090909 0.4545454,-0.90909091 0.4545455,-1.36363637 0.4545455,-1.81818182 0,-1.8181818 -0.4545455,-0.9090909 m -1.8181818,-0.9090909 -0.90909093,0.4545454 -0.90909091,1.3636364 -0.45454546,0.9090909 -0.4545454,1.3636364 -0.4545455,1.81818178 0,2.27272732 0.4545455,0.9090909 0.4545454,0.4545454 m 0.90909092,0 0.90909091,-0.4545454 0.90909087,-1.3636364 0.4545455,-0.90909091 0.4545454,-1.36363637 0.4545455,-1.81818182 0,-2.2727273 -0.4545455,-0.9090909 -0.4545454,-0.4545454"
         inkscape:connector-curvature="0" />
    </g>
  </g>
</svg>
