<?xml version="1.0" encoding="UTF-8" standalone="no"?>
<!-- Created with Inkscape (http://www.inkscape.org/) -->

<svg
   xmlns:dc="http://purl.org/dc/elements/1.1/"
   xmlns:cc="http://creativecommons.org/ns#"
   xmlns:rdf="http://www.w3.org/1999/02/22-rdf-syntax-ns#"
   xmlns:svg="http://www.w3.org/2000/svg"
   xmlns="http://www.w3.org/2000/svg"
   xmlns:sodipodi="http://sodipodi.sourceforge.net/DTD/sodipodi-0.dtd"
   xmlns:inkscape="http://www.inkscape.org/namespaces/inkscape"
   width="210mm"
   height="297mm"
   id="svg3361"
   version="1.1"
   inkscape:version="0.91 r13725"
   sodipodi:docname="Scorpio.svg">
  <defs
     id="defs3" />
  <sodipodi:namedview
     inkscape:document-units="mm"
     id="base"
     pagecolor="#ffffff"
     bordercolor="#666666"
     borderopacity="1.0"
     inkscape:pageopacity="0.0"
     inkscape:pageshadow="2"
     inkscape:zoom="6.9518188"
     inkscape:cx="344.77681"
     inkscape:cy="519.92844"
     inkscape:current-layer="layer1"
     showgrid="false"
     inkscape:window-width="1280"
     inkscape:window-height="975"
     inkscape:window-x="0"
     inkscape:window-y="25"
     inkscape:window-maximized="1" />
  <metadata
     id="metadata4">
    <rdf:RDF>
      <cc:Work
         rdf:about="">
        <dc:format>image/svg+xml</dc:format>
        <dc:type
           rdf:resource="http://purl.org/dc/dcmitype/StillImage" />
        <dc:title />
      </cc:Work>
    </rdf:RDF>
  </metadata>
  <g
     inkscape:label="Layer 1"
     inkscape:groupmode="layer"
     id="layer1">
    <path
       style="font-style:normal;font-variant:normal;font-weight:normal;font-stretch:normal;font-size:64px;line-height:125%;font-family:'Arev Sans';-inkscape-font-specification:'Arev Sans';text-align:start;writing-mode:lr-tb;text-anchor:start;display:inline;fill:#000000;fill-opacity:1;stroke:none"
       d="m 355.61524,541.09141 c -1.74459,0.17759 -3.34372,-1.58247 -3.04571,-3.30015 -0.0612,-3.76985 0.13674,-7.54934 -0.12804,-11.31241 0.0595,-0.78287 -0.4097,-2.51589 -1.44301,-1.68035 -0.75346,0.66937 -0.87692,1.73412 -1.28643,2.60645 -0.47699,2.35531 -0.16874,4.76756 -0.25076,7.15038 0,1.19448 0,2.38896 0,3.58343 -0.51801,0 -1.03602,0 -1.55403,0 -0.0624,-3.88458 0.13853,-7.77866 -0.12793,-11.65662 0.0622,-0.78409 -0.40407,-2.52016 -1.44084,-1.68574 -0.75524,0.66913 -0.8785,1.73547 -1.28851,2.60855 -0.47699,2.35531 -0.16875,4.76756 -0.25077,7.15038 0,1.19448 0,2.38896 0,3.58343 -0.51801,0 -1.03602,0 -1.55403,0 -0.0642,-3.85133 0.14319,-7.71161 -0.13348,-11.55649 -0.18768,-1.3544 -0.62588,-2.72057 -1.52414,-3.77657 0.53183,0 1.06365,0 1.59547,0 0.82696,0.37078 0.70101,2.01964 1.43365,2.11419 0.44117,-1.00471 1.11055,-1.99473 2.1379,-2.46567 1.18633,-0.1013 1.81498,1.18699 2.11146,2.14358 0.4097,1.18768 0.66328,-0.52924 1.07762,-0.85784 0.4455,-0.66874 1.16893,-1.38641 2.035,-1.26507 1.25282,0.49572 1.72161,1.94145 1.93963,3.15831 0.34676,2.40986 0.0892,4.8499 0.17491,7.27309 0.0107,1.91556 -0.0409,3.83566 0.043,5.74829 0.26469,1.06694 2.44817,1.37451 2.04195,-0.11522 0.46544,-0.29106 0.80167,0.53092 1.18821,0.77285 0.34872,0.33406 0.69745,0.66813 1.04619,1.00219 -0.73903,0.7114 -1.47805,1.4228 -2.21708,2.1342 0,-0.45239 0,-0.90479 0,-1.35719 -0.1934,0 -0.38679,0 -0.5802,0 z"
       id="text2441"
       inkscape:connector-curvature="0" />
  </g>
</svg>
