<?xml version="1.0" encoding="UTF-8" standalone="no"?>
<!-- Created with Inkscape (http://www.inkscape.org/) -->

<svg
   xmlns:dc="http://purl.org/dc/elements/1.1/"
   xmlns:cc="http://creativecommons.org/ns#"
   xmlns:rdf="http://www.w3.org/1999/02/22-rdf-syntax-ns#"
   xmlns:svg="http://www.w3.org/2000/svg"
   xmlns="http://www.w3.org/2000/svg"
   xmlns:sodipodi="http://sodipodi.sourceforge.net/DTD/sodipodi-0.dtd"
   xmlns:inkscape="http://www.inkscape.org/namespaces/inkscape"
   width="210mm"
   height="297mm"
   id="svg3361"
   version="1.1"
   inkscape:version="0.48.4 r9939"
   sodipodi:docname="New document 20">
  <defs
     id="defs3" />
  <sodipodi:namedview
     inkscape:document-units="mm"
     id="base"
     pagecolor="#ffffff"
     bordercolor="#666666"
     borderopacity="1.0"
     inkscape:pageopacity="0.0"
     inkscape:pageshadow="2"
     inkscape:zoom="6.9518188"
     inkscape:cx="325.9496"
     inkscape:cy="520.21613"
     inkscape:current-layer="layer1"
     showgrid="false"
     inkscape:window-width="1366"
     inkscape:window-height="719"
     inkscape:window-x="0"
     inkscape:window-y="25"
     inkscape:window-maximized="1" />
  <metadata
     id="metadata4">
    <rdf:RDF>
      <cc:Work
         rdf:about="">
        <dc:format>image/svg+xml</dc:format>
        <dc:type
           rdf:resource="http://purl.org/dc/dcmitype/StillImage" />
        <dc:title></dc:title>
      </cc:Work>
    </rdf:RDF>
  </metadata>
  <g
     inkscape:label="Layer 1"
     inkscape:groupmode="layer"
     id="layer1">
    <path
       style="font-size:64px;font-style:normal;font-variant:normal;font-weight:normal;font-stretch:normal;text-align:start;line-height:125%;writing-mode:lr-tb;text-anchor:start;fill:#000000;fill-opacity:1;stroke:none;display:inline;font-family:Arev Sans;-inkscape-font-specification:Arev Sans"
       d="m 356.77502,542.87653 c -2.10492,0.21427 -4.03434,-1.90932 -3.67478,-3.98178 -0.0738,-4.54848 0.16498,-9.10861 -0.15449,-13.64891 0.0718,-0.94457 -0.49432,-3.03553 -1.74105,-2.02742 -0.90909,0.80763 -1.05804,2.0923 -1.55214,3.1448 -0.5755,2.84178 -0.20359,5.75227 -0.30255,8.62724 0,1.44119 0,2.88238 0,4.32357 -0.625,0 -1.25,0 -1.875,0 -0.0753,-4.68692 0.16714,-9.38529 -0.15436,-14.06422 0.075,-0.94604 -0.48752,-3.04068 -1.73843,-2.03392 -0.91123,0.80734 -1.05995,2.09392 -1.55465,3.14733 -0.57551,2.84178 -0.2036,5.75227 -0.30256,8.62724 0,1.44119 0,2.88238 0,4.32357 -0.625,0 -1.25,0 -1.875,0 -0.0775,-4.6468 0.17276,-9.3044 -0.16106,-13.94341 -0.22644,-1.63414 -0.75515,-3.28249 -1.83893,-4.55659 0.64167,0 1.28333,0 1.925,0 0.99776,0.44736 0.8458,2.43678 1.72976,2.55085 0.53229,-1.21222 1.33993,-2.40672 2.57947,-2.97493 1.43136,-0.12222 2.18985,1.43215 2.54756,2.58632 0.49433,1.43299 0.80028,-0.63855 1.3002,-1.03502 0.53752,-0.80686 1.41036,-1.67276 2.45532,-1.52636 1.51158,0.5981 2.07719,2.34244 2.34025,3.81063 0.41838,2.90761 0.10759,5.85162 0.21103,8.7753 0.0129,2.31121 -0.0494,4.62789 0.0519,6.93556 0.31936,1.28731 2.95382,1.65841 2.46369,-0.13901 0.56158,-0.35118 0.96725,0.64058 1.43363,0.93247 0.42075,0.40306 0.84151,0.80613 1.26227,1.20919 -0.89167,0.85833 -1.78333,1.71667 -2.675,2.575 0,-0.54583 0,-1.09167 0,-1.6375 -0.23334,0 -0.46668,0 -0.70003,0 z"
       id="text2441"
       inkscape:connector-curvature="0" />
  </g>
</svg>
