<?xml version="1.0" encoding="UTF-8" standalone="no"?>
<!-- Created with Inkscape (http://www.inkscape.org/) -->

<svg
   xmlns:dc="http://purl.org/dc/elements/1.1/"
   xmlns:cc="http://creativecommons.org/ns#"
   xmlns:rdf="http://www.w3.org/1999/02/22-rdf-syntax-ns#"
   xmlns:svg="http://www.w3.org/2000/svg"
   xmlns="http://www.w3.org/2000/svg"
   xmlns:sodipodi="http://sodipodi.sourceforge.net/DTD/sodipodi-0.dtd"
   xmlns:inkscape="http://www.inkscape.org/namespaces/inkscape"
   width="210mm"
   height="297mm"
   viewBox="0 0 744.09448819 1052.3622047"
   id="svg4201"
   version="1.1"
   inkscape:version="0.91 r13725"
   sodipodi:docname="signs-hershey.svg">
  <sodipodi:namedview
     id="base"
     pagecolor="#ffffff"
     bordercolor="#666666"
     borderopacity="1.0"
     inkscape:pageopacity="0.0"
     inkscape:pageshadow="2"
     inkscape:zoom="0.77713417"
     inkscape:cx="248.69446"
     inkscape:cy="630.21966"
     inkscape:document-units="px"
     inkscape:current-layer="layer1"
     showgrid="false"
     inkscape:window-width="1280"
     inkscape:window-height="975"
     inkscape:window-x="0"
     inkscape:window-y="25"
     inkscape:window-maximized="1" />
  <defs
     id="defs4203" />
  <metadata
     id="metadata4206">
    <rdf:RDF>
      <cc:Work
         rdf:about="">
        <dc:format>image/svg+xml</dc:format>
        <dc:type
           rdf:resource="http://purl.org/dc/dcmitype/StillImage" />
        <dc:title />
      </cc:Work>
    </rdf:RDF>
  </metadata>
  <g
     inkscape:label="Layer 1"
     inkscape:groupmode="layer"
     id="layer1">
    <g
       inkscape:label="Hershey Text"
       transform="translate(87.857146,452.36221)"
       id="g4854">
      <path
         inkscape:connector-curvature="0"
         d=""
         style="fill:none;stroke:#000000"
         transform="translate(8,-201)"
         id="path4856" />
      <path
         inkscape:connector-curvature="0"
         d=""
         style="fill:none;stroke:#000000"
         transform="translate(24,-201)"
         id="path4858" />
      <path
         inkscape:connector-curvature="0"
         d="m 0,-12 0,14 m 0,5 -1,1 1,1 1,-1 -1,-1"
         style="fill:none;stroke:#000000"
         transform="translate(52,-201)"
         id="path4860" />
      <path
         inkscape:connector-curvature="0"
         d="m -8,-10 4,2 2,2 1,3 0,3 -1,3 -2,2 -4,2 m 0,-17 3,1 2,1 2,2 1,3 m 0,3 -1,3 -2,2 -2,1 -3,1 m 16,-17 -3,1 -2,1 -2,2 -1,3 m 0,3 1,3 2,2 2,1 3,1 m 0,-17 -4,2 -2,2 -1,3 0,3 1,3 2,2 4,2 m -17,-9 18,0 m -18,1 18,0"
         style="fill:none;stroke:#000000"
         transform="translate(69,-201)"
         id="path4862" />
      <path
         inkscape:connector-curvature="0"
         d="m -4,-12 0,7 m 8,-7 0,7"
         style="fill:none;stroke:#000000"
         transform="translate(104,-201)"
         id="path4864" />
      <path
         inkscape:connector-curvature="0"
         d="m -4,-12 -1,1 0,6 m 1,-6 -1,6 m 1,-7 1,1 -2,6 m 10,-7 -1,1 0,6 m 1,-6 -1,6 m 1,-7 1,1 -2,6"
         style="fill:none;stroke:#000000"
         transform="translate(121,-201)"
         id="path4866" />
      <path
         inkscape:connector-curvature="0"
         d="m 1,-16 -7,32 m 13,-32 -7,32 m -6,-19 14,0 m -15,6 14,0"
         style="fill:none;stroke:#000000"
         transform="translate(155,-201)"
         id="path4868" />
      <path
         inkscape:connector-curvature="0"
         d="m -1,-12 -3,1 -3,2 -2,3 -1,3 0,3 1,3 2,3 3,2 3,1 3,0 3,-1 3,-2 2,-3 1,-3 0,-3 -1,-3 -2,-3 -3,-2 -3,-1 -3,0 m 1,9 -1,1 0,1 1,1 1,0 1,-1 0,-1 -1,-1 -1,0 m 0,1 0,1 1,0 0,-1 -1,0"
         style="fill:none;stroke:#000000"
         transform="translate(179,-201)"
         id="path4870" />
      <path
         inkscape:connector-curvature="0"
         d="m -2,-16 0,29 m 4,-29 0,29 m 5,-22 -2,-2 -3,-1 -4,0 -3,1 -2,2 0,2 1,2 1,1 2,1 6,2 2,1 1,1 1,2 0,3 -2,2 -3,1 -4,0 -3,-1 -2,-2"
         style="fill:none;stroke:#000000"
         transform="translate(218,-201)"
         id="path4872" />
      <path
         inkscape:connector-curvature="0"
         d="m -2,-12 -2,1 1,2 2,1 m -1,-4 -1,1 0,2 m 6,-3 2,1 -1,2 -2,1 m 1,-4 1,1 0,2 m -5,1 -2,1 -1,1 -1,2 0,3 1,2 1,1 2,1 3,0 2,-1 1,-1 1,-2 0,-3 -1,-2 -1,-1 -2,-1 -3,0 m 1,11 0,6 m 1,-6 0,6 m -5,-3 9,0"
         style="fill:none;stroke:#000000"
         transform="translate(236,-201)"
         id="path4874" />
      <path
         inkscape:connector-curvature="0"
         d="m 9,-12 -18,21 m 5,-21 2,2 0,2 -1,2 -2,1 -2,0 -2,-2 0,-2 1,-2 2,-1 2,0 2,1 3,1 3,0 3,-1 2,-1 m -4,14 -2,1 -1,2 0,2 2,2 2,0 2,-1 1,-2 0,-2 -2,-2 -2,0"
         style="fill:none;stroke:#000000"
         transform="translate(272,-201)"
         id="path4876" />
      <path
         inkscape:connector-curvature="0"
         d="m 0,-12 -3,1 -2,2 -1,3 0,1 1,3 2,2 3,1 1,0 3,-1 2,-2 1,-3 0,-1 -1,-3 -2,-2 -3,-1 -1,0 m 0,13 0,8 m 1,-8 0,8 m -5,-4 9,0"
         style="fill:none;stroke:#000000"
         transform="translate(293,-201)"
         id="path4878" />
      <path
         inkscape:connector-curvature="0"
         d="m 10,-3 0,-1 -1,-1 -1,0 -1,1 -1,2 -2,5 -2,3 -2,2 -2,1 -4,0 -2,-1 -1,-1 -1,-2 0,-2 1,-2 1,-1 7,-4 1,-1 1,-2 0,-2 -1,-2 -2,-1 -2,1 -1,2 0,2 1,3 2,3 5,7 2,2 2,1 2,0 1,-1 0,-1"
         style="fill:none;stroke:#000000"
         transform="translate(331,-201)"
         id="path4880" />
      <path
         inkscape:connector-curvature="0"
         d="m -2,-12 -3,1 -3,2 -2,3 -1,3 0,4 1,3 2,3 3,2 3,1 4,0 3,-1 3,-2 2,-3 1,-3 0,-4 -1,-3 -2,-3 -3,-2 -3,-1 -4,0 m 2,0 0,22 m -11,-11 22,0"
         style="fill:none;stroke:#000000"
         transform="translate(358,-201)"
         id="path4882" />
      <path
         inkscape:connector-curvature="0"
         d="m 0,-10 -1,-1 1,-1 1,1 0,2 -1,2 -1,1"
         style="fill:none;stroke:#000000"
         transform="translate(392,-201)"
         id="path4884" />
      <path
         inkscape:connector-curvature="0"
         d="m -2,-5 -3,1 -2,2 -1,3 0,1 1,3 2,2 3,1 1,0 3,-1 2,-2 1,-3 0,-1 -1,-3 -2,-2 -3,-1 -1,0 m 13,-6 -6,0 4,1 -6,6 m 8,-7 0,6 -1,-4 -6,6 m 6,-7 -6,6"
         style="fill:none;stroke:#000000"
         transform="translate(408,-201)"
         id="path4886" />
      <path
         inkscape:connector-curvature="0"
         d="m 4,-16 -2,2 -2,3 -2,4 -1,5 0,4 1,5 2,4 2,3 2,2"
         style="fill:none;stroke:#000000"
         transform="translate(444,-201)"
         id="path4888" />
      <path
         inkscape:connector-curvature="0"
         d="m 4,-16 -2,2 -2,3 -2,4 -1,5 0,4 1,5 2,4 2,3 2,2 m -2,-30 -2,4 -1,3 -1,5 0,4 1,5 1,3 2,4"
         style="fill:none;stroke:#000000"
         transform="translate(458,-201)"
         id="path4890" />
      <path
         inkscape:connector-curvature="0"
         d="m -4,-16 2,2 2,3 2,4 1,5 0,4 -1,5 -2,4 -2,3 -2,2"
         style="fill:none;stroke:#000000"
         transform="translate(487,-201)"
         id="path4892" />
      <path
         inkscape:connector-curvature="0"
         d="m -4,-16 2,2 2,3 2,4 1,5 0,4 -1,5 -2,4 -2,3 -2,2 m 2,-30 2,4 1,3 1,5 0,4 -1,5 -1,3 -2,4"
         style="fill:none;stroke:#000000"
         transform="translate(501,-201)"
         id="path4894" />
      <path
         inkscape:connector-curvature="0"
         d="m 0,-6 0,12 m -5,-9 10,6 m 0,-6 -10,6"
         style="fill:none;stroke:#000000"
         transform="translate(8,-156)"
         id="path4896" />
      <path
         inkscape:connector-curvature="0"
         d="m -9,-9 1,-2 2,-1 3,0 2,1 1,2 0,3 -1,3 -1,2 -2,2 -3,2 m 4,-15 1,1 1,2 0,4 -1,3 -2,3 m 8,-13 -2,21 m 3,-21 -4,21 m -8,-6 14,0"
         style="fill:none;stroke:#000000"
         transform="translate(28,-156)"
         id="path4898" />
      <path
         inkscape:connector-curvature="0"
         d="m 0,-9 0,18 m -9,-9 18,0"
         style="fill:none;stroke:#000000"
         transform="translate(66,-156)"
         id="path4900" />
      <path
         inkscape:connector-curvature="0"
         d="m -5,-12 0,15 m 1,-15 -1,11 m 0,0 1,-2 1,-1 2,-1 3,0 3,1 1,2 0,2 -1,2 -2,2 m -1,-9 2,1 1,2 0,2 -3,6 0,2 1,1 2,0 2,-2 m -14,-19 3,0"
         style="fill:none;stroke:#000000"
         transform="translate(88,-156)"
         id="path4902" />
      <path
         inkscape:connector-curvature="0"
         d="m 1,5 -1,1 -1,-1 1,-1 1,1 0,2 -2,2"
         style="fill:none;stroke:#000000"
         transform="translate(117,-156)"
         id="path4904" />
      <path
         inkscape:connector-curvature="0"
         d="m 1,5 -1,1 -1,-1 1,-1 1,1 0,2 -2,2"
         style="fill:none;stroke:#000000"
         transform="translate(125,-156)"
         id="path4906" />
      <path
         inkscape:connector-curvature="0"
         d="m -9,0 18,0"
         style="fill:none;stroke:#000000"
         transform="translate(157,-156)"
         id="path4908" />
      <path
         inkscape:connector-curvature="0"
         d="m 0,-4 -3,1 -2,2 -1,3 0,1 1,3 2,2 3,1 1,0 3,-1 2,-2 1,-3 0,-1 -1,-3 -2,-2 -3,-1 -1,0 m 0,-6 -4,2 4,-4 0,8 m 1,-6 4,2 -4,-4 0,8 m -1,5 -1,1 0,1 1,1 1,0 1,-1 0,-1 -1,-1 -1,0 m 0,1 0,1 1,0 0,-1 -1,0"
         style="fill:none;stroke:#000000"
         transform="translate(179,-156)"
         id="path4910" />
      <path
         inkscape:connector-curvature="0"
         d="m 0,4 -1,1 1,1 1,-1 -1,-1"
         style="fill:none;stroke:#000000"
         transform="translate(208,-156)"
         id="path4912" />
      <path
         inkscape:connector-curvature="0"
         d="m 0,4 -1,1 1,1 1,-1 -1,-1"
         style="fill:none;stroke:#000000"
         transform="translate(216,-156)"
         id="path4914" />
      <path
         inkscape:connector-curvature="0"
         d="m 9,-16 -18,32"
         style="fill:none;stroke:#000000"
         transform="translate(246,-156)"
         id="path4916" />
      <path
         inkscape:connector-curvature="0"
         d="m -1,-10 1,-2 0,21 m 2,-19 -1,-2 0,21 m -9,-19 1,-2 0,7 1,3 2,2 3,1 1,0 m -5,-11 -1,-2 0,8 1,3 m 14,-9 -1,-2 0,7 -1,3 -2,2 -3,1 -1,0 m 5,-11 1,-2 0,8 -1,3 m -10,6 9,0"
         style="fill:none;stroke:#000000"
         transform="translate(268,-156)"
         id="path4918" />
      <path
         inkscape:connector-curvature="0"
         d="m -1,-12 -3,1 -2,3 -1,5 0,3 1,5 2,3 3,1 2,0 3,-1 2,-3 1,-5 0,-3 -1,-5 -2,-3 -3,-1 -2,0"
         style="fill:none;stroke:#000000"
         transform="translate(305,-156)"
         id="path4920" />
      <path
         inkscape:connector-curvature="0"
         d="m 2,-12 -3,1 -2,2 -2,3 -1,3 -1,4 0,3 1,3 1,1 2,1 2,0 3,-1 2,-2 2,-3 1,-3 1,-4 0,-3 -1,-3 -1,-1 -2,-1 -2,0 m -3,2 -2,2 -1,2 -1,3 -1,4 0,4 1,2 m 7,0 2,-2 1,-2 1,-3 1,-4 0,-4 -1,-2 m -4,-2 -2,1 -2,3 -1,2 -1,3 -1,4 0,5 1,2 1,1 m 2,0 2,-1 2,-3 1,-2 1,-3 1,-4 0,-5 -1,-2 -1,-1"
         style="fill:none;stroke:#000000"
         transform="translate(325,-156)"
         id="path4922" />
      <path
         inkscape:connector-curvature="0"
         d="m -4,-8 2,-1 3,-3 0,21"
         style="fill:none;stroke:#000000"
         transform="translate(361,-156)"
         id="path4924" />
      <path
         inkscape:connector-curvature="0"
         d="m 2,-8 -5,17 2,0 m 6,-21 -2,4 -5,17 m 7,-21 -6,21 m 6,-21 -3,3 -3,2 -2,1 m 5,-2 -2,1 -3,1"
         style="fill:none;stroke:#000000"
         transform="translate(381,-156)"
         id="path4926" />
      <path
         inkscape:connector-curvature="0"
         d="m -6,-7 0,-1 1,-2 1,-1 2,-1 4,0 2,1 1,1 1,2 0,2 -1,2 -2,3 -10,10 14,0"
         style="fill:none;stroke:#000000"
         transform="translate(417,-156)"
         id="path4928" />
      <path
         inkscape:connector-curvature="0"
         d="m -3,-7 0,-1 1,0 0,2 -2,0 0,-2 1,-2 1,-1 3,-1 3,0 3,1 1,2 0,2 -1,2 -2,2 -10,6 -2,2 -2,4 m 15,-20 1,2 0,2 -1,2 -2,2 -3,2 m 3,-11 1,1 1,2 0,2 -1,2 -2,2 -8,6 m -3,4 1,-1 2,0 5,1 5,0 1,-1 m -11,0 5,2 5,0 m -10,-2 5,3 3,0 2,-1 1,-2 0,-1"
         style="fill:none;stroke:#000000"
         transform="translate(437,-156)"
         id="path4930" />
      <path
         inkscape:connector-curvature="0"
         d="m -5,-12 11,0 -6,8 3,0 2,1 1,1 1,3 0,2 -1,3 -2,2 -3,1 -3,0 -3,-1 -1,-1 -1,-2"
         style="fill:none;stroke:#000000"
         transform="translate(473,-156)"
         id="path4932" />
      <path
         inkscape:connector-curvature="0"
         d="m -3,-7 0,-1 1,0 0,2 -2,0 0,-2 1,-2 1,-1 3,-1 3,0 3,1 1,2 0,2 -1,2 -1,1 -2,1 -3,1 m 5,-9 1,2 0,2 -1,2 -1,1 m -1,-8 1,1 1,2 0,2 -1,2 -2,2 -2,1 m -2,0 2,0 3,1 1,1 1,2 0,3 -1,2 -2,1 -3,1 -3,0 -3,-1 -1,-1 -1,-2 0,-2 2,0 0,2 -1,0 0,-1 m 11,-4 1,2 0,3 -1,2 m -3,-9 2,1 1,2 0,4 -1,2 -1,1 -2,1"
         style="fill:none;stroke:#000000"
         transform="translate(493,-156)"
         id="path4934" />
      <path
         inkscape:connector-curvature="0"
         d="m 3,-12 -10,14 15,0 m -5,-14 0,21"
         style="fill:none;stroke:#000000"
         transform="translate(10,-111)"
         id="path4936" />
      <path
         inkscape:connector-curvature="0"
         d="m 5,-8 -5,17 2,0 m 6,-21 -2,4 -5,17 m 7,-21 -6,21 m 6,-21 -16,15 16,0"
         style="fill:none;stroke:#000000"
         transform="translate(30,-111)"
         id="path4938" />
      <path
         inkscape:connector-curvature="0"
         d="m 5,-12 -10,0 -1,9 1,-1 3,-1 3,0 3,1 2,2 1,3 0,2 -1,3 -2,2 -3,1 -3,0 -3,-1 -1,-1 -1,-2"
         style="fill:none;stroke:#000000"
         transform="translate(66,-111)"
         id="path4940" />
      <path
         inkscape:connector-curvature="0"
         d="m -1,-12 -5,10 m 5,-10 10,0 m -10,1 8,0 m -9,1 5,0 4,-1 2,-1 m -15,10 1,-1 3,-1 3,0 3,1 1,1 1,2 0,3 -1,3 -2,2 -4,1 -3,0 -2,-1 -1,-1 -1,-2 0,-2 2,0 0,2 -1,0 0,-1 m 11,-6 1,2 0,3 -1,3 -2,2 m -1,-12 2,1 1,2 0,4 -1,3 -2,2 -2,1"
         style="fill:none;stroke:#000000"
         transform="translate(86,-111)"
         id="path4942" />
      <path
         inkscape:connector-curvature="0"
         d="m 6,-9 -1,-2 -3,-1 -2,0 -3,1 -2,3 -1,5 0,5 1,4 2,2 3,1 1,0 3,-1 2,-2 1,-3 0,-1 -1,-3 -2,-2 -3,-1 -1,0 -3,1 -2,2 -1,3"
         style="fill:none;stroke:#000000"
         transform="translate(122,-111)"
         id="path4944" />
      <path
         inkscape:connector-curvature="0"
         d="m 7,-8 0,-1 -1,0 0,2 2,0 0,-2 -1,-2 -2,-1 -3,0 -3,1 -2,2 -2,3 -1,3 -1,4 0,3 1,3 1,1 2,1 3,0 3,-1 2,-2 1,-2 0,-3 -1,-2 -1,-1 -2,-1 -3,0 -2,1 -1,1 -1,2 m 3,-10 -2,3 -1,3 -1,4 0,4 1,2 m 9,-1 1,-2 0,-3 -1,-2 m -2,-11 -2,1 -2,3 -1,2 -1,3 -1,4 0,5 1,2 1,1 m 3,0 2,-1 1,-1 1,-3 0,-4 -1,-2 -1,-1"
         style="fill:none;stroke:#000000"
         transform="translate(142,-111)"
         id="path4946" />
      <path
         inkscape:connector-curvature="0"
         d="m 7,-12 -10,21 m -4,-21 14,0"
         style="fill:none;stroke:#000000"
         transform="translate(178,-111)"
         id="path4948" />
      <path
         inkscape:connector-curvature="0"
         d="m -4,-12 -2,6 m 15,-6 -1,3 -2,3 -4,5 -2,3 -1,3 -1,4 m 2,-8 -2,4 -1,4 m 9,-15 -6,6 -2,3 -1,2 -1,4 2,0 m -3,-18 3,-3 2,0 5,3 m -8,-2 3,0 5,2 m -10,0 2,-1 3,0 5,1 2,0 1,-1 1,-2"
         style="fill:none;stroke:#000000"
         transform="translate(198,-111)"
         id="path4950" />
      <path
         inkscape:connector-curvature="0"
         d="m -2,-12 -3,1 -1,2 0,2 1,2 2,1 4,1 3,1 2,2 1,2 0,3 -1,2 -1,1 -3,1 -4,0 -3,-1 -1,-1 -1,-2 0,-3 1,-2 2,-2 3,-1 4,-1 2,-1 1,-2 0,-2 -1,-2 -3,-1 -4,0"
         style="fill:none;stroke:#000000"
         transform="translate(234,-111)"
         id="path4952" />
      <path
         inkscape:connector-curvature="0"
         d="m 1,-12 -3,1 -1,1 -1,2 0,3 1,2 2,1 3,0 3,-1 2,-1 1,-2 0,-3 -1,-2 -2,-1 -4,0 m 2,0 -5,1 m 0,1 -1,2 0,4 1,1 m -1,0 3,1 m 1,0 4,-1 m 1,-1 1,-2 0,-3 -1,-2 m 1,0 -4,-1 m -2,0 -2,2 -1,2 0,4 1,2 m 3,0 2,-1 1,-1 1,-2 0,-4 -1,-2 m -6,10 -4,1 -2,2 -1,2 0,3 1,2 3,1 4,0 4,-1 1,-1 1,-2 0,-3 -1,-2 -1,-1 -2,-1 m -2,0 -5,1 m 1,0 -2,2 -1,2 0,3 1,2 m -1,0 5,1 6,-1 m 0,-1 1,-2 0,-3 -1,-2 m 0,-1 -3,-1 m -2,0 -2,1 -2,2 -1,2 0,3 1,2 1,1 m 4,0 2,-1 1,-1 1,-2 0,-4 -1,-2 -1,-1"
         style="fill:none;stroke:#000000"
         transform="translate(254,-111)"
         id="path4954" />
      <path
         inkscape:connector-curvature="0"
         d="m 6,-5 -1,3 -2,2 -3,1 -1,0 -3,-1 -2,-2 -1,-3 0,-1 1,-3 2,-2 3,-1 1,0 3,1 2,2 1,4 0,5 -1,5 -2,3 -3,1 -2,0 -3,-1 -1,-2"
         style="fill:none;stroke:#000000"
         transform="translate(290,-111)"
         id="path4956" />
      <path
         inkscape:connector-curvature="0"
         d="m 6,-4 -1,2 -1,1 -2,1 -3,0 -2,-1 -1,-1 -1,-2 0,-3 1,-2 2,-2 3,-1 3,0 2,1 1,1 1,3 0,3 -1,4 -1,3 -2,3 -2,2 -3,1 -3,0 -2,-1 -1,-2 0,-2 2,0 0,2 -1,0 0,-1 m 3,-7 -1,-2 0,-3 1,-2 m 9,-1 1,2 0,4 -1,4 -1,3 -2,3 m -4,-6 -1,-1 -1,-2 0,-4 1,-3 1,-1 2,-1 m 3,0 1,1 1,2 0,5 -1,4 -1,3 -1,2 -2,3 -2,1"
         style="fill:none;stroke:#000000"
         transform="translate(310,-111)"
         id="path4958" />
      <path
         inkscape:connector-curvature="0"
         d="m 0,-3 -1,1 1,1 1,-1 -1,-1 m 0,7 -1,1 1,1 1,-1 -1,-1"
         style="fill:none;stroke:#000000"
         transform="translate(340,-111)"
         id="path4960" />
      <path
         inkscape:connector-curvature="0"
         d="m -6,-12 0,21 m 1,-21 0,21 m -4,-21 12,0 3,1 1,1 1,2 0,3 -1,2 -1,1 -3,1 -8,0 m 8,-11 2,1 1,1 1,2 0,3 -1,2 -1,1 -2,1 m -12,10 16,0 0,-5 -1,5"
         style="fill:none;stroke:#000000"
         transform="translate(355,-111)"
         id="path4962" />
      <path
         inkscape:connector-curvature="0"
         d="m 0,-3 -1,1 1,1 1,-1 -1,-1 m 1,8 -1,1 -1,-1 1,-1 1,1 0,2 -2,2"
         style="fill:none;stroke:#000000"
         transform="translate(385,-111)"
         id="path4964" />
      <path
         inkscape:connector-curvature="0"
         d="m 7,-11 -4,0 -4,1 -3,2 -2,3 -1,3 0,3 1,3 2,3 3,2 4,1 4,0 m 0,-21 -3,1 -3,2 -2,3 -1,3 0,3 1,3 2,3 3,2 3,1"
         style="fill:none;stroke:#000000"
         transform="translate(399,-111)"
         id="path4966" />
      <path
         inkscape:connector-curvature="0"
         d="m 8,-9 -16,9 16,9"
         style="fill:none;stroke:#000000"
         transform="translate(435,-111)"
         id="path4968" />
      <path
         inkscape:connector-curvature="0"
         d="m -3,-1 -2,0 -2,1 -1,1 -1,2 0,2 1,2 1,1 2,1 2,0 2,-1 1,-1 1,-2 0,-2 -1,-2 -1,-1 -2,-1 m 4,-9 -3,9 m 10,-7 -8,8 m 10,-1 -9,3"
         style="fill:none;stroke:#000000"
         transform="translate(459,-111)"
         id="path4970" />
      <path
         inkscape:connector-curvature="0"
         d="m -9,-3 18,0 m -18,6 18,0"
         style="fill:none;stroke:#000000"
         transform="translate(500,-111)"
         id="path4972" />
      <path
         inkscape:connector-curvature="0"
         d="m -3,-7 6,14 m 0,-14 -6,14 m -4,-10 14,6 m 0,-6 -14,6"
         style="fill:none;stroke:#000000"
         transform="translate(523,-111)"
         id="path4974" />
      <path
         inkscape:connector-curvature="0"
         d="m -8,-9 16,9 -16,9"
         style="fill:none;stroke:#000000"
         transform="translate(12,-66)"
         id="path4976" />
      <path
         inkscape:connector-curvature="0"
         d="m -4,4 -2,-1 -1,0 -2,1 -1,2 0,1 1,2 2,1 1,0 2,-1 1,-2 0,-1 -1,-2 -3,-4 -1,-3 0,-2 1,-3 2,-2 3,-1 4,0 3,1 2,2 1,3 0,2 -1,3 -3,4 -1,2 0,1 1,2 2,1 1,0 2,-1 1,-2 0,-1 -1,-2 -2,-1 -1,0 -2,1 m -12,-9 1,-2 2,-2 3,-1 4,0 3,1 2,2 1,2"
         style="fill:none;stroke:#000000"
         transform="translate(36,-66)"
         id="path4978" />
      <path
         inkscape:connector-curvature="0"
         d="m -6,-7 0,-1 1,-2 1,-1 2,-1 4,0 2,1 1,1 1,2 0,2 -1,2 -1,1 -4,2 0,3 m 0,5 -1,1 1,1 1,-1 -1,-1"
         style="fill:none;stroke:#000000"
         transform="translate(72,-66)"
         id="path4980" />
      <path
         inkscape:connector-curvature="0"
         d="m -4,-5 -2,1 -1,0 -2,-1 -1,-2 0,-1 1,-2 2,-1 1,0 2,1 1,2 0,1 -1,2 -3,4 -1,3 0,2 1,3 2,2 3,1 4,0 3,-1 2,-2 1,-3 0,-2 -1,-3 -3,-4 -1,-2 0,-1 1,-2 2,-1 1,0 2,1 1,2 0,1 -1,2 -2,1 -1,0 -2,-1 m -12,9 1,2 2,2 3,1 4,0 3,-1 2,-2 1,-2"
         style="fill:none;stroke:#000000"
         transform="translate(93,-66)"
         id="path4982" />
      <path
         inkscape:connector-curvature="0"
         d="m 5,-4 -1,-2 -2,-1 -3,0 -2,1 -1,1 -1,3 0,3 1,2 2,1 3,0 2,-1 1,-2 m -5,-8 -2,2 -1,3 0,3 1,2 1,1 m 7,-11 -1,8 0,2 2,1 2,0 2,-2 1,-3 0,-2 -1,-3 -1,-2 -2,-2 -2,-1 -3,-1 -3,0 -3,1 -2,1 -2,2 -1,2 -1,3 0,3 1,3 1,2 2,2 2,1 3,1 3,0 3,-1 2,-1 1,-1 m -2,-13 -1,8 0,2 1,1"
         style="fill:none;stroke:#000000"
         transform="translate(133,-66)"
         id="path4984" />
      <path
         inkscape:connector-curvature="0"
         d="m -8,-5 -1,-1 0,-2 1,-2 2,-1 2,0 2,1 1,1 1,2 1,5 m -10,-6 2,-2 2,0 2,1 1,1 1,2 1,4 0,11 m 9,-14 1,-1 0,-2 -1,-2 -2,-1 -2,0 -2,1 -1,1 -1,2 -1,5 m 10,-6 -2,-2 -2,0 -2,1 -1,1 -1,2 -1,4 0,11"
         style="fill:none;stroke:#000000"
         transform="translate(159,-66)"
         id="path4986" />
      <path
         inkscape:connector-curvature="0"
         d="m 0,-12 -8,21 m 8,-21 8,21 m -13,-7 10,0"
         style="fill:none;stroke:#000000"
         transform="translate(196,-66)"
         id="path4988" />
      <path
         inkscape:connector-curvature="0"
         d="m 0,-12 -7,20 m 6,-17 6,18 m -5,-18 6,18 m -6,-21 7,21 m -12,-6 9,0 m -13,6 6,0 m 5,0 7,0 m -16,-1 -1,1 m 1,-1 2,1 m 10,-1 -2,1 m 2,-2 -1,2 m 2,-2 2,2"
         style="fill:none;stroke:#000000"
         transform="translate(215,-66)"
         id="path4990" />
      <path
         inkscape:connector-curvature="0"
         d="m -7,-12 0,21 m 0,-21 9,0 3,1 1,1 1,2 0,2 -1,2 -1,1 -3,1 m -9,0 9,0 3,1 1,1 1,2 0,3 -1,2 -1,1 -3,1 -9,0"
         style="fill:none;stroke:#000000"
         transform="translate(251,-66)"
         id="path4992" />
      <path
         inkscape:connector-curvature="0"
         d="m -6,-12 0,21 m 1,-20 0,19 m 1,-20 0,21 m -5,-21 12,0 3,1 1,1 1,2 0,2 -1,2 -1,1 -3,1 m 3,-8 1,2 0,2 -1,2 m -3,-8 2,1 1,2 0,4 -1,2 -2,1 m -7,0 7,0 3,1 1,1 1,2 0,3 -1,2 -1,1 -3,1 -12,0 m 15,-9 1,2 0,3 -1,2 m -3,-9 2,1 1,2 0,5 -1,2 -2,1 m -11,-21 2,1 m -1,-1 1,2 m 3,-2 -1,2 m 2,-2 -2,1 m -2,19 -2,1 m 2,-2 -1,2 m 3,-2 1,2 m -1,-1 2,1"
         style="fill:none;stroke:#000000"
         transform="translate(272,-66)"
         id="path4994" />
      <path
         inkscape:connector-curvature="0"
         d="m 8,-7 -1,-2 -2,-2 -2,-1 -4,0 -2,1 -2,2 -1,2 -1,3 0,5 1,3 1,2 2,2 2,1 4,0 2,-1 2,-2 1,-2"
         style="fill:none;stroke:#000000"
         transform="translate(308,-66)"
         id="path4996" />
      <path
         inkscape:connector-curvature="0"
         d="m 6,-9 1,-3 0,6 -1,-3 -2,-2 -2,-1 -3,0 -3,1 -2,2 -1,2 -1,3 0,5 1,3 1,2 2,2 3,1 3,0 2,-1 2,-2 1,-2 m -12,-13 -1,2 -1,3 0,5 1,3 1,2 m 4,-18 -2,1 -2,3 -1,4 0,5 1,4 2,3 2,1"
         style="fill:none;stroke:#000000"
         transform="translate(330,-66)"
         id="path4998" />
      <path
         inkscape:connector-curvature="0"
         d="m -7,-12 0,21 m 0,-21 7,0 3,1 2,2 1,2 1,3 0,5 -1,3 -1,2 -2,2 -3,1 -7,0"
         style="fill:none;stroke:#000000"
         transform="translate(366,-66)"
         id="path5000" />
      <path
         inkscape:connector-curvature="0"
         d="m -6,-12 0,21 m 1,-20 0,19 m 1,-20 0,21 m -5,-21 10,0 3,1 2,2 1,2 1,3 0,5 -1,3 -1,2 -2,2 -3,1 -10,0 m 14,-18 1,2 1,3 0,5 -1,3 -1,2 m -4,-18 2,1 2,3 1,4 0,5 -1,4 -2,3 -2,1 m -9,-21 2,1 m -1,-1 1,2 m 3,-2 -1,2 m 2,-2 -2,1 m -2,19 -2,1 m 2,-2 -1,2 m 3,-2 1,2 m -1,-1 2,1"
         style="fill:none;stroke:#000000"
         transform="translate(387,-66)"
         id="path5002" />
      <path
         inkscape:connector-curvature="0"
         d="m -6,-12 0,21 m 0,-21 13,0 m -13,10 8,0 m -8,11 13,0"
         style="fill:none;stroke:#000000"
         transform="translate(423,-66)"
         id="path5004" />
      <path
         inkscape:connector-curvature="0"
         d="m -6,-12 0,21 m 1,-20 0,19 m 1,-20 0,21 m -5,-21 16,0 0,6 m -11,4 6,0 m 0,-4 0,8 m -11,7 16,0 0,-6 m -15,-15 2,1 m -1,-1 1,2 m 3,-2 -1,2 m 2,-2 -2,1 m 6,-1 5,1 m -3,-1 3,2 m -2,-2 2,3 m -1,-3 1,6 m -5,0 -1,4 1,4 m 0,-6 -2,2 2,2 m 0,-3 -4,1 4,1 m -8,9 -2,1 m 2,-2 -1,2 m 3,-2 1,2 m -1,-1 2,1 m 4,0 5,-1 m -3,1 3,-2 m -2,2 2,-3 m -1,3 1,-6"
         style="fill:none;stroke:#000000"
         transform="translate(443,-66)"
         id="path5006" />
      <path
         inkscape:connector-curvature="0"
         d="m -6,-12 0,21 m 0,-21 13,0 m -13,10 8,0"
         style="fill:none;stroke:#000000"
         transform="translate(478,-66)"
         id="path5008" />
      <path
         inkscape:connector-curvature="0"
         d="m -6,-12 0,21 m 1,-20 0,19 m 1,-20 0,21 m -5,-21 16,0 0,6 m -11,4 6,0 m 0,-4 0,8 m -11,7 8,0 m -7,-21 2,1 m -1,-1 1,2 m 3,-2 -1,2 m 2,-2 -2,1 m 6,-1 5,1 m -3,-1 3,2 m -2,-2 2,3 m -1,-3 1,6 m -5,0 -1,4 1,4 m 0,-6 -2,2 2,2 m 0,-3 -4,1 4,1 m -8,9 -2,1 m 2,-2 -1,2 m 3,-2 1,2 m -1,-1 2,1"
         style="fill:none;stroke:#000000"
         transform="translate(497,-66)"
         id="path5010" />
      <path
         inkscape:connector-curvature="0"
         d="m 8,-7 -1,-2 -2,-2 -2,-1 -4,0 -2,1 -2,2 -1,2 -1,3 0,5 1,3 1,2 2,2 2,1 4,0 2,-1 2,-2 1,-2 0,-3 m -5,0 5,0"
         style="fill:none;stroke:#000000"
         transform="translate(531,-66)"
         id="path5012" />
      <path
         inkscape:connector-curvature="0"
         d="m 6,-9 1,-3 0,6 -1,-3 -2,-2 -2,-1 -3,0 -3,1 -2,2 -1,2 -1,3 0,5 1,3 1,2 2,2 3,1 3,0 2,-1 2,0 1,1 0,-8 m -12,-10 -1,2 -1,3 0,5 1,3 1,2 m 4,-18 -2,1 -2,3 -1,4 0,5 1,4 2,3 2,1 m 7,-7 0,5 m -1,-6 0,6 -1,1 m -2,-7 8,0 m -7,0 2,1 m -1,-1 1,2 m 3,-2 -1,2 m 2,-2 -2,1"
         style="fill:none;stroke:#000000"
         transform="translate(553,-66)"
         id="path5014" />
      <path
         inkscape:connector-curvature="0"
         d="m -7,-12 0,21 m 14,-21 0,21 m -14,-11 14,0"
         style="fill:none;stroke:#000000"
         transform="translate(11,-21)"
         id="path5016" />
      <path
         inkscape:connector-curvature="0"
         d="m -7,-12 0,21 m 1,-20 0,19 m 1,-20 0,21 m 10,-21 0,21 m 1,-20 0,19 m 1,-20 0,21 m -17,-21 8,0 m 4,0 8,0 m -15,10 10,0 m -15,11 8,0 m 4,0 8,0 m -19,-21 2,1 m -1,-1 1,2 m 3,-2 -1,2 m 2,-2 -2,1 m 8,-1 2,1 m -1,-1 1,2 m 3,-2 -1,2 m 2,-2 -2,1 m -14,19 -2,1 m 2,-2 -1,2 m 3,-2 1,2 m -1,-1 2,1 m 8,-1 -2,1 m 2,-2 -1,2 m 3,-2 1,2 m -1,-1 2,1"
         style="fill:none;stroke:#000000"
         transform="translate(34,-21)"
         id="path5018" />
      <path
         inkscape:connector-curvature="0"
         d="m 0,-12 0,21"
         style="fill:none;stroke:#000000"
         transform="translate(65,-21)"
         id="path5020" />
      <path
         inkscape:connector-curvature="0"
         d="m -1,-12 0,21 m 1,-20 0,19 m 1,-20 0,21 m -5,-21 8,0 m -8,21 8,0 m -7,-21 2,1 m -1,-1 1,2 m 3,-2 -1,2 m 2,-2 -2,1 m -2,19 -2,1 m 2,-2 -1,2 m 3,-2 1,2 m -1,-1 2,1"
         style="fill:none;stroke:#000000"
         transform="translate(75,-21)"
         id="path5022" />
      <path
         inkscape:connector-curvature="0"
         d="m 4,-12 0,16 -1,3 -1,1 -2,1 -2,0 -2,-1 -1,-1 -1,-3 0,-2"
         style="fill:none;stroke:#000000"
         transform="translate(104,-21)"
         id="path5024" />
      <path
         inkscape:connector-curvature="0"
         d="m 1,-12 0,17 -1,3 -1,1 m 3,-20 0,16 -1,3 m 2,-20 0,17 -1,3 -3,1 -2,0 -2,-1 -1,-2 0,-2 1,-1 1,0 1,1 0,1 -1,1 -1,0 m 0,-2 0,1 1,0 0,-1 -1,0 m 3,-16 8,0 m -7,0 2,1 m -1,-1 1,2 m 3,-2 -1,2 m 2,-2 -2,1"
         style="fill:none;stroke:#000000"
         transform="translate(120,-21)"
         id="path5026" />
      <path
         inkscape:connector-curvature="0"
         d="m -7,-12 0,21 m 14,-21 -14,14 m 5,-5 9,12"
         style="fill:none;stroke:#000000"
         transform="translate(154,-21)"
         id="path5028" />
      <path
         inkscape:connector-curvature="0"
         d="m -7,-12 0,21 m 1,-20 0,19 m 1,-20 0,21 m 11,-20 -11,11 m 3,-2 7,11 m -6,-11 7,11 m -7,-13 8,13 m -17,-21 8,0 m 5,0 6,0 m -19,21 8,0 m 4,0 7,0 m -18,-21 2,1 m -1,-1 1,2 m 3,-2 -1,2 m 2,-2 -2,1 m 10,-1 1,1 m 2,-1 -2,1 m -13,19 -2,1 m 2,-2 -1,2 m 3,-2 1,2 m -1,-1 2,1 m 8,-2 -2,2 m 2,-2 3,2"
         style="fill:none;stroke:#000000"
         transform="translate(176,-21)"
         id="path5030" />
      <path
         inkscape:connector-curvature="0"
         d="m -6,-12 0,21 m 0,0 12,0"
         style="fill:none;stroke:#000000"
         transform="translate(211,-21)"
         id="path5032" />
      <path
         inkscape:connector-curvature="0"
         d="m -4,-12 0,21 m 1,-20 0,19 m 1,-20 0,21 m -5,-21 8,0 m -8,21 15,0 0,-6 m -14,-15 2,1 m -1,-1 1,2 m 3,-2 -1,2 m 2,-2 -2,1 m -2,19 -2,1 m 2,-2 -1,2 m 3,-2 1,2 m -1,-1 2,1 m 3,0 5,-1 m -3,1 3,-2 m -2,2 2,-3 m -1,3 1,-6"
         style="fill:none;stroke:#000000"
         transform="translate(227,-21)"
         id="path5034" />
      <path
         inkscape:connector-curvature="0"
         d="m -8,-12 0,21 m 0,-21 8,21 m 8,-21 -8,21 m 8,-21 0,21"
         style="fill:none;stroke:#000000"
         transform="translate(263,-21)"
         id="path5036" />
      <path
         inkscape:connector-curvature="0"
         d="m -8,-12 0,20 m 0,-20 7,21 m -6,-21 6,18 m -5,-18 6,18 m 6,-18 -7,21 m 7,-21 0,21 m 1,-20 0,19 m 1,-20 0,21 m -19,-21 5,0 m 12,0 5,0 m -22,21 6,0 m 8,0 8,0 m -21,-21 2,1 m 17,-1 -1,2 m 2,-2 -2,1 m -16,19 -2,1 m 2,-1 2,1 m 12,-1 -2,1 m 2,-2 -1,2 m 3,-2 1,2 m -1,-1 2,1"
         style="fill:none;stroke:#000000"
         transform="translate(288,-21)"
         id="path5038" />
      <path
         inkscape:connector-curvature="0"
         d="m -7,-12 0,21 m 0,-21 14,21 m 0,-21 0,21"
         style="fill:none;stroke:#000000"
         transform="translate(327,-21)"
         id="path5040" />
      <path
         inkscape:connector-curvature="0"
         d="m -7,-12 0,20 m 0,-20 14,21 m -13,-21 12,18 m -11,-18 12,18 m 0,-17 0,20 m -17,-21 5,0 m 9,0 6,0 m -20,21 6,0 m -5,-21 2,1 m 12,-1 2,1 m 2,-1 -2,1 m -14,19 -2,1 m 2,-1 2,1"
         style="fill:none;stroke:#000000"
         transform="translate(350,-21)"
         id="path5042" />
      <path
         inkscape:connector-curvature="0"
         d="m -2,-12 -2,1 -2,2 -1,2 -1,3 0,5 1,3 1,2 2,2 2,1 4,0 2,-1 2,-2 1,-2 1,-3 0,-5 -1,-3 -1,-2 -2,-2 -2,-1 -4,0"
         style="fill:none;stroke:#000000"
         transform="translate(388,-21)"
         id="path5044" />
      <path
         inkscape:connector-curvature="0"
         d="m -1,-12 -3,1 -2,2 -1,2 -1,4 0,3 1,4 1,2 2,2 3,1 2,0 3,-1 2,-2 1,-2 1,-4 0,-3 -1,-4 -1,-2 -2,-2 -3,-1 -2,0 m -4,3 -1,2 -1,3 0,5 1,3 1,2 m 10,0 1,-2 1,-3 0,-5 -1,-3 -1,-2 m -6,-3 -2,1 -2,3 -1,4 0,5 1,4 2,3 2,1 m 2,0 2,-1 2,-3 1,-4 0,-5 -1,-4 -2,-3 -2,-1"
         style="fill:none;stroke:#000000"
         transform="translate(410,-21)"
         id="path5046" />
      <path
         inkscape:connector-curvature="0"
         d="m -7,-12 0,21 m 0,-21 9,0 3,1 1,1 1,2 0,3 -1,2 -1,1 -3,1 -9,0"
         style="fill:none;stroke:#000000"
         transform="translate(447,-21)"
         id="path5048" />
      <path
         inkscape:connector-curvature="0"
         d="m -6,-12 0,21 m 1,-20 0,19 m 1,-20 0,21 m -5,-21 12,0 3,1 1,1 1,2 0,3 -1,2 -1,1 -3,1 -7,0 m 10,-9 1,2 0,3 -1,2 m -3,-9 2,1 1,2 0,5 -1,2 -2,1 m -12,10 8,0 m -7,-21 2,1 m -1,-1 1,2 m 3,-2 -1,2 m 2,-2 -2,1 m -2,19 -2,1 m 2,-2 -1,2 m 3,-2 1,2 m -1,-1 2,1"
         style="fill:none;stroke:#000000"
         transform="translate(468,-21)"
         id="path5050" />
      <path
         inkscape:connector-curvature="0"
         d="m -2,-12 -2,1 -2,2 -1,2 -1,3 0,5 1,3 1,2 2,2 2,1 4,0 2,-1 2,-2 1,-2 1,-3 0,-5 -1,-3 -1,-2 -2,-2 -2,-1 -4,0 m 3,17 6,6"
         style="fill:none;stroke:#000000"
         transform="translate(505,-21)"
         id="path5052" />
      <path
         inkscape:connector-curvature="0"
         d="m -1,-12 -3,1 -2,2 -1,2 -1,4 0,3 1,4 1,2 2,2 3,1 2,0 3,-1 2,-2 1,-2 1,-4 0,-3 -1,-4 -1,-2 -2,-2 -3,-1 -2,0 m -4,3 -1,2 -1,3 0,5 1,3 1,2 m 10,0 1,-2 1,-3 0,-5 -1,-3 -1,-2 m -6,-3 -2,1 -2,3 -1,4 0,5 1,4 2,3 2,1 m 2,0 2,-1 2,-3 1,-4 0,-5 -1,-4 -2,-3 -2,-1 m -5,18 1,-2 2,-1 1,0 2,1 1,2 1,6 1,2 2,0 1,-2 0,-2 m -4,0 1,2 1,1 1,0 m -4,-7 2,5 1,1 1,0 1,-1"
         style="fill:none;stroke:#000000"
         transform="translate(527,-21)"
         id="path5054" />
      <path
         inkscape:connector-curvature="0"
         d="m -7,-12 0,21 m 0,-21 9,0 3,1 1,1 1,2 0,2 -1,2 -1,1 -3,1 -9,0 m 7,0 7,11"
         style="fill:none;stroke:#000000"
         transform="translate(11,24)"
         id="path5056" />
      <path
         inkscape:connector-curvature="0"
         d="m -6,-12 0,21 m 1,-20 0,19 m 1,-20 0,21 m -5,-21 12,0 3,1 1,1 1,2 0,2 -1,2 -1,1 -3,1 -7,0 m 10,-8 1,2 0,2 -1,2 m -3,-8 2,1 1,2 0,4 -1,2 -2,1 m -3,0 2,1 1,2 2,6 1,2 2,0 1,-2 0,-2 m -4,0 1,2 1,1 1,0 m -6,-9 1,1 3,6 1,1 1,0 1,-1 m -18,3 8,0 m -7,-21 2,1 m -1,-1 1,2 m 3,-2 -1,2 m 2,-2 -2,1 m -2,19 -2,1 m 2,-2 -1,2 m 3,-2 1,2 m -1,-1 2,1"
         style="fill:none;stroke:#000000"
         transform="translate(32,24)"
         id="path5058" />
      <path
         inkscape:connector-curvature="0"
         d="m 7,-9 -2,-2 -3,-1 -4,0 -3,1 -2,2 0,2 1,2 1,1 2,1 6,2 2,1 1,1 1,2 0,3 -2,2 -3,1 -4,0 -3,-1 -2,-2"
         style="fill:none;stroke:#000000"
         transform="translate(68,24)"
         id="path5060" />
      <path
         inkscape:connector-curvature="0"
         d="m 6,-9 1,-3 0,6 -1,-3 -2,-2 -3,-1 -3,0 -3,1 -2,2 0,3 1,2 3,2 6,2 2,1 1,2 0,3 -1,2 m -11,-14 1,2 2,1 6,2 2,1 1,2 m -11,-13 -1,2 0,2 1,2 2,1 6,2 3,2 1,2 0,3 -1,2 -1,1 -3,1 -3,0 -3,-1 -2,-2 -1,-3 0,6 1,-3"
         style="fill:none;stroke:#000000"
         transform="translate(88,24)"
         id="path5062" />
      <path
         inkscape:connector-curvature="0"
         d="m 0,-12 0,21 m -7,-21 14,0"
         style="fill:none;stroke:#000000"
         transform="translate(121,24)"
         id="path5064" />
      <path
         inkscape:connector-curvature="0"
         d="m -8,-12 0,6 m 7,-6 0,21 m 1,-20 0,19 m 1,-20 0,21 m 7,-21 0,6 m -16,-6 16,0 m -12,21 8,0 m -11,-21 -1,6 m 2,-6 -2,3 m 3,-3 -3,2 m 5,-2 -5,1 m 11,-1 5,1 m -3,-1 3,2 m -2,-2 2,3 m -1,-3 1,6 m -9,14 -2,1 m 2,-2 -1,2 m 3,-2 1,2 m -1,-1 2,1"
         style="fill:none;stroke:#000000"
         transform="translate(139,24)"
         id="path5066" />
      <path
         inkscape:connector-curvature="0"
         d="m -7,-12 0,15 1,3 2,2 3,1 2,0 3,-1 2,-2 1,-3 0,-15"
         style="fill:none;stroke:#000000"
         transform="translate(175,24)"
         id="path5068" />
      <path
         inkscape:connector-curvature="0"
         d="m -7,-12 0,15 1,3 2,2 3,1 2,0 3,-1 2,-2 1,-3 0,-14 m -13,0 0,15 1,2 m 0,-18 0,16 1,3 1,1 2,1 m -9,-21 8,0 m 6,0 6,0 m -19,0 2,1 m -1,-1 1,2 m 3,-2 -1,2 m 2,-2 -2,1 m 10,-1 2,1 m 2,-1 -2,1"
         style="fill:none;stroke:#000000"
         transform="translate(198,24)"
         id="path5070" />
      <path
         inkscape:connector-curvature="0"
         d="m -8,-12 8,21 m 8,-21 -8,21"
         style="fill:none;stroke:#000000"
         transform="translate(234,24)"
         id="path5072" />
      <path
         inkscape:connector-curvature="0"
         d="m -7,-12 7,21 m -6,-21 6,18 0,3 m -5,-21 6,18 m 6,-17 -7,20 m -9,-21 7,0 m 5,0 6,0 m -17,0 2,2 m 2,-2 -1,2 m 2,-2 -2,1 m 10,-1 2,1 m 1,-1 -1,1"
         style="fill:none;stroke:#000000"
         transform="translate(253,24)"
         id="path5074" />
      <path
         inkscape:connector-curvature="0"
         d="m -10,-12 5,21 m 5,-21 -5,21 m 5,-21 5,21 m 5,-21 -5,21"
         style="fill:none;stroke:#000000"
         transform="translate(290,24)"
         id="path5076" />
      <path
         inkscape:connector-curvature="0"
         d="m -8,-12 4,21 m -3,-21 3,16 0,5 m -2,-21 3,16 m 3,-16 -3,16 -1,5 m 4,-21 4,21 m -3,-21 3,16 0,5 m -2,-21 3,16 m 3,-15 -3,15 -1,5 m -15,-21 8,0 m 3,0 2,0 m 3,0 6,0 m -21,0 3,1 m -2,-1 2,2 m 2,-2 -1,2 m 2,-2 -2,1 m 12,-1 2,1 m 2,-1 -2,1"
         style="fill:none;stroke:#000000"
         transform="translate(314,24)"
         id="path5078" />
      <path
         inkscape:connector-curvature="0"
         d="m -7,-12 14,21 m 0,-21 -14,21"
         style="fill:none;stroke:#000000"
         transform="translate(351,24)"
         id="path5080" />
      <path
         inkscape:connector-curvature="0"
         d="m -7,-12 12,21 m -11,-21 12,21 m -11,-21 12,21 m -1,-20 -12,19 m -3,-20 7,0 m 5,0 6,0 m -18,21 6,0 m 5,0 7,0 m -17,-21 3,2 m 1,-2 -1,2 m 2,-2 -2,1 m 9,-1 2,1 m 2,-1 -2,1 m -12,19 -2,1 m 2,-1 2,1 m 9,-1 -2,1 m 2,-2 -1,2 m 1,-2 3,2"
         style="fill:none;stroke:#000000"
         transform="translate(371,24)"
         id="path5082" />
      <path
         inkscape:connector-curvature="0"
         d="m -8,-12 8,10 0,11 m 8,-21 -8,10"
         style="fill:none;stroke:#000000"
         transform="translate(405,24)"
         id="path5084" />
      <path
         inkscape:connector-curvature="0"
         d="m -8,-12 7,11 0,10 m -6,-21 7,11 0,9 m -6,-20 7,11 0,10 m 6,-20 -6,10 m -11,-11 7,0 m 7,0 6,0 m -14,21 8,0 m -13,-21 2,1 m 3,-1 -2,1 m 11,-1 2,1 m 2,-1 -2,1 m -8,19 -2,1 m 2,-2 -1,2 m 3,-2 1,2 m -1,-1 2,1"
         style="fill:none;stroke:#000000"
         transform="translate(425,24)"
         id="path5086" />
      <path
         inkscape:connector-curvature="0"
         d="m 7,-12 -14,21 m 0,-21 14,0 m -14,21 14,0"
         style="fill:none;stroke:#000000"
         transform="translate(461,24)"
         id="path5088" />
      <path
         inkscape:connector-curvature="0"
         d="m 7,-12 -14,0 0,6 m 12,-6 -12,21 m 13,-21 -12,21 m 13,-21 -12,21 m -2,0 14,0 0,-6 m -13,-15 -1,6 m 2,-6 -2,3 m 3,-3 -3,2 m 5,-2 -5,1 m 9,20 5,-1 m -3,1 3,-2 m -2,2 2,-3 m -1,3 1,-6"
         style="fill:none;stroke:#000000"
         transform="translate(481,24)"
         id="path5090" />
      <path
         inkscape:connector-curvature="0"
         d="m -3,-16 0,32 m 1,-32 0,32 m -1,-32 7,0 m -7,32 7,0"
         style="fill:none;stroke:#000000"
         transform="translate(513,24)"
         id="path5092" />
      <path
         inkscape:connector-curvature="0"
         d="m -9,-11 1,4 1,2 2,2 3,1 4,0 3,-1 2,-2 1,-2 1,-4 m -18,0 1,3 1,2 2,2 3,1 4,0 3,-1 2,-2 1,-2 1,-3 m -11,8 -2,1 -1,1 -1,2 0,3 1,2 2,2 2,1 2,0 2,-1 2,-2 1,-2 0,-3 -1,-2 -1,-1 -2,-1 m -4,1 -2,1 -1,2 0,3 1,3 m 8,0 1,-3 0,-3 -1,-2 -2,-1"
         style="fill:none;stroke:#000000"
         transform="translate(532,24)"
         id="path5094" />
      <path
         inkscape:connector-curvature="0"
         d="m -7,-12 14,24"
         style="fill:none;stroke:#000000"
         transform="translate(7,69)"
         id="path5096" />
      <path
         inkscape:connector-curvature="0"
         d="m -7,-12 14,24"
         style="fill:none;stroke:#000000"
         transform="translate(21,69)"
         id="path5098" />
      <path
         inkscape:connector-curvature="0"
         d="m 2,-16 0,32 m 1,-32 0,32 m -7,-32 7,0 m -7,32 7,0"
         style="fill:none;stroke:#000000"
         transform="translate(50,69)"
         id="path5100" />
      <path
         inkscape:connector-curvature="0"
         d="m -5,-8 0,12 m 1,-11 0,10 m 8,-10 0,10 m 1,-11 0,12 m -14,-15 2,2 2,1 3,1 4,0 3,-1 2,-1 2,-2 m -18,18 2,-2 2,-1 3,-1 4,0 3,1 2,1 2,2"
         style="fill:none;stroke:#000000"
         transform="translate(69,69)"
         id="path5102" />
      <path
         inkscape:connector-curvature="0"
         d="m 0,-14 -8,14 m 8,-14 8,14"
         style="fill:none;stroke:#000000"
         transform="translate(104,69)"
         id="path5104" />
      <path
         inkscape:connector-curvature="0"
         d="m 9,-9 -15,0 -2,1 -1,2 0,2 1,2 2,1 2,0 2,-1 1,-2 0,-2 -1,-2 11,0 m -18,3 1,2 1,1 2,1 m 4,-4 -1,-2 -1,-1 -2,-1 m -4,15 15,0 2,-1 1,-2 0,-2 -1,-2 -2,-1 -2,0 -2,1 -1,2 0,2 1,2 -11,0 m 18,-3 -1,-2 -1,-1 -2,-1 m -4,4 1,2 1,1 2,1"
         style="fill:none;stroke:#000000"
         transform="translate(124,69)"
         id="path5106" />
      <path
         inkscape:connector-curvature="0"
         d="m -9,16 18,0"
         style="fill:none;stroke:#000000"
         transform="translate(160,69)"
         id="path5108" />
      <path
         inkscape:connector-curvature="0"
         d="m -3,3 -2,-1 -1,0 -2,1 -1,2 0,1 1,2 2,1 1,0 2,-1 1,-2 0,-1 -1,-2 -5,-5 -1,-2 0,-3 1,-2 2,-1 3,-1 4,0 4,1 2,2 1,2 0,3 -1,3 -3,3 -1,2 0,2 1,2 2,0 1,-1 1,-2 m -13,-5 -2,-3 -1,-2 0,-3 1,-2 1,-1 m 7,-1 3,1 2,2 1,2 0,3 -1,3 -2,3"
         style="fill:none;stroke:#000000"
         transform="translate(181,69)"
         id="path5110" />
      <path
         inkscape:connector-curvature="0"
         d="m 1,-7 -2,2 0,2 1,1 1,-1 -1,-1 -1,1"
         style="fill:none;stroke:#000000"
         transform="translate(211,69)"
         id="path5112" />
      <path
         inkscape:connector-curvature="0"
         d="m -10,-7 3,-3 2,3 0,11 m -3,-13 2,3 0,10 m 1,-11 3,-3 2,3 0,10 m -3,-12 2,3 0,9 m 1,-10 3,-3 2,3 0,16 m -3,-18 2,3 0,15 m 1,-16 3,-3 1,2 1,3 0,3 -1,3 -1,2 -2,2 -3,2 -5,2 m 9,-18 1,1 1,3 0,3 -1,3 -1,2 -2,2 -3,2 -4,2"
         style="fill:none;stroke:#000000"
         transform="translate(226,69)"
         id="path5114" />
      <path
         inkscape:connector-curvature="0"
         d="m 6,-5 0,14 m 0,-11 -2,-2 -2,-1 -3,0 -2,1 -2,2 -1,3 0,2 1,3 2,2 2,1 3,0 2,-1 2,-2"
         style="fill:none;stroke:#000000"
         transform="translate(263,69)"
         id="path5116" />
      <path
         inkscape:connector-curvature="0"
         d="m 5,-5 -2,7 0,4 1,2 1,1 2,0 2,-2 1,-2 m -4,-10 -2,7 0,6 m 1,-13 2,0 -2,7 -1,4 m -1,-4 0,-3 -1,-3 -2,-1 -2,0 -3,1 -2,3 -1,3 0,2 1,3 1,1 2,1 2,0 2,-1 1,-1 1,-2 1,-3 m -7,-6 -2,3 -1,3 0,3 1,2 m 4,-12 -2,2 -1,2 -1,3 0,3 1,3 1,1"
         style="fill:none;stroke:#000000"
         transform="translate(284,69)"
         id="path5118" />
      <path
         inkscape:connector-curvature="0"
         d="m -6,-12 0,21 m 0,-11 2,-2 2,-1 3,0 2,1 2,2 1,3 0,2 -1,3 -2,2 -2,1 -3,0 -2,-1 -2,-2"
         style="fill:none;stroke:#000000"
         transform="translate(320,69)"
         id="path5120" />
      <path
         inkscape:connector-curvature="0"
         d="m -2,-12 -2,7 -1,6 0,4 1,2 1,1 2,1 2,0 3,-1 2,-3 1,-3 0,-2 -1,-3 -1,-1 -2,-1 -2,0 -2,1 -1,1 -1,2 -1,3 m 3,-14 -2,7 -1,4 0,6 1,3 m 7,-1 1,-2 1,-3 0,-3 -1,-2 m -10,-9 5,0 -2,7 -2,7 m 5,7 2,-2 1,-2 1,-3 0,-3 -1,-3 -1,-1 m -7,-7 3,1 m -2,-1 1,2"
         style="fill:none;stroke:#000000"
         transform="translate(338,69)"
         id="path5122" />
      <path
         inkscape:connector-curvature="0"
         d="m 6,-2 -2,-2 -2,-1 -3,0 -2,1 -2,2 -1,3 0,2 1,3 2,2 2,1 3,0 2,-1 2,-2"
         style="fill:none;stroke:#000000"
         transform="translate(372,69)"
         id="path5124" />
      <path
         inkscape:connector-curvature="0"
         d="m 5,-1 0,-1 -1,0 0,2 2,0 0,-2 -1,-2 -2,-1 -3,0 -3,1 -2,3 -1,3 0,2 1,3 1,1 2,1 2,0 3,-1 2,-3 m -8,-8 -1,2 -1,3 0,3 1,2 m 4,-12 -2,2 -1,2 -1,3 0,3 1,3 1,1"
         style="fill:none;stroke:#000000"
         transform="translate(390,69)"
         id="path5126" />
      <path
         inkscape:connector-curvature="0"
         d="m 6,-12 0,21 m 0,-11 -2,-2 -2,-1 -3,0 -2,1 -2,2 -1,3 0,2 1,3 2,2 2,1 3,0 2,-1 2,-2"
         style="fill:none;stroke:#000000"
         transform="translate(423,69)"
         id="path5128" />
      <path
         inkscape:connector-curvature="0"
         d="m 7,-12 -3,11 -1,4 0,3 1,2 1,1 2,0 2,-2 1,-2 m -2,-17 -3,11 -1,4 0,5 m 0,-20 5,0 -4,14 -1,4 m -1,-4 0,-3 -1,-3 -2,-1 -2,0 -3,1 -2,3 -1,3 0,2 1,3 1,1 2,1 2,0 2,-1 1,-1 1,-2 1,-3 m -8,-5 -1,2 -1,3 0,3 1,2 m 4,-12 -2,2 -1,2 -1,3 0,3 1,3 1,1 m 9,-21 3,1 m -2,-1 1,2"
         style="fill:none;stroke:#000000"
         transform="translate(444,69)"
         id="path5130" />
      <path
         inkscape:connector-curvature="0"
         d="m -6,1 12,0 0,-2 -1,-2 -1,-1 -2,-1 -3,0 -2,1 -2,2 -1,3 0,2 1,3 2,2 2,1 3,0 2,-1 2,-2"
         style="fill:none;stroke:#000000"
         transform="translate(479,69)"
         id="path5132" />
      <path
         inkscape:connector-curvature="0"
         d="m -5,4 4,-1 3,-1 3,-2 1,-2 -1,-2 -2,-1 -3,0 -3,1 -2,3 -1,3 0,2 1,3 1,1 2,1 2,0 3,-1 2,-2 m -8,-9 -1,2 -1,3 0,3 1,2 m 4,-12 -2,2 -1,2 -1,3 0,3 1,3 1,1"
         style="fill:none;stroke:#000000"
         transform="translate(497,69)"
         id="path5134" />
      <path
         inkscape:connector-curvature="0"
         d="m 5,-12 -2,0 -2,1 -1,3 0,17 m -3,-14 7,0"
         style="fill:none;stroke:#000000"
         transform="translate(5,114)"
         id="path5136" />
      <path
         inkscape:connector-curvature="0"
         d="m 8,-10 0,-1 -1,0 0,2 2,0 0,-2 -1,-1 -2,0 -2,1 -2,2 -1,2 -1,3 -1,4 -2,9 -1,3 -1,2 -2,2 m 9,-24 -1,3 -1,5 -2,9 -1,3 m 9,-24 -2,2 -1,2 -1,3 -1,5 -2,8 -1,3 -1,2 -2,2 -2,1 -2,0 -1,-1 0,-2 2,0 0,2 -1,0 0,-1 m 5,-19 11,0"
         style="fill:none;stroke:#000000"
         transform="translate(20,114)"
         id="path5138" />
      <path
         inkscape:connector-curvature="0"
         d="m 6,-5 0,16 -1,3 -1,1 -2,1 -3,0 -2,-1 m 9,-17 -2,-2 -2,-1 -3,0 -2,1 -2,2 -1,3 0,2 1,3 2,2 2,1 3,0 2,-1 2,-2"
         style="fill:none;stroke:#000000"
         transform="translate(52,114)"
         id="path5140" />
      <path
         inkscape:connector-curvature="0"
         d="m 6,-5 -4,14 -1,3 -2,3 -2,1 m 10,-21 -4,14 -2,4 m 5,-18 2,0 -4,14 -2,4 -2,2 -3,1 -3,0 -2,-1 -1,-1 0,-2 2,0 0,2 -1,0 0,-1 m 12,-11 0,-3 -1,-3 -2,-1 -2,0 -3,1 -2,3 -1,3 0,2 1,3 1,1 2,1 2,0 2,-1 1,-1 1,-2 1,-3 m -8,-5 -1,2 -1,3 0,3 1,2 m 4,-12 -2,2 -1,2 -1,3 0,3 1,3 1,1"
         style="fill:none;stroke:#000000"
         transform="translate(72,114)"
         id="path5142" />
      <path
         inkscape:connector-curvature="0"
         d="m -5,-12 0,21 m 0,-10 3,-3 2,-1 3,0 2,1 1,3 0,10"
         style="fill:none;stroke:#000000"
         transform="translate(107,114)"
         id="path5144" />
      <path
         inkscape:connector-curvature="0"
         d="m -3,-12 -6,21 2,0 m 5,-21 -6,21 m 2,-21 5,0 -6,21 m 2,-7 2,-4 2,-2 2,-1 2,0 2,1 1,2 0,3 -2,5 m 1,-10 0,4 -1,4 0,4 m 1,-10 -2,5 0,3 1,2 1,1 2,0 2,-2 1,-2 m -15,-17 3,1 m -2,-1 1,2"
         style="fill:none;stroke:#000000"
         transform="translate(128,114)"
         id="path5146" />
      <path
         inkscape:connector-curvature="0"
         d="m -1,-12 1,1 1,-1 -1,-1 -1,1 m 1,7 0,14"
         style="fill:none;stroke:#000000"
         transform="translate(158,114)"
         id="path5148" />
      <path
         inkscape:connector-curvature="0"
         d="m 1,-12 0,2 2,0 0,-2 -2,0 m 1,0 0,2 m -1,-1 2,0 m -9,10 1,-2 2,-2 2,0 1,1 1,2 0,3 -2,5 m 1,-10 0,4 -1,4 0,4 m 1,-10 -2,5 0,3 1,2 1,1 2,0 2,-2 1,-2"
         style="fill:none;stroke:#000000"
         transform="translate(169,114)"
         id="path5150" />
      <path
         inkscape:connector-curvature="0"
         d="m 0,-12 1,1 1,-1 -1,-1 -1,1 m 1,7 0,17 -1,3 -2,1 -2,0"
         style="fill:none;stroke:#000000"
         transform="translate(195,114)"
         id="path5152" />
      <path
         inkscape:connector-curvature="0"
         d="m 3,-12 0,2 2,0 0,-2 -2,0 m 1,0 0,2 m -1,-1 2,0 m -10,10 1,-2 2,-2 2,0 1,1 1,2 0,3 -2,7 -1,3 -1,2 -2,2 -2,1 -2,0 -1,-1 0,-2 2,0 0,2 -1,0 0,-1 m 9,-18 0,5 -2,7 -1,3 -1,2 m 4,-15 -1,4 -2,7 -1,3 -1,2 -2,2"
         style="fill:none;stroke:#000000"
         transform="translate(207,114)"
         id="path5154" />
      <path
         inkscape:connector-curvature="0"
         d="m -5,-12 0,21 m 10,-14 -10,10 m 4,-4 7,8"
         style="fill:none;stroke:#000000"
         transform="translate(237,114)"
         id="path5156" />
      <path
         inkscape:connector-curvature="0"
         d="m -3,-12 -6,21 2,0 m 5,-21 -6,21 m 2,-21 5,0 -6,21 m 14,-12 0,-1 -1,0 0,2 2,0 0,-2 -1,-1 -2,0 -2,1 -4,4 -2,1 m -2,0 2,0 2,1 1,1 2,4 1,1 2,0 m -6,-5 2,4 1,1 m -5,-7 1,1 2,6 1,1 2,0 2,-1 2,-3 m -12,-17 3,1 m -2,-1 1,2"
         style="fill:none;stroke:#000000"
         transform="translate(256,114)"
         id="path5158" />
      <path
         inkscape:connector-curvature="0"
         d="m 0,-12 0,21"
         style="fill:none;stroke:#000000"
         transform="translate(286,114)"
         id="path5160" />
      <path
         inkscape:connector-curvature="0"
         d="m 2,-12 -3,11 -1,4 0,3 1,2 1,1 2,0 2,-2 1,-2 m -2,-17 -3,11 -1,4 0,5 m 0,-20 5,0 -4,14 -1,4 m 1,-18 3,1 m -2,-1 1,2"
         style="fill:none;stroke:#000000"
         transform="translate(296,114)"
         id="path5162" />
      <path
         inkscape:connector-curvature="0"
         d="m -11,-5 0,14 m 0,-10 3,-3 2,-1 3,0 2,1 1,3 0,10 m 0,-10 3,-3 2,-1 3,0 2,1 1,3 0,10"
         style="fill:none;stroke:#000000"
         transform="translate(332,114)"
         id="path5164" />
      <path
         inkscape:connector-curvature="0"
         d="m -17,-1 1,-2 2,-2 2,0 1,1 1,2 0,3 -2,8 m 1,-13 0,5 -2,8 m 2,-11 -1,4 -2,7 2,0 m 2,-8 2,-3 2,-2 2,-1 2,0 2,1 1,2 0,3 -2,8 m 1,-13 0,5 -2,8 m 2,-11 -1,4 -2,7 2,0 m 2,-8 2,-3 2,-2 2,-1 2,0 2,1 1,2 0,3 -2,5 m 1,-10 0,4 -1,4 0,4 m 1,-10 -2,5 0,3 1,2 1,1 2,0 2,-2 1,-2"
         style="fill:none;stroke:#000000"
         transform="translate(365,114)"
         id="path5166" />
      <path
         inkscape:connector-curvature="0"
         d="m -5,-5 0,14 m 0,-10 3,-3 2,-1 3,0 2,1 1,3 0,10"
         style="fill:none;stroke:#000000"
         transform="translate(406,114)"
         id="path5168" />
      <path
         inkscape:connector-curvature="0"
         d="m -11,-1 1,-2 2,-2 2,0 1,1 1,2 0,3 -2,8 m 1,-13 0,5 -2,8 m 2,-11 -1,4 -2,7 2,0 m 2,-8 2,-3 2,-2 2,-1 2,0 2,1 1,2 0,3 -2,5 m 1,-10 0,4 -1,4 0,4 m 1,-10 -2,5 0,3 1,2 1,1 2,0 2,-2 1,-2"
         style="fill:none;stroke:#000000"
         transform="translate(428,114)"
         id="path5170" />
      <path
         inkscape:connector-curvature="0"
         d="m -1,-5 -2,1 -2,2 -1,3 0,2 1,3 2,2 2,1 3,0 2,-1 2,-2 1,-3 0,-2 -1,-3 -2,-2 -2,-1 -3,0"
         style="fill:none;stroke:#000000"
         transform="translate(464,114)"
         id="path5172" />
      <path
         inkscape:connector-curvature="0"
         d="m -1,-5 -3,1 -2,3 -1,3 0,2 1,3 1,1 3,1 3,0 3,-1 2,-3 1,-3 0,-2 -1,-3 -1,-1 -3,-1 -3,0 m -3,2 -1,2 -1,3 0,3 1,2 m 9,0 1,-2 1,-3 0,-3 -1,-2 m -6,-2 -2,2 -1,2 -1,3 0,3 1,3 2,1 m 3,0 2,-2 1,-2 1,-3 0,-3 -1,-3 -2,-1"
         style="fill:none;stroke:#000000"
         transform="translate(484,114)"
         id="path5174" />
      <path
         inkscape:connector-curvature="0"
         d="m -6,-5 0,21 m 0,-18 2,-2 2,-1 3,0 2,1 2,2 1,3 0,2 -1,3 -2,2 -2,1 -3,0 -2,-1 -2,-2"
         style="fill:none;stroke:#000000"
         transform="translate(10,159)"
         id="path5176" />
      <path
         inkscape:connector-curvature="0"
         d="m -10,-1 1,-2 2,-2 2,0 1,1 1,2 0,3 -1,4 -3,11 m 3,-20 0,5 -1,4 -3,11 m 4,-18 -1,4 -4,14 m 6,-14 1,-3 1,-2 1,-1 2,-1 2,0 2,1 1,1 1,3 0,2 -1,3 -2,3 -3,1 -2,0 -2,-1 -1,-3 0,-3 m 9,-5 1,2 0,3 -1,3 -1,2 m -1,-12 1,1 1,3 0,3 -1,3 -1,2 -2,2 m -14,7 8,0 m -4,-1 -3,1 m 3,-2 -2,2 m 3,-2 1,2 m -2,-1 3,1"
         style="fill:none;stroke:#000000"
         transform="translate(30,159)"
         id="path5178" />
      <path
         inkscape:connector-curvature="0"
         d="m 6,-5 0,21 m 0,-18 -2,-2 -2,-1 -3,0 -2,1 -2,2 -1,3 0,2 1,3 2,2 2,1 3,0 2,-1 2,-2"
         style="fill:none;stroke:#000000"
         transform="translate(65,159)"
         id="path5180" />
      <path
         inkscape:connector-curvature="0"
         d="m 5,-5 -6,21 m 7,-21 -6,21 m 5,-21 2,0 -6,21 m 2,-14 0,-3 -1,-3 -2,-1 -2,0 -3,1 -2,3 -1,3 0,2 1,3 1,1 2,1 2,0 2,-1 1,-1 1,-2 1,-3 m -8,-5 -1,2 -1,3 0,3 1,2 m 4,-12 -2,2 -1,2 -1,3 0,3 1,3 1,1 m 0,7 8,0 m -4,-1 -3,1 m 3,-2 -2,2 m 3,-2 1,2 m -2,-1 3,1"
         style="fill:none;stroke:#000000"
         transform="translate(86,159)"
         id="path5182" />
      <path
         inkscape:connector-curvature="0"
         d="m -3,-5 0,14 m 0,-8 1,-3 2,-2 2,-1 3,0"
         style="fill:none;stroke:#000000"
         transform="translate(118,159)"
         id="path5184" />
      <path
         inkscape:connector-curvature="0"
         d="m -8,-1 1,-2 2,-2 2,0 1,1 1,2 0,4 -2,7 m 1,-13 0,6 -2,7 m 2,-11 -1,4 -2,7 2,0 m 10,-12 0,-1 -1,0 0,2 2,0 0,-2 -1,-1 -2,0 -2,1 -2,2 -2,4"
         style="fill:none;stroke:#000000"
         transform="translate(133,159)"
         id="path5186" />
      <path
         inkscape:connector-curvature="0"
         d="m 6,-2 -1,-2 -3,-1 -3,0 -3,1 -1,2 1,2 2,1 5,1 2,1 1,2 0,1 -1,2 -3,1 -3,0 -3,-1 -1,-2"
         style="fill:none;stroke:#000000"
         transform="translate(165,159)"
         id="path5188" />
      <path
         inkscape:connector-curvature="0"
         d="m 6,-2 0,-1 -1,0 0,2 2,0 0,-2 -1,-1 -3,-1 -3,0 -3,1 -1,1 0,2 1,2 2,1 3,1 2,1 1,2 m -8,-10 -1,3 m 1,1 2,1 3,1 2,1 m 1,1 -1,4 m -8,-11 1,2 2,1 3,1 2,1 1,2 0,2 -1,2 -3,1 -3,0 -3,-1 -1,-1 0,-2 2,0 0,2 -1,0 0,-1"
         style="fill:none;stroke:#000000"
         transform="translate(182,159)"
         id="path5190" />
      <path
         inkscape:connector-curvature="0"
         d="m 0,-12 0,17 1,3 2,1 2,0 m -8,-14 7,0"
         style="fill:none;stroke:#000000"
         transform="translate(211,159)"
         id="path5192" />
      <path
         inkscape:connector-curvature="0"
         d="m 2,-12 -3,11 -1,4 0,3 1,2 1,1 2,0 2,-2 1,-2 m -2,-17 -3,11 -1,4 0,5 m 3,-20 2,0 -4,14 -1,4 m -3,-11 10,0"
         style="fill:none;stroke:#000000"
         transform="translate(225,159)"
         id="path5194" />
      <path
         inkscape:connector-curvature="0"
         d="m -5,-5 0,10 1,3 2,1 3,0 2,-1 3,-3 m 0,-10 0,14"
         style="fill:none;stroke:#000000"
         transform="translate(256,159)"
         id="path5196" />
      <path
         inkscape:connector-curvature="0"
         d="m -11,-1 1,-2 2,-2 2,0 1,1 1,2 0,3 -2,5 m 1,-10 0,4 -1,4 0,4 m 1,-10 -2,5 0,3 1,2 2,1 2,0 2,-1 2,-2 2,-3 m 2,-8 -2,8 0,3 1,2 1,1 2,0 2,-2 1,-2 m -4,-10 -2,8 0,5 m 1,-13 2,0 -2,7 -1,4"
         style="fill:none;stroke:#000000"
         transform="translate(278,159)"
         id="path5198" />
      <path
         inkscape:connector-curvature="0"
         d="m -6,-5 6,14 m 6,-14 -6,14"
         style="fill:none;stroke:#000000"
         transform="translate(313,159)"
         id="path5200" />
      <path
         inkscape:connector-curvature="0"
         d="m -9,-1 1,-2 2,-2 2,0 1,1 1,2 0,3 -2,5 m 1,-10 0,4 -1,4 0,4 m 1,-10 -2,5 0,3 1,2 2,1 2,0 2,-1 2,-2 2,-3 1,-4 0,-4 -1,0 0,1 1,2"
         style="fill:none;stroke:#000000"
         transform="translate(331,159)"
         id="path5202" />
      <path
         inkscape:connector-curvature="0"
         d="m -8,-5 4,14 m 4,-14 -4,14 m 4,-14 4,14 m 4,-14 -4,14"
         style="fill:none;stroke:#000000"
         transform="translate(367,159)"
         id="path5204" />
      <path
         inkscape:connector-curvature="0"
         d="m -14,-1 1,-2 2,-2 2,0 1,1 1,2 0,3 -2,5 m 1,-10 0,4 -1,4 0,4 m 1,-10 -2,5 0,3 1,2 2,1 2,0 2,-1 2,-2 1,-3 m 2,-8 -2,8 0,3 1,2 2,1 2,0 2,-1 2,-2 2,-3 1,-4 0,-4 -1,0 0,1 1,2 m -9,-3 -2,8 0,5 m 1,-13 2,0 -2,7 -1,4"
         style="fill:none;stroke:#000000"
         transform="translate(393,159)"
         id="path5206" />
      <path
         inkscape:connector-curvature="0"
         d="m -5,-5 11,14 m 0,-14 -11,14"
         style="fill:none;stroke:#000000"
         transform="translate(431,159)"
         id="path5208" />
      <path
         inkscape:connector-curvature="0"
         d="m -8,-1 2,-3 2,-1 2,0 2,1 1,2 0,2 m -3,-5 1,1 0,4 -1,4 -1,2 -2,2 -2,1 -2,0 -1,-1 0,-2 2,0 0,2 -1,0 0,-1 m 9,-10 0,3 -1,4 0,3 m 9,-10 0,-1 -1,0 0,2 2,0 0,-2 -1,-1 -2,0 -2,1 -2,2 -1,2 -1,4 0,4 1,1 m -3,-5 0,2 1,2 2,1 2,0 2,-1 2,-3"
         style="fill:none;stroke:#000000"
         transform="translate(451,159)"
         id="path5210" />
      <path
         inkscape:connector-curvature="0"
         d="m -6,-5 6,14 m 6,-14 -6,14 -2,4 -2,2 -2,1 -1,0"
         style="fill:none;stroke:#000000"
         transform="translate(485,159)"
         id="path5212" />
      <path
         inkscape:connector-curvature="0"
         d="m -10,-1 1,-2 2,-2 2,0 1,1 1,2 0,3 -2,5 m 1,-10 0,4 -1,4 0,4 m 1,-10 -2,5 0,3 1,2 2,1 2,0 2,-1 2,-2 2,-4 m 2,-7 -4,14 -1,3 -2,3 -2,1 m 10,-21 -4,14 -2,4 m 5,-18 2,0 -4,14 -2,4 -2,2 -3,1 -3,0 -2,-1 -1,-1 0,-2 2,0 0,2 -1,0 0,-1"
         style="fill:none;stroke:#000000"
         transform="translate(504,159)"
         id="path5214" />
      <path
         inkscape:connector-curvature="0"
         d="m 6,-5 -11,14 m 0,-14 11,0 m -11,14 11,0"
         style="fill:none;stroke:#000000"
         transform="translate(8,204)"
         id="path5216" />
      <path
         inkscape:connector-curvature="0"
         d="m 7,-5 -1,2 -2,2 -8,6 -2,2 -1,2 m 13,-12 -9,0 -2,1 -1,2 m 10,-3 -4,-1 -3,0 -1,1 m 8,0 -4,-2 -3,0 -2,2 -1,3 m 0,7 9,0 2,-1 1,-2 m -10,3 4,1 3,0 1,-1 m -8,0 4,2 3,0 2,-2 1,-3"
         style="fill:none;stroke:#000000"
         transform="translate(27,204)"
         id="path5218" />
      <path
         inkscape:connector-curvature="0"
         d="m 2,-16 -2,1 -1,1 -1,2 0,2 1,2 1,1 1,2 0,2 -2,2 m 1,-14 -1,2 0,2 1,2 1,1 1,2 0,2 -1,2 -4,2 4,2 1,2 0,2 -1,2 -1,1 -1,2 0,2 1,2 m -1,-14 2,2 0,2 -1,2 -1,1 -1,2 0,2 1,2 1,1 2,1"
         style="fill:none;stroke:#000000"
         transform="translate(59,204)"
         id="path5220" />
      <path
         inkscape:connector-curvature="0"
         d="m -11,-6 3,-3 3,3 0,12 m -4,-14 3,3 0,11 m 1,-12 3,-3 3,3 0,12 m -4,-14 3,3 0,11 m 1,-12 3,-3 3,3 0,11 2,2 m -6,-15 3,3 0,11 2,2 3,-3"
         style="fill:none;stroke:#000000"
         transform="translate(78,204)"
         id="path5222" />
      <path
         inkscape:connector-curvature="0"
         d="m 0,-16 0,32"
         style="fill:none;stroke:#000000"
         transform="translate(110,204)"
         id="path5224" />
      <path
         inkscape:connector-curvature="0"
         d="m 8,-9 -16,16 m 16,-16 -3,1 -6,0 m 7,1 -3,0 -4,-1 m 9,-1 -1,3 0,6 m -1,-7 0,3 1,4 m -8,0 -7,0 m 6,1 -3,0 -3,-1 m 7,0 0,7 m -1,-6 0,3 1,3"
         style="fill:none;stroke:#000000"
         transform="translate(125,204)"
         id="path5226" />
      <path
         inkscape:connector-curvature="0"
         d="m -2,-16 2,1 1,1 1,2 0,2 -1,2 -1,1 -1,2 0,2 2,2 m -1,-14 1,2 0,2 -1,2 -1,1 -1,2 0,2 1,2 4,2 -4,2 -1,2 0,2 1,2 1,1 1,2 0,2 -1,2 m 1,-14 -2,2 0,2 1,2 1,1 1,2 0,2 -1,2 -1,1 -2,1"
         style="fill:none;stroke:#000000"
         transform="translate(158,204)"
         id="path5228" />
      <path
         inkscape:connector-curvature="0"
         d="m -10,-3 2,-4 5,10 m -5,-8 5,10 3,-7 5,0 3,-1 1,-2 0,-2 -1,-2 -2,-1 -1,0 -2,1 -1,2 0,2 1,3 1,2 1,3 0,3 -2,2 m 2,-18 -1,1 -1,2 0,2 2,4 1,3 0,3 -1,2 -2,1"
         style="fill:none;stroke:#000000"
         transform="translate(177,204)"
         id="path5230" />
      <path
         inkscape:connector-curvature="0"
         d="m -9,3 0,-2 1,-3 2,-1 2,0 2,1 4,3 2,1 2,0 2,-1 1,-2 m -18,2 1,-2 2,-1 2,0 2,1 4,3 2,1 2,0 2,-1 1,-3 0,-2"
         style="fill:none;stroke:#000000"
         transform="translate(216,204)"
         id="path5232" />
      <path
         inkscape:connector-curvature="0"
         d="m -9,-3 3,-3 4,2 m -5,-1 4,2 3,-3 3,2 m -4,-1 3,2 3,-3 2,2 m -3,-1 2,2 3,-3 m -18,9 3,-3 4,2 m -5,-1 4,2 3,-3 3,2 m -4,-1 3,2 3,-3 2,2 m -3,-1 2,2 3,-3"
         style="fill:none;stroke:#000000"
         transform="translate(240,204)"
         id="path5234" />
      <path
         inkscape:connector-curvature="0"
         d="m -8,-12 0,21 1,0 0,-21 1,0 0,21 1,0 0,-21 1,0 0,21 1,0 0,-21 1,0 0,21 1,0 0,-21 1,0 0,21 1,0 0,-21 1,0 0,21 1,0 0,-21 1,0 0,21 1,0 0,-21 1,0 0,21 1,0 0,-21 1,0 0,21"
         style="fill:none;stroke:#000000"
         transform="translate(275,204)"
         id="path5236" />
      <path
         inkscape:connector-curvature="0"
         d="m -9,3 0,-2 1,-3 2,-1 2,0 2,1 4,3 2,1 2,0 2,-1 1,-2 m -18,2 1,-2 2,-1 2,0 2,1 4,3 2,1 2,0 2,-1 1,-3 0,-2"
         style="fill:none;stroke:#000000"
         transform="translate(295,204)"
         id="path5238" />
    </g>
    <g
       id="g5656"
       inkscape:label="Hershey Text">
      <path
         id="path5658"
         style="fill:none;stroke:#000000;stroke-width:0.89999998"
         d="m 4.85,-4.6250022 -0.9,-0.9 0,-1.8 0.9,-1.8 1.8,-0.8999998 1.8,0 1.8,0.8999998 0.9,0.9 0.9,1.8 0.9,4.5 m -9,-5.4 1.8,-1.8 1.8,0 1.8,0.9 0.9,0.9 0.9,1.8 0.9,3.6 0,9.9 m 8.1,-12.6 0.9,-0.9 0,-1.8 -0.9,-1.8 -1.8,-0.8999998 -1.8,0 -1.8,0.8999998 -0.9,0.9 -0.9,1.8 -0.9,4.5 m 9,-5.4 -1.8,-1.8 -1.8,0 -1.8,0.9 -0.9,0.9 -0.9,1.8 -0.9,3.6 0,9.9"
         inkscape:connector-curvature="0" />
    </g>
    <g
       transform="matrix(0.9488595,0,0,0.9488595,0.61368595,-0.04239951)"
       inkscape:label="Hershey Text"
       id="g6077">
      <path
         inkscape:connector-curvature="0"
         d="m -9,-11 1,4 1,2 2,2 3,1 4,0 3,-1 2,-2 1,-2 1,-4 m -18,0 1,3 1,2 2,2 3,1 4,0 3,-1 2,-2 1,-2 1,-3 m -11,8 -2,1 -1,1 -1,2 0,3 1,2 2,2 2,1 2,0 2,-1 2,-2 1,-2 0,-3 -1,-2 -1,-1 -2,-1 m -4,1 -2,1 -1,2 0,3 1,3 m 8,0 1,-3 0,-3 -1,-2 -2,-1"
         style="fill:none;stroke:#000000"
         transform="translate(12,0)"
         id="path6079" />
    </g>
    <g
       id="g6483"
       inkscape:label="Hershey Text">
      <path
         id="path6485"
         style="fill:none;stroke:#000000;stroke-width:0.96220118"
         d="m 7.1889942,-7.7732078 0,11.546414 m 0.9622011,-10.5842129 0,9.6220117 m 7.6976097,-9.6220117 0,9.6220117 m 0.962201,-10.5842128 0,11.546414 m -13.4708165,-14.4330172 1.9244023,1.924402 1.9244024,0.9622012 2.8866038,0.9622011 3.848804,0 2.886604,-0.9622011 1.924402,-0.9622012 1.924403,-1.924402 m -17.3196215,17.3196207 1.9244023,-1.9244024 1.9244024,-0.9622011 2.8866038,-0.9622012 3.848804,0 2.886604,0.9622012 1.924402,0.9622011 1.924403,1.9244024"
         inkscape:connector-curvature="0" />
    </g>
    <g
       transform="matrix(0.94736842,0,0,0.94736842,0.63157895,-0.07894853)"
       inkscape:label="Hershey Text"
       id="g6893">
      <path
         inkscape:connector-curvature="0"
         d="m 9,-9 -15,0 -2,1 -1,2 0,2 1,2 2,1 2,0 2,-1 1,-2 0,-2 -1,-2 11,0 m -18,3 1,2 1,1 2,1 m 4,-4 -1,-2 -1,-1 -2,-1 m -4,15 15,0 2,-1 1,-2 0,-2 -1,-2 -2,-1 -2,0 -2,1 -1,2 0,2 1,2 -11,0 m 18,-3 -1,-2 -1,-1 -2,-1 m -4,4 1,2 1,1 2,1"
         style="fill:none;stroke:#000000"
         transform="translate(12,0)"
         id="path6895" />
    </g>
    <g
       id="g7307"
       inkscape:label="Hershey Text">
      <path
         id="path7309"
         style="fill:none;stroke:#000000"
         d="m 9,3 -2,-1 -1,0 -2,1 -1,2 0,1 1,2 2,1 1,0 2,-1 1,-2 0,-1 -1,-2 -5,-5 -1,-2 0,-3 1,-2 2,-1 3,-1 4,0 4,1 2,2 1,2 0,3 -1,3 -3,3 -1,2 0,2 1,2 2,0 1,-1 1,-2 m -13,-5 -2,-3 -1,-2 0,-3 1,-2 1,-1 m 7,-1 3,1 2,2 1,2 0,3 -1,3 -2,3"
         inkscape:connector-curvature="0" />
    </g>
    <g
       inkscape:label="Hershey Text"
       id="g10251">
      <path
         inkscape:connector-curvature="0"
         d="m -8.6216028,-6.1365461 2.5894868,-2.5894868 1.7263245,2.5894868 0,9.4947847 m -2.5894868,-11.2211092 1.7263245,2.5894867 0,8.6316225 m 0.8631623,-9.4947847 2.5894867,-2.5894868 1.72632451,2.5894868 0,8.6316224 m -2.58948671,-10.3579469 1.72632447,2.5894867 0,7.7684602 m 0.86316224,-8.6316224 2.58948679,-2.5894868 1.7263244,2.5894868 0,13.8105959 m -2.5894867,-15.5369204 1.7263245,2.5894867 0,12.9474337 m 0.8631622,-13.8105959 2.5894868,-2.5894868 0.8631622,1.7263245 0.8631623,2.5894868 0,2.5894867 -0.8631623,2.58948673 -0.8631622,1.72632447 -1.7263245,1.7263245 -2.5894867,1.7263245 -4.3158113,1.7263245 m 7.7684602,-15.5369204 0.8631623,0.8631622 0.8631622,2.5894868 0,2.5894867 -0.8631622,2.58948673 -0.8631623,1.72632447 -1.7263245,1.7263245 -2.5894867,1.7263245 -3.452649,1.7263245"
         style="fill:none;stroke:#000000;stroke-width:0.86316222"
         id="path10253" />
    </g>
    <g
       id="g10673"
       inkscape:label="Hershey Text">
      <path
         id="path10675"
         style="fill:none;stroke:#000000;stroke-width:0.85714287"
         d="m 8.5714286,3.3571397 -1.7142857,-0.8571429 -0.8571429,0 -1.7142857,0.8571429 -0.8571429,1.7142857 0,0.8571429 0.8571429,1.7142857 1.7142857,0.8571428 0.8571429,0 1.7142857,-0.8571428 0.8571428,-1.7142857 0,-0.8571429 -0.8571428,-1.7142857 -2.5714286,-3.42857143 -0.8571429,-2.57142857 0,-1.7142857 0.8571429,-2.5714286 1.7142857,-1.7142857 2.5714283,-0.8571429 3.428572,0 2.571428,0.8571429 1.714286,1.7142857 0.857143,2.5714286 0,1.7142857 -0.857143,2.57142857 -2.571429,3.42857143 -0.857142,1.7142857 0,0.8571429 0.857142,1.7142857 1.714286,0.8571428 0.857143,0 1.714286,-0.8571428 0.857143,-1.7142857 0,-0.8571429 -0.857143,-1.7142857 -1.714286,-0.8571429 -0.857143,0 -1.714286,0.8571429 m -10.2857139,-7.7142857 0.8571429,-1.7142857 1.7142857,-1.7142857 2.5714283,-0.8571429 3.428572,0 2.571428,0.8571429 1.714286,1.7142857 0.857143,1.7142857"
         inkscape:connector-curvature="0" />
    </g>
    <g
       inkscape:label="Hershey Text"
       id="g11099">
      <path
         inkscape:connector-curvature="0"
         d="m -8.719737,-4.8598731 2.3781101,-2.3781101 2.3781101,2.3781101 0,9.5124404 m -3.1708135,-11.0978471 2.3781101,2.3781101 0,8.719737 m 0.7927034,-9.5124404 2.3781101,-2.3781101 2.37811007,2.3781101 0,9.5124404 m -3.17081347,-11.0978471 2.3781101,2.3781101 0,8.719737 m 0.79270337,-9.5124404 2.37811013,-2.3781101 2.3781101,2.3781101 0,8.719737 1.5854067,1.5854068 m -4.7562202,-11.8905505 2.3781101,2.3781101 0,8.719737 1.5854067,1.5854067 2.3781101,-2.3781101"
         style="fill:none;stroke:#000000;stroke-width:0.79270339"
         id="path11101" />
    </g>
    <g
       id="g11529"
       inkscape:label="Hershey Text">
      <path
         id="path11531"
         style="fill:none;stroke:#000000;stroke-width:1.06965256"
         d="m 8.5530134,-9.5530119 -17.11444,17.11444 m 17.11444,-17.11444 -3.2089575,1.0696525 -6.417915,0 m 7.4875675,1.0696525 -3.2089575,0 -4.27861,-1.0696525 m 9.6268725,-1.0696525 -1.0696525,3.2089575 0,6.41791504 m -1.0696525,-7.48756754 0,3.2089575 1.0696525,4.27861004 m -8.55722,0 -7.4875675,0 m 6.417915,1.06965246 -3.2089575,0 -3.2089575,-1.06965246 m 7.4875675,0 0,7.48756746 m -1.0696525,-6.417915 0,3.2089575 1.0696525,3.2089575"
         inkscape:connector-curvature="0" />
    </g>
    <g
       inkscape:label="Hershey Text"
       id="g11963">
      <path
         inkscape:connector-curvature="0"
         d="m -9.0700494,-2.807342 1.8047633,-3.6095267 4.5119084,9.0238168 m -4.5119084,-7.2190534 4.5119084,9.0238167 2.707145,-6.3166717 4.5119084,0 2.707145,-0.9023817 0.9023817,-1.8047633 0,-1.8047634 -0.9023817,-1.8047633 -1.8047634,-0.9023817 -0.9023816,0 -1.8047634,0.9023817 -0.9023817,1.8047633 0,1.8047634 0.9023817,2.707145 0.9023817,1.80476336 0.9023817,2.70714504 0,2.707145 -1.8047634,1.8047633 m 1.8047634,-16.2428701 -0.9023817,0.9023817 -0.9023817,1.8047633 0,1.8047634 1.8047634,3.6095267 0.9023816,2.707145 0,2.707145 -0.9023816,1.8047634 -1.8047634,0.9023816"
         style="fill:none;stroke:#000000;stroke-width:0.90238166"
         id="path11965" />
    </g>
    <g
       id="g12401"
       inkscape:label="Hershey Text">
      <path
         id="path12403"
         style="fill:none;stroke:#000000;stroke-width:0.96220118"
         d="m -8.6598105,-2.9433026 2.8866035,-2.8866035 3.8488047,1.9244023 m -4.8110059,-0.9622011 3.8488047,1.9244023 2.8866035,-2.8866035 2.8866035,1.9244023 m -3.84880467,-0.9622011 2.88660347,1.9244023 2.8866035,-2.8866035 1.9244024,1.9244023 m -2.8866035,-0.9622011 1.9244023,1.9244023 2.8866035,-2.8866035 m -17.319621,8.6598105 2.8866035,-2.88660348 3.8488047,1.92440238 m -4.8110059,-0.96220121 3.8488047,1.92440231 2.8866035,-2.88660348 2.8866035,1.92440238 m -3.84880467,-0.96220121 2.88660347,1.92440231 2.8866035,-2.88660348 1.9244024,1.92440238 m -2.8866035,-0.96220121 1.9244023,1.92440231 2.8866035,-2.88660348"
         inkscape:connector-curvature="0" />
    </g>
  </g>
</svg>
