<?xml version="1.0" encoding="UTF-8" standalone="no"?>
<!-- Created with Inkscape (http://www.inkscape.org/) -->

<svg
   xmlns:dc="http://purl.org/dc/elements/1.1/"
   xmlns:cc="http://creativecommons.org/ns#"
   xmlns:rdf="http://www.w3.org/1999/02/22-rdf-syntax-ns#"
   xmlns:svg="http://www.w3.org/2000/svg"
   xmlns="http://www.w3.org/2000/svg"
   xmlns:sodipodi="http://sodipodi.sourceforge.net/DTD/sodipodi-0.dtd"
   xmlns:inkscape="http://www.inkscape.org/namespaces/inkscape"
   width="210mm"
   height="297mm"
   id="svg3031"
   version="1.1"
   inkscape:version="0.48.4 r9939"
   sodipodi:docname="New document 2">
  <defs
     id="defs3" />
  <sodipodi:namedview
     inkscape:document-units="mm"
     id="base"
     pagecolor="#ffffff"
     bordercolor="#666666"
     borderopacity="1.0"
     inkscape:pageopacity="0.0"
     inkscape:pageshadow="2"
     inkscape:zoom="0.35"
     inkscape:cx="-134.28571"
     inkscape:cy="520"
     inkscape:current-layer="layer1"
     showgrid="false"
     inkscape:window-width="1366"
     inkscape:window-height="719"
     inkscape:window-x="0"
     inkscape:window-y="25"
     inkscape:window-maximized="1" />
  <metadata
     id="metadata4">
    <rdf:RDF>
      <cc:Work
         rdf:about="">
        <dc:format>image/svg+xml</dc:format>
        <dc:type
           rdf:resource="http://purl.org/dc/dcmitype/StillImage" />
        <dc:title></dc:title>
      </cc:Work>
    </rdf:RDF>
  </metadata>
  <g
     inkscape:label="Layer 1"
     inkscape:groupmode="layer"
     id="layer1">
    <path
       inkscape:connector-curvature="0"
       style="font-size:64px;font-style:normal;font-variant:normal;font-weight:normal;font-stretch:normal;text-align:start;line-height:125%;writing-mode:lr-tb;text-anchor:start;fill:#000000;fill-opacity:1;stroke:none;display:inline;font-family:Arev Sans;-inkscape-font-specification:Arev Sans"
       d="m 344.225,527.39968 c -0.225,-0.53332 -0.54584,-1.00832 -0.9625,-1.425 -0.38334,-0.38332 -0.85417,-0.69998 -1.4125,-0.95 -0.48334,-0.21665 -1.0375,-0.32498 -1.6625,-0.325 l 0,-1.875 c 0.85833,2e-5 1.65,0.15419 2.375,0.4625 0.75833,0.32502 1.43333,0.77918 2.025,1.3625 0.6,0.59168 1.05833,1.27085 1.375,2.0375 0.22499,0.53335 0.54583,1.00835 0.9625,1.425 0.38332,0.38335 0.85416,0.70001 1.4125,0.95 0.48332,0.21668 1.03749,0.32501 1.6625,0.325 0.59999,1e-5 1.15416,-0.10832 1.6625,-0.325 0.53332,-0.22499 1.00415,-0.54165 1.4125,-0.95 0.41665,-0.41665 0.73748,-0.89165 0.9625,-1.425 0.31665,-0.76665 0.77498,-1.44582 1.375,-2.0375 0.59165,-0.58332 1.26665,-1.03748 2.025,-1.3625 0.72498,-0.30831 1.51665,-0.46248 2.375,-0.4625 l 0,1.875 c -0.62502,2e-5 -1.17919,0.10835 -1.6625,0.325 -0.55835,0.25002 -1.02918,0.56668 -1.4125,0.95 -0.41668,0.41668 -0.73752,0.89168 -0.9625,1.425 -0.31668,0.75835 -0.77502,1.43751 -1.375,2.0375 -0.29168,0.29168 -0.67085,0.58751 -1.1375,0.8875 0.46665,0.30001 0.84582,0.59584 1.1375,0.8875 0.59998,0.60001 1.05832,1.27918 1.375,2.0375 0.30832,0.75001 0.46248,1.55418 0.4625,2.4125 -2e-5,0.83334 -0.15418,1.625 -0.4625,2.375 -0.32502,0.76667 -0.78335,1.44584 -1.375,2.0375 -0.59168,0.58334 -1.26668,1.0375 -2.025,1.3625 -0.72501,0.30834 -1.51668,0.4625 -2.375,0.4625 -0.90001,0 -1.69168,-0.15416 -2.375,-0.4625 -0.79168,-0.35833 -1.46667,-0.8125 -2.025,-1.3625 -0.59167,-0.59166 -1.05,-1.27083 -1.375,-2.0375 -0.30834,-0.75 -0.4625,-1.54166 -0.4625,-2.375 0,-0.85832 0.15416,-1.66249 0.4625,-2.4125 0.33333,-0.80832 0.79166,-1.48749 1.375,-2.0375 0.35833,-0.34166 0.74166,-0.63749 1.15,-0.8875 -0.41667,-0.24999 -0.80001,-0.54582 -1.15,-0.8875 -0.58334,-0.56665 -1.04167,-1.24582 -1.375,-2.0375 m 7.4375,4.1875 c -0.50834,-0.21666 -1.06251,-0.32499 -1.6625,-0.325 -0.60001,1e-5 -1.15418,0.10834 -1.6625,0.325 -0.51668,0.23334 -0.98751,0.55001 -1.4125,0.95 -0.43334,0.45001 -0.75417,0.92501 -0.9625,1.425 -0.21667,0.52501 -0.32501,1.09168 -0.325,1.7 -10e-6,0.58334 0.10833,1.1375 0.325,1.6625 0.20833,0.5 0.52916,0.975 0.9625,1.425 0.42499,0.4 0.89582,0.71667 1.4125,0.95 0.50832,0.21667 1.06249,0.325 1.6625,0.325 0.59999,0 1.15416,-0.10833 1.6625,-0.325 0.51665,-0.23333 0.98749,-0.55 1.4125,-0.95 0.43332,-0.45 0.75415,-0.925 0.9625,-1.425 0.21665,-0.525 0.32498,-1.07916 0.325,-1.6625 -2e-5,-0.60832 -0.10835,-1.17499 -0.325,-1.7 -0.20835,-0.49999 -0.52918,-0.97499 -0.9625,-1.425 -0.42501,-0.39999 -0.89585,-0.71666 -1.4125,-0.95"
       id="text2433" />
  </g>
</svg>
