<?xml version="1.0" encoding="UTF-8" standalone="no"?>
<!-- Created with Inkscape (http://www.inkscape.org/) -->

<svg
   xmlns:dc="http://purl.org/dc/elements/1.1/"
   xmlns:cc="http://creativecommons.org/ns#"
   xmlns:rdf="http://www.w3.org/1999/02/22-rdf-syntax-ns#"
   xmlns:svg="http://www.w3.org/2000/svg"
   xmlns="http://www.w3.org/2000/svg"
   xmlns:sodipodi="http://sodipodi.sourceforge.net/DTD/sodipodi-0.dtd"
   xmlns:inkscape="http://www.inkscape.org/namespaces/inkscape"
   width="50"
   height="50"
   id="svg34864"
   sodipodi:version="0.32"
   inkscape:version="0.91 r13725"
   version="1.0"
   sodipodi:docname="Uranus.svg">
  <defs
     id="defs34866" />
  <sodipodi:namedview
     id="base"
     pagecolor="#ffffff"
     bordercolor="#666666"
     borderopacity="1.0"
     gridtolerance="10000"
     guidetolerance="10"
     objecttolerance="10"
     inkscape:pageopacity="0.0"
     inkscape:pageshadow="2"
     inkscape:zoom="5.6"
     inkscape:cx="-26.25"
     inkscape:cy="23.255801"
     inkscape:document-units="px"
     inkscape:current-layer="layer1"
     inkscape:window-width="1280"
     inkscape:window-height="975"
     inkscape:window-x="0"
     inkscape:window-y="25"
     showgrid="false"
     inkscape:window-maximized="1" />
  <metadata
     id="metadata34869">
    <rdf:RDF>
      <cc:Work
         rdf:about="">
        <dc:format>image/svg+xml</dc:format>
        <dc:type
           rdf:resource="http://purl.org/dc/dcmitype/StillImage" />
      </cc:Work>
    </rdf:RDF>
  </metadata>
  <g
     inkscape:label="Layer 1"
     inkscape:groupmode="layer"
     id="layer1"
     transform="translate(-348.7552,-478.0905)">
    <path
       id="path6780"
       style="fill:#000000;fill-opacity:1;fill-rule:evenodd;stroke:#000000;stroke-width:0.1;stroke-linecap:butt;stroke-linejoin:miter;stroke-miterlimit:4;stroke-dasharray:none;stroke-opacity:1"
       d="m 378.98679,506.3734 2.91667,0 0,-0.41666 -1.66667,-0.41667 0,-8.33333 1.66667,-0.41667 0,-0.41667 -2.91667,0 0,10 z m -9.16666,0 -2.91667,0 0,-0.41666 1.66667,-0.41667 0,-8.33333 -1.66667,-0.41667 0,-0.41667 2.91667,0 0,10 z"
       inkscape:connector-curvature="0" />
    <path
       id="path6786"
       style="color:#000000;display:inline;overflow:visible;visibility:visible;opacity:1;fill:none;fill-opacity:0.75;fill-rule:evenodd;stroke:#000000;stroke-width:1.25000036;stroke-linecap:butt;stroke-linejoin:miter;stroke-miterlimit:4;stroke-dasharray:none;stroke-dashoffset:0;stroke-opacity:1;marker:none;marker-start:none;marker-mid:none;marker-end:none"
       d="m 376.0701,509.29009 a 1.6666672,1.6666672 0 0 1 -1.66667,1.66666 1.6666672,1.6666672 0 0 1 -1.66666,-1.66666 1.6666672,1.6666672 0 0 1 1.66666,-1.66667 1.6666672,1.6666672 0 0 1 1.66667,1.66667 z m -1.66664,-12.91669 0,10.83334 m -5,-5.83334 10,0"
       inkscape:connector-curvature="0" />
  </g>
</svg>
