<?xml version="1.0" encoding="UTF-8" standalone="no"?>
<!-- Created with Inkscape (http://www.inkscape.org/) -->

<svg
   xmlns:dc="http://purl.org/dc/elements/1.1/"
   xmlns:cc="http://creativecommons.org/ns#"
   xmlns:rdf="http://www.w3.org/1999/02/22-rdf-syntax-ns#"
   xmlns:svg="http://www.w3.org/2000/svg"
   xmlns="http://www.w3.org/2000/svg"
   xmlns:sodipodi="http://sodipodi.sourceforge.net/DTD/sodipodi-0.dtd"
   xmlns:inkscape="http://www.inkscape.org/namespaces/inkscape"
   width="50"
   height="50"
   id="svg34864"
   sodipodi:version="0.32"
   inkscape:version="0.48.4 r9939"
   version="1.0"
   sodipodi:docname="Uranus.svg">
  <defs
     id="defs34866" />
  <sodipodi:namedview
     id="base"
     pagecolor="#ffffff"
     bordercolor="#666666"
     borderopacity="1.0"
     gridtolerance="10000"
     guidetolerance="10"
     objecttolerance="10"
     inkscape:pageopacity="0.0"
     inkscape:pageshadow="2"
     inkscape:zoom="5.6"
     inkscape:cx="8.4161174"
     inkscape:cy="18.380435"
     inkscape:document-units="px"
     inkscape:current-layer="layer1"
     inkscape:window-width="1366"
     inkscape:window-height="719"
     inkscape:window-x="0"
     inkscape:window-y="25"
     showgrid="false"
     inkscape:window-maximized="1" />
  <metadata
     id="metadata34869">
    <rdf:RDF>
      <cc:Work
         rdf:about="">
        <dc:format>image/svg+xml</dc:format>
        <dc:type
           rdf:resource="http://purl.org/dc/dcmitype/StillImage" />
      </cc:Work>
    </rdf:RDF>
  </metadata>
  <g
     inkscape:label="Layer 1"
     inkscape:groupmode="layer"
     id="layer1"
     transform="translate(-348.7552,-478.0905)">
    <path
       id="path23256"
       style="color:#000000;fill:none;stroke:#000000;stroke-width:1.65123212;stroke-linecap:butt;stroke-linejoin:miter;stroke-miterlimit:4;stroke-opacity:1;stroke-dashoffset:0;marker:none;visibility:visible;display:inline;overflow:visible"
       d="m 375.04765,506.89621 c 0,0.47733 -0.38695,0.86428 -0.86427,0.86428 -0.47733,0 -0.86428,-0.38695 -0.86428,-0.86428 0,-0.47732 0.38695,-0.86427 0.86428,-0.86427 0.47732,0 0.86427,0.38695 0.86427,0.86427 z m 5.82563,0.10284 c 0,3.63818 -2.94703,6.58752 -6.58238,6.58752 -3.63535,0 -6.58238,-2.94934 -6.58238,-6.58752 0,-3.63819 2.94703,-6.58753 6.58238,-6.58753 3.63535,0 6.58238,2.94934 6.58238,6.58753 z m -9.75964,-11.3805 3.0182,-3.0858 3.08578,3.01822 m -2.99353,-3.31362 0,8.01818"
       inkscape:connector-curvature="0" />
  </g>
</svg>
