<?xml version="1.0" encoding="UTF-8" standalone="no"?>
<!-- Created with Inkscape (http://www.inkscape.org/) -->

<svg
   xmlns:dc="http://purl.org/dc/elements/1.1/"
   xmlns:cc="http://creativecommons.org/ns#"
   xmlns:rdf="http://www.w3.org/1999/02/22-rdf-syntax-ns#"
   xmlns:svg="http://www.w3.org/2000/svg"
   xmlns="http://www.w3.org/2000/svg"
   xmlns:sodipodi="http://sodipodi.sourceforge.net/DTD/sodipodi-0.dtd"
   xmlns:inkscape="http://www.inkscape.org/namespaces/inkscape"
   width="210mm"
   height="297mm"
   id="svg3256"
   version="1.1"
   inkscape:version="0.48.4 r9939"
   sodipodi:docname="New document 14">
  <defs
     id="defs3" />
  <sodipodi:namedview
     inkscape:document-units="mm"
     id="base"
     pagecolor="#ffffff"
     bordercolor="#666666"
     borderopacity="1.0"
     inkscape:pageopacity="0.0"
     inkscape:pageshadow="2"
     inkscape:zoom="7.0732939"
     inkscape:cx="329.10917"
     inkscape:cy="517.64365"
     inkscape:current-layer="layer1"
     showgrid="false"
     inkscape:window-width="1366"
     inkscape:window-height="719"
     inkscape:window-x="0"
     inkscape:window-y="25"
     inkscape:window-maximized="1" />
  <metadata
     id="metadata4">
    <rdf:RDF>
      <cc:Work
         rdf:about="">
        <dc:format>image/svg+xml</dc:format>
        <dc:type
           rdf:resource="http://purl.org/dc/dcmitype/StillImage" />
        <dc:title></dc:title>
      </cc:Work>
    </rdf:RDF>
  </metadata>
  <g
     inkscape:label="Layer 1"
     inkscape:groupmode="layer"
     id="layer1">
    <path
       style="font-size:64px;font-style:normal;font-variant:normal;font-weight:normal;font-stretch:normal;text-align:start;line-height:125%;writing-mode:lr-tb;text-anchor:start;fill:#000000;fill-opacity:1;stroke:none;display:inline;font-family:Arev Sans;-inkscape-font-specification:Arev Sans"
       d="m 355.19715,538.56661 c 2.59723,-2.5223 3.43689,-6.5119 2.53053,-9.95443 -0.72556,-1.65651 -1.83788,0.32503 -2.05982,1.24822 -0.71964,2.09655 -0.40236,4.3329 -0.47071,6.50529 0,0.73364 0,1.46728 0,2.20092 z m -1.5,3.45 c -1.27103,0.70271 -2.6746,1.18885 -4.125,1.325 0,-0.62917 0,-1.25833 0,-1.8875 1.34404,-0.17807 2.63603,-0.68202 3.775,-1.4125 -0.0912,-4.6822 0.062,-9.36824 -0.0827,-14.04843 -0.19977,-1.03653 -0.11252,-2.69172 -1.26235,-3.09907 -1.06767,0.5251 -1.39925,1.88017 -1.90499,2.88347 -0.79596,2.2551 -0.45436,4.66899 -0.52491,7.01058 0,2.22198 0,4.44397 0,6.66595 -0.625,0 -1.25,0 -1.875,0 -0.0345,-4.4232 0.0732,-8.85021 -0.062,-13.27094 -0.16445,-1.04379 -0.0485,-3.227 -1.42274,-3.22278 -0.96776,0.66843 -1.29184,1.94938 -1.79757,2.96578 -0.72814,2.27934 -0.39886,4.69576 -0.46761,7.04837 0,2.15985 0,4.31971 0,6.47957 -0.625,0 -1.25,0 -1.875,0 -0.0363,-4.35697 0.0769,-8.71786 -0.065,-13.07229 -0.15998,-1.92797 -0.65613,-3.92286 -1.93494,-5.42771 0.64167,0 1.28333,0 1.925,0 0.85827,0.6841 1.27782,2.37848 1.58307,2.92075 0.48598,-1.33621 1.34784,-2.58519 2.58801,-3.31918 1.49621,-0.33797 2.2595,1.41128 2.73003,2.53188 0.0459,0.50422 0.41267,1.15619 0.52017,0.25054 0.64691,-1.22416 1.62834,-2.93079 3.20678,-2.81946 1.13191,0.45051 1.70704,1.69821 2.11232,2.77607 0.3594,1.19839 0.32811,2.46139 0.42211,3.6969 0.53071,-0.9533 1.53434,-2.46633 2.79507,-1.85918 1.01403,0.74235 1.26039,2.09136 1.60832,3.22696 0.99555,3.94395 0.0397,8.4253 -2.86477,11.35309 -0.72515,0.71396 -1.83488,1.27952 -0.97749,2.37957 0.21474,0.80025 1.21465,1.76992 1.37729,2.21206 -0.76697,0 -1.53394,0 -2.30091,0 -0.45359,-0.71569 -0.85802,-1.47217 -1.10008,-2.2875 z"
       id="text2437"
       inkscape:connector-curvature="0" />
  </g>
</svg>
