<?xml version="1.0" encoding="UTF-8" standalone="no"?>
<!-- Created with Inkscape (http://www.inkscape.org/) -->

<svg
   xmlns:dc="http://purl.org/dc/elements/1.1/"
   xmlns:cc="http://creativecommons.org/ns#"
   xmlns:rdf="http://www.w3.org/1999/02/22-rdf-syntax-ns#"
   xmlns:svg="http://www.w3.org/2000/svg"
   xmlns="http://www.w3.org/2000/svg"
   xmlns:sodipodi="http://sodipodi.sourceforge.net/DTD/sodipodi-0.dtd"
   xmlns:inkscape="http://www.inkscape.org/namespaces/inkscape"
   width="210mm"
   height="297mm"
   id="svg3256"
   version="1.1"
   inkscape:version="0.91 r13725"
   sodipodi:docname="Virgo.svg">
  <defs
     id="defs3" />
  <sodipodi:namedview
     inkscape:document-units="mm"
     id="base"
     pagecolor="#ffffff"
     bordercolor="#666666"
     borderopacity="1.0"
     inkscape:pageopacity="0.0"
     inkscape:pageshadow="2"
     inkscape:zoom="7.0732939"
     inkscape:cx="341.08811"
     inkscape:cy="517.3609"
     inkscape:current-layer="layer1"
     showgrid="false"
     inkscape:window-width="1280"
     inkscape:window-height="975"
     inkscape:window-x="0"
     inkscape:window-y="25"
     inkscape:window-maximized="1" />
  <metadata
     id="metadata4">
    <rdf:RDF>
      <cc:Work
         rdf:about="">
        <dc:format>image/svg+xml</dc:format>
        <dc:type
           rdf:resource="http://purl.org/dc/dcmitype/StillImage" />
        <dc:title />
      </cc:Work>
    </rdf:RDF>
  </metadata>
  <g
     inkscape:label="Layer 1"
     inkscape:groupmode="layer"
     id="layer1">
    <path
       style="font-style:normal;font-variant:normal;font-weight:normal;font-stretch:normal;font-size:64px;line-height:125%;font-family:'Arev Sans';-inkscape-font-specification:'Arev Sans';text-align:start;writing-mode:lr-tb;text-anchor:start;display:inline;fill:#000000;fill-opacity:1;stroke:none"
       d="m 354.37031,537.58534 c 2.18337,-2.12037 2.88923,-5.47424 2.1273,-8.36821 -0.60994,-1.39255 -1.54502,0.27324 -1.73159,1.04932 -0.60497,1.76247 -0.33825,3.64246 -0.39571,5.46869 0,0.61673 0,1.23347 0,1.8502 z m -1.26097,2.90026 c -1.0685,0.59073 -2.24841,0.99941 -3.4677,1.11386 0,-0.52891 0,-1.05782 0,-1.58673 1.12987,-0.1497 2.21599,-0.57334 3.17347,-1.18742 -0.0767,-3.93611 0.0521,-7.87544 -0.0695,-11.80985 -0.16794,-0.87136 -0.0946,-2.2628 -1.0612,-2.60524 -0.89754,0.44142 -1.17629,1.58057 -1.60144,2.42399 -0.66912,1.89576 -0.38196,3.925 -0.44126,5.89347 0,1.86791 0,3.73583 0,5.60374 -0.52541,0 -1.05082,0 -1.57623,0 -0.029,-3.71837 0.0615,-7.43995 -0.0521,-11.15625 -0.13824,-0.87746 -0.0408,-2.71278 -1.19603,-2.70923 -0.81355,0.56191 -1.08599,1.63875 -1.51113,2.49319 -0.61211,1.91613 -0.3353,3.9475 -0.3931,5.92523 0,1.81568 0,3.63137 0,5.44706 -0.5254,0 -1.05081,0 -1.57622,0 -0.0305,-3.66269 0.0646,-7.32869 -0.0546,-10.98925 -0.13449,-1.62075 -0.55158,-3.29776 -1.62662,-4.56282 0.53943,0 1.07884,0 1.61826,0 0.72151,0.57509 1.0742,1.99948 1.33081,2.45534 0.40854,-1.12329 1.13307,-2.17325 2.17562,-2.79028 1.25779,-0.28411 1.89945,1.1864 2.29501,2.12843 0.0386,0.42388 0.34691,0.97196 0.43728,0.21062 0.54383,-1.02909 1.36887,-2.46378 2.69579,-2.37019 0.95154,0.37873 1.43502,1.42761 1.77572,2.33371 0.30213,1.00743 0.27583,2.06918 0.35485,3.10781 0.44614,-0.80139 1.28985,-2.07332 2.34968,-1.56292 0.85245,0.62406 1.05955,1.7581 1.35204,2.71275 0.83691,3.31549 0.0334,7.08275 -2.40827,9.544 -0.6096,0.6002 -1.5425,1.07563 -0.82173,2.00039 0.18052,0.67274 1.0211,1.48789 1.15782,1.85958 -0.64476,0 -1.28951,0 -1.93427,0 -0.38131,-0.60165 -0.72129,-1.23758 -0.92478,-1.92299 z"
       id="text2437"
       inkscape:connector-curvature="0" />
  </g>
</svg>
